<svg width="60" height="60" viewBox="0 0 60 60" fill="none" xmlns="http://www.w3.org/2000/svg">
<path d="M18.558 22.896C18.5764 22.7134 18.5518 22.529 18.4861 22.3576C18.4205 22.1863 18.3157 22.0326 18.18 21.909L15.378 18.5085V18H24.075L30.798 32.8575L36.708 18H45V18.5085L42.6045 20.82C42.503 20.8984 42.4247 21.0028 42.3779 21.1223C42.3312 21.2417 42.3177 21.3715 42.339 21.498V38.499C42.3177 38.6255 42.3312 38.7553 42.3779 38.8747C42.4247 38.9942 42.503 39.0986 42.6045 39.177L44.9445 41.49V42H33.1785V41.4915L35.6025 39.1215C35.841 38.8815 35.841 38.811 35.841 38.445V24.702L29.103 41.943H28.194L20.349 24.702V36.258C20.2845 36.7425 20.445 37.233 20.784 37.584L23.9355 41.436V41.943H15V41.436L18.15 37.584C18.3167 37.4101 18.4404 37.1996 18.5112 36.9694C18.582 36.7391 18.5981 36.4955 18.558 36.258V22.896Z" fill="url(#paint0_linear_19_171)"/>
<defs>
<linearGradient id="paint0_linear_19_171" x1="19.5" y1="20.0661" x2="31.3806" y2="44.7741" gradientUnits="userSpaceOnUse">
<stop stop-color="#C60000"/>
<stop offset="1" stop-color="#B600C6"/>
</linearGradient>
</defs>
</svg>
