<svg width="60" height="60" viewBox="0 0 60 60" fill="none" xmlns="http://www.w3.org/2000/svg">
<g opacity="0.5">
<path fill-rule="evenodd" clip-rule="evenodd" d="M30 15C21.7125 15 15 21.8823 15 30.3794C15 37.1848 19.2937 42.9328 25.2562 44.9706C26.0062 45.1052 26.2875 44.6438 26.2875 44.2401C26.2875 43.8748 26.2688 42.6637 26.2688 41.3757C22.5 42.087 21.525 40.4337 21.225 39.5686C21.0563 39.1264 20.325 37.7615 19.6875 37.3963C19.1625 37.1079 18.4125 36.3966 19.6687 36.3774C20.85 36.3582 21.6937 37.4924 21.975 37.9538C23.325 40.2799 25.4812 39.6263 26.3437 39.2226C26.475 38.2229 26.8688 37.5501 27.3 37.1656C23.9625 36.7811 20.475 35.4546 20.475 29.572C20.475 27.8995 21.0563 26.5153 22.0125 25.4388C21.8625 25.0543 21.3375 23.4779 22.1625 21.3632C22.1625 21.3632 23.4187 20.9595 26.2875 22.9396C27.4875 22.5936 28.7625 22.4206 30.0375 22.4206C31.3125 22.4206 32.5875 22.5936 33.7875 22.9396C36.6562 20.9403 37.9125 21.3632 37.9125 21.3632C38.7375 23.4779 38.2125 25.0543 38.0625 25.4388C39.0188 26.5153 39.6 27.8803 39.6 29.572C39.6 35.4738 36.0938 36.7811 32.7562 37.1656C33.3 37.6462 33.7688 38.5689 33.7688 40.0108C33.7688 42.0678 33.75 43.721 33.75 44.2401C33.75 44.6438 34.0312 45.1244 34.7812 44.9706C37.759 43.9398 40.3465 41.9776 42.1796 39.3602C44.0127 36.7427 44.9991 33.6018 45 30.3794C45 21.8823 38.2875 15 30 15Z" fill="black"/>
</g>
</svg>
