<svg width="60" height="60" viewBox="0 0 60 60" fill="none" xmlns="http://www.w3.org/2000/svg">
<g opacity="0.5">
<path d="M43.1684 17.4052C40.746 16.2936 38.1494 15.4719 35.4341 15.0048C35.4099 15 35.3848 15.0031 35.3624 15.0135C35.34 15.0239 35.3213 15.0411 35.309 15.0627C34.9765 15.6572 34.606 16.4321 34.3463 17.0443C31.4665 16.6065 28.5387 16.6065 25.6588 17.0443C25.3696 16.3658 25.0435 15.7043 24.6819 15.0627C24.6697 15.0408 24.6512 15.0232 24.6288 15.0123C24.6065 15.0013 24.5814 14.9976 24.5569 15.0015C21.8431 15.4687 19.2465 16.2903 16.8225 17.4035C16.8017 17.4124 16.784 17.4276 16.7718 17.447C11.8447 24.8174 10.4941 32.0057 11.1575 39.1038C11.1594 39.1212 11.1647 39.138 11.1731 39.1532C11.1815 39.1685 11.1929 39.1818 11.2066 39.1924C14.0825 41.3228 17.2901 42.9457 20.6952 43.9932C20.719 44.0006 20.7444 44.0006 20.7681 43.9931C20.7918 43.9857 20.8128 43.9711 20.8282 43.9513C21.561 42.9542 22.2103 41.8964 22.7693 40.7889C22.7771 40.7738 22.7816 40.7571 22.7825 40.74C22.7833 40.723 22.7806 40.7059 22.7744 40.6901C22.7683 40.6742 22.7589 40.6598 22.7468 40.648C22.7347 40.6361 22.7202 40.627 22.7044 40.6213C21.6816 40.2294 20.6906 39.7565 19.7405 39.2069C19.7234 39.197 19.709 39.1829 19.6986 39.1659C19.6882 39.149 19.6821 39.1296 19.6809 39.1097C19.6796 39.0897 19.6832 39.0697 19.6914 39.0516C19.6996 39.0334 19.7122 39.0176 19.7278 39.0055C19.9273 38.8557 20.1268 38.6994 20.3168 38.5432C20.3339 38.5291 20.3545 38.5202 20.3763 38.5173C20.3981 38.5145 20.4203 38.5178 20.4403 38.527C26.6579 41.3689 33.3916 41.3689 39.5364 38.527C39.5564 38.5173 39.5788 38.5135 39.6009 38.516C39.6231 38.5186 39.644 38.5274 39.6614 38.5415C39.8514 38.6994 40.0493 38.8557 40.2504 39.0055C40.2663 39.0173 40.279 39.0329 40.2874 39.0509C40.2959 39.069 40.2998 39.0888 40.2989 39.1088C40.2979 39.1287 40.2922 39.1481 40.282 39.1653C40.2719 39.1824 40.2578 39.1967 40.2409 39.2069C39.2941 39.7611 38.3093 40.2299 37.2754 40.6197C37.2595 40.6256 37.2451 40.6348 37.233 40.6469C37.2209 40.6589 37.2115 40.6734 37.2053 40.6894C37.1992 40.7054 37.1965 40.7225 37.1974 40.7397C37.1983 40.7569 37.2027 40.7736 37.2105 40.7889C37.7805 41.8957 38.4328 42.9493 39.15 43.9497C39.1649 43.9702 39.1857 43.9856 39.2095 43.9936C39.2333 44.0017 39.259 44.0021 39.283 43.9948C42.694 42.9503 45.9069 41.3266 48.7859 39.1924C48.8 39.1824 48.8118 39.1695 48.8205 39.1545C48.8292 39.1395 48.8347 39.1227 48.8366 39.1054C49.6282 30.8989 47.5098 23.7686 43.2175 17.4503C43.207 17.4297 43.1896 17.4137 43.1684 17.4052ZM23.6987 34.7815C21.8273 34.7815 20.2836 33.0593 20.2836 30.9473C20.2836 28.8336 21.7972 27.1131 23.6987 27.1131C25.6145 27.1131 27.144 28.8481 27.1139 30.9473C27.1139 33.0609 25.6003 34.7815 23.6987 34.7815V34.7815ZM36.3254 34.7815C34.4524 34.7815 32.9103 33.0593 32.9103 30.9473C32.9103 28.8336 34.4223 27.1131 36.3254 27.1131C38.2412 27.1131 39.7707 28.8481 39.7406 30.9473C39.7406 33.0609 38.2428 34.7815 36.3254 34.7815V34.7815Z" fill="black"/>
</g>
</svg>
