<svg width="60" height="60" viewBox="0 0 60 60" fill="none" xmlns="http://www.w3.org/2000/svg">
<path d="M29.9962 24.9977C27.2419 24.9977 24.9942 27.2454 24.9942 29.9997C24.9942 32.754 27.2419 35.0018 29.9962 35.0018C32.7505 35.0018 34.9982 32.754 34.9982 29.9997C34.9982 27.2454 32.7505 24.9977 29.9962 24.9977ZM44.9986 29.9997C44.9986 27.9284 45.0173 25.8758 44.901 23.8082C44.7847 21.4066 44.2368 19.2752 42.4807 17.519C40.7208 15.7591 38.5931 15.215 36.1915 15.0987C34.1202 14.9824 32.0676 15.0011 30 15.0011C27.9286 15.0011 25.876 14.9824 23.8084 15.0987C21.4068 15.215 19.2754 15.7629 17.5193 17.519C15.7594 19.2789 15.2153 21.4066 15.0989 23.8082C14.9826 25.8795 15.0014 27.9321 15.0014 29.9997C15.0014 32.0673 14.9826 34.1237 15.0989 36.1913C15.2153 38.5929 15.7631 40.7243 17.5193 42.4804C19.2792 44.2403 21.4068 44.7844 23.8084 44.9008C25.8798 45.0171 27.9324 44.9983 30 44.9983C32.0713 44.9983 34.1239 45.0171 36.1915 44.9008C38.5931 44.7844 40.7245 44.2366 42.4807 42.4804C44.2406 40.7205 44.7847 38.5929 44.901 36.1913C45.0211 34.1237 44.9986 32.0711 44.9986 29.9997V29.9997ZM29.9962 37.696C25.7372 37.696 22.2999 34.2588 22.2999 29.9997C22.2999 25.7407 25.7372 22.3034 29.9962 22.3034C34.2553 22.3034 37.6925 25.7407 37.6925 29.9997C37.6925 34.2588 34.2553 37.696 29.9962 37.696ZM38.0077 23.7856C37.0133 23.7856 36.2103 22.9826 36.2103 21.9882C36.2103 20.9938 37.0133 20.1908 38.0077 20.1908C39.0021 20.1908 39.8052 20.9938 39.8052 21.9882C39.8055 22.2243 39.7592 22.4582 39.6689 22.6764C39.5787 22.8946 39.4463 23.0929 39.2794 23.2598C39.1124 23.4268 38.9141 23.5592 38.6959 23.6494C38.4777 23.7396 38.2439 23.7859 38.0077 23.7856V23.7856Z" fill="url(#paint0_linear_19_177)"/>
<defs>
<linearGradient id="paint0_linear_19_177" x1="19.5002" y1="17.5826" x2="36.2897" y2="45.5166" gradientUnits="userSpaceOnUse">
<stop stop-color="#C60000"/>
<stop offset="1" stop-color="#B600C6"/>
</linearGradient>
</defs>
</svg>
