<?xml version="1.0" encoding="UTF-8" standalone="no"?><svg width="60" height="60" viewBox="0 0 60 60" fill="none" xmlns="http://www.w3.org/2000/svg">
<g opacity="0.5">
<path d="M29.996 24.9977C27.2417 24.9977 24.9939 27.2454 24.9939 29.9997C24.9939 32.754 27.2417 35.0018 29.996 35.0018C32.7503 35.0018 34.998 32.754 34.998 29.9997C34.998 27.2454 32.7503 24.9977 29.996 24.9977ZM44.9983 29.9997C44.9983 27.9284 45.0171 25.8758 44.9008 23.8082C44.7844 21.4066 44.2366 19.2752 42.4804 17.519C40.7205 15.7591 38.5929 15.215 36.1913 15.0987C34.1199 14.9824 32.0673 15.0011 29.9997 15.0011C27.9284 15.0011 25.8758 14.9824 23.8082 15.0987C21.4066 15.215 19.2752 15.7629 17.519 17.519C15.7591 19.2789 15.215 21.4066 15.0987 23.8082C14.9824 25.8795 15.0011 27.9321 15.0011 29.9997C15.0011 32.0673 14.9824 34.1237 15.0987 36.1913C15.215 38.5929 15.7629 40.7243 17.519 42.4804C19.2789 44.2403 21.4066 44.7844 23.8082 44.9008C25.8795 45.0171 27.9321 44.9983 29.9997 44.9983C32.0711 44.9983 34.1237 45.0171 36.1913 44.9008C38.5929 44.7844 40.7243 44.2366 42.4804 42.4804C44.2403 40.7205 44.7844 38.5929 44.9008 36.1913C45.0208 34.1237 44.9983 32.0711 44.9983 29.9997ZM29.996 37.696C25.7369 37.696 22.2997 34.2588 22.2997 29.9997C22.2997 25.7407 25.7369 22.3034 29.996 22.3034C34.255 22.3034 37.6923 25.7407 37.6923 29.9997C37.6923 34.2588 34.255 37.696 29.996 37.696ZM38.0075 23.7856C37.0131 23.7856 36.2101 22.9826 36.2101 21.9882C36.2101 20.9938 37.0131 20.1908 38.0075 20.1908C39.0019 20.1908 39.8049 20.9938 39.8049 21.9882C39.8052 22.2243 39.7589 22.4582 39.6687 22.6764C39.5785 22.8946 39.4461 23.0929 39.2791 23.2598C39.1122 23.4268 38.9139 23.5592 38.6957 23.6494C38.4775 23.7396 38.2436 23.7859 38.0075 23.7856Z" fill="black"/>
</g>
</svg>
