<svg width="117" height="49" viewBox="0 0 117 49" fill="none" xmlns="http://www.w3.org/2000/svg">
<g opacity="0.5">
<path d="M29.3893 18.8173L28.8637 18.3824L29.0769 17.7344C29.3134 17.0154 29.7508 16.4256 30.398 16.0322C31.026 15.6504 31.7744 15.5 32.5714 15.5C33.1446 15.5 33.811 15.2958 34.5868 14.7843C35.4135 14.2392 36.0254 13.6918 36.4518 13.1518C36.6881 12.8524 36.8417 12.6239 36.9317 12.4593C36.9661 12.3965 36.9862 12.3518 36.9974 12.3235C36.9891 12.2472 36.959 12.1852 36.8854 12.1107C36.7962 12.0203 36.7311 12 36.6429 12C36.2197 12 35.8837 11.8105 35.6523 11.6174C35.4228 11.4259 35.2346 11.1818 35.0775 10.9342C34.8065 10.507 34.5046 9.98402 34.1727 9.37003C33.8661 8.80276 33.5106 8.22458 33.105 7.63551C32.7523 7.1234 32.2677 6.62613 31.6323 6.14971C31.0395 5.70526 30.3766 5.39859 29.6341 5.22872L28.8571 5.05096V4.25391V1.61559C28.6934 1.77004 28.5157 1.95633 28.3244 2.17826C27.5323 3.09734 27.0553 4.00841 26.8443 4.91122L26.7284 5.4069L26.2595 5.60487C25.1396 6.0776 24.2785 6.89436 23.6695 8.11605C23.0375 9.38395 22.7143 10.7977 22.7143 12.375C22.7143 13.3528 22.5051 14.2872 22.0876 15.167C21.6743 16.0379 21.0905 16.8087 20.3488 17.4785C19.6885 18.0748 19.1296 18.5446 18.6797 18.8746C18.2472 19.192 17.7184 19.5369 17.0996 19.9087C17.0001 19.9828 16.8842 20.0638 16.7686 20.1259C15.1701 21.0482 13.8691 21.9299 12.8539 22.7687C11.0136 24.3095 9.4755 26.2504 8.24468 28.6074C6.99029 31.0096 6.42857 32.9181 6.42857 34.375C6.42857 34.5694 6.40485 34.7648 6.36723 34.9554C6.31877 35.2009 6.20754 35.4077 6.1139 35.5553C6.01346 35.7136 5.88974 35.8705 5.75617 36.0228C5.30996 36.5314 4.70605 36.75 4.07143 36.75C3.2107 36.75 2.60088 36.2312 2.22837 35.5812C1.84103 34.9054 1.71429 33.9946 1.71429 33C1.71429 31.8725 1.9214 30.7536 2.32673 29.648C2.71524 28.5882 3.19411 27.5796 3.76352 26.6232C4.29478 25.7308 4.82653 24.8022 5.35874 23.8373C5.84855 22.9493 6.27419 21.8604 6.62612 20.5576C6.96902 19.2882 7.14286 17.9369 7.14286 16.5C7.14286 15.4327 6.71493 14.4143 5.73472 13.4212C4.75398 12.4276 3.75469 12 2.71429 12C2.2108 12 1.82623 12.1631 1.49631 12.4974C1.16578 12.8323 1 13.2282 1 13.75C1 14.0834 1.06115 14.3417 1.15818 14.5465C1.28613 14.8165 1.45169 15.0661 1.65771 15.2968C1.7952 15.4508 1.90878 15.5812 1.99443 15.6845C2.03691 15.7357 2.07819 15.7871 2.11428 15.8354L2.11448 15.8356C2.1342 15.862 2.18113 15.9248 2.22574 16.0042C3.23428 17.7041 3.71429 19.7174 3.71429 22C3.71429 22.5858 3.57553 23.3714 3.34588 24.3021C3.11134 25.2526 2.76366 26.4247 2.30705 27.8125C1.8589 29.1747 1.52801 30.2942 1.31017 31.1771C1.08744 32.0797 1 32.6691 1 33C1 34.7618 1.26057 36.4166 1.77612 37.9702C2.28683 39.5092 3.01968 40.7374 3.95613 41.6862C4.86119 42.6032 5.7958 43 6.78572 43H25.7857C25.874 43 25.9391 42.9797 26.0282 42.8893C26.1177 42.7987 26.1429 42.7267 26.1429 42.625C26.1429 42.5233 26.1177 42.4513 26.0282 42.3607C25.9391 42.2703 25.874 42.25 25.7857 42.25C25.1498 42.25 24.5593 42.0326 24.0986 41.5658C23.6388 41.0999 23.4286 40.5082 23.4286 39.875C23.4286 38.8874 23.7988 37.8448 24.4088 36.7788C24.9985 35.7483 25.7015 34.6957 26.5152 33.621C27.3003 32.5841 28.0857 31.5113 28.8716 30.4023C29.6183 29.3485 30.2622 28.1814 30.8012 26.8979C31.3233 25.6549 31.5714 24.483 31.5714 23.375C31.5714 21.533 30.8627 20.0365 29.3893 18.8173ZM37.0082 12.2926C37.0082 12.2926 37.0079 12.2935 37.0075 12.2953C37.008 12.2935 37.0082 12.2926 37.0082 12.2926Z" fill="black" stroke="black" stroke-width="2"/>
<path d="M53.392 23.096C53.392 23.52 53.18 23.732 52.756 23.732C52.332 23.732 52.12 23.52 52.12 23.096C52.12 22.672 52.332 22.46 52.756 22.46C53.18 22.46 53.392 22.672 53.392 23.096ZM51.88 23.096C51.88 23.52 51.668 23.732 51.244 23.732C50.82 23.732 50.608 23.52 50.608 23.096C50.608 22.672 50.82 22.46 51.244 22.46C51.668 22.46 51.88 22.672 51.88 23.096ZM53.356 24.608C53.356 25.008 53.156 25.208 52.756 25.208C52.356 25.208 52.156 25.008 52.156 24.608C52.156 24.208 52.356 24.008 52.756 24.008C53.156 24.008 53.356 24.208 53.356 24.608ZM50.368 23.096C50.368 23.52 50.156 23.732 49.732 23.732C49.308 23.732 49.096 23.52 49.096 23.096C49.096 22.672 49.308 22.46 49.732 22.46C50.156 22.46 50.368 22.672 50.368 23.096ZM53.32 26.12C53.32 26.496 53.132 26.684 52.756 26.684C52.38 26.684 52.192 26.496 52.192 26.12C52.192 25.744 52.38 25.556 52.756 25.556C53.132 25.556 53.32 25.744 53.32 26.12ZM48.856 23.096C48.856 23.52 48.644 23.732 48.22 23.732C47.796 23.732 47.584 23.52 47.584 23.096C47.584 22.672 47.796 22.46 48.22 22.46C48.644 22.46 48.856 22.672 48.856 23.096ZM53.284 27.632C53.284 27.984 53.108 28.16 52.756 28.16C52.404 28.16 52.228 27.984 52.228 27.632C52.228 27.28 52.404 27.104 52.756 27.104C53.108 27.104 53.284 27.28 53.284 27.632ZM53.248 29.144C53.248 29.48 53.084 29.648 52.756 29.648C52.428 29.648 52.264 29.48 52.264 29.144C52.264 28.816 52.428 28.652 52.756 28.652C53.084 28.652 53.248 28.816 53.248 29.144ZM47.308 24.608C47.308 25.008 47.108 25.208 46.708 25.208C46.308 25.208 46.108 25.008 46.108 24.608C46.108 24.208 46.308 24.008 46.708 24.008C47.108 24.008 47.308 24.208 47.308 24.608ZM51.736 29.144C51.736 29.48 51.572 29.648 51.244 29.648C50.916 29.648 50.752 29.48 50.752 29.144C50.752 28.816 50.916 28.652 51.244 28.652C51.572 28.652 51.736 28.816 51.736 29.144ZM47.272 26.12C47.272 26.496 47.084 26.684 46.708 26.684C46.332 26.684 46.144 26.496 46.144 26.12C46.144 25.744 46.332 25.556 46.708 25.556C47.084 25.556 47.272 25.744 47.272 26.12ZM50.224 29.144C50.224 29.48 50.06 29.648 49.732 29.648C49.404 29.648 49.24 29.48 49.24 29.144C49.24 28.816 49.404 28.652 49.732 28.652C50.06 28.652 50.224 28.816 50.224 29.144ZM47.236 27.632C47.236 27.984 47.06 28.16 46.708 28.16C46.356 28.16 46.18 27.984 46.18 27.632C46.18 27.28 46.356 27.104 46.708 27.104C47.06 27.104 47.236 27.28 47.236 27.632ZM48.712 29.144C48.712 29.48 48.548 29.648 48.22 29.648C47.892 29.648 47.728 29.48 47.728 29.144C47.728 28.816 47.892 28.652 48.22 28.652C48.548 28.652 48.712 28.816 48.712 29.144ZM53.212 30.656C53.212 30.968 53.06 31.124 52.756 31.124C52.452 31.124 52.3 30.968 52.3 30.656C52.3 30.352 52.452 30.2 52.756 30.2C53.06 30.2 53.212 30.352 53.212 30.656ZM51.664 32.168C51.664 32.456 51.524 32.6 51.244 32.6C50.964 32.6 50.824 32.456 50.824 32.168C50.824 31.888 50.964 31.748 51.244 31.748C51.524 31.748 51.664 31.888 51.664 32.168ZM50.152 32.168C50.152 32.456 50.012 32.6 49.732 32.6C49.452 32.6 49.312 32.456 49.312 32.168C49.312 31.888 49.452 31.748 49.732 31.748C50.012 31.748 50.152 31.888 50.152 32.168ZM48.64 32.168C48.64 32.456 48.5 32.6 48.22 32.6C47.94 32.6 47.8 32.456 47.8 32.168C47.8 31.888 47.94 31.748 48.22 31.748C48.5 31.748 48.64 31.888 48.64 32.168ZM59.0767 20.072C59.0767 20.544 58.8407 20.78 58.3687 20.78C57.8967 20.78 57.6607 20.544 57.6607 20.072C57.6607 19.6 57.8967 19.364 58.3687 19.364C58.8407 19.364 59.0767 19.6 59.0767 20.072ZM57.5647 20.072C57.5647 20.544 57.3287 20.78 56.8567 20.78C56.3847 20.78 56.1487 20.544 56.1487 20.072C56.1487 19.6 56.3847 19.364 56.8567 19.364C57.3287 19.364 57.5647 19.6 57.5647 20.072ZM59.0407 21.584C59.0407 22.032 58.8167 22.256 58.3687 22.256C57.9207 22.256 57.6967 22.032 57.6967 21.584C57.6967 21.136 57.9207 20.912 58.3687 20.912C58.8167 20.912 59.0407 21.136 59.0407 21.584ZM59.0047 23.096C59.0047 23.52 58.7927 23.732 58.3687 23.732C57.9447 23.732 57.7327 23.52 57.7327 23.096C57.7327 22.672 57.9447 22.46 58.3687 22.46C58.7927 22.46 59.0047 22.672 59.0047 23.096ZM58.9687 24.608C58.9687 25.008 58.7687 25.208 58.3687 25.208C57.9687 25.208 57.7687 25.008 57.7687 24.608C57.7687 24.208 57.9687 24.008 58.3687 24.008C58.7687 24.008 58.9687 24.208 58.9687 24.608ZM58.9327 26.12C58.9327 26.496 58.7447 26.684 58.3687 26.684C57.9927 26.684 57.8047 26.496 57.8047 26.12C57.8047 25.744 57.9927 25.556 58.3687 25.556C58.7447 25.556 58.9327 25.744 58.9327 26.12ZM58.8967 27.632C58.8967 27.984 58.7207 28.16 58.3687 28.16C58.0167 28.16 57.8407 27.984 57.8407 27.632C57.8407 27.28 58.0167 27.104 58.3687 27.104C58.7207 27.104 58.8967 27.28 58.8967 27.632ZM60.3727 29.144C60.3727 29.48 60.2087 29.648 59.8807 29.648C59.5527 29.648 59.3887 29.48 59.3887 29.144C59.3887 28.816 59.5527 28.652 59.8807 28.652C60.2087 28.652 60.3727 28.816 60.3727 29.144ZM58.8607 29.144C58.8607 29.48 58.6967 29.648 58.3687 29.648C58.0407 29.648 57.8767 29.48 57.8767 29.144C57.8767 28.816 58.0407 28.652 58.3687 28.652C58.6967 28.652 58.8607 28.816 58.8607 29.144ZM57.3487 29.144C57.3487 29.48 57.1847 29.648 56.8567 29.648C56.5287 29.648 56.3647 29.48 56.3647 29.144C56.3647 28.816 56.5287 28.652 56.8567 28.652C57.1847 28.652 57.3487 28.816 57.3487 29.144ZM69.1534 23.096C69.1534 23.52 68.9414 23.732 68.5174 23.732C68.0934 23.732 67.8814 23.52 67.8814 23.096C67.8814 22.672 68.0934 22.46 68.5174 22.46C68.9414 22.46 69.1534 22.672 69.1534 23.096ZM70.6294 24.608C70.6294 25.008 70.4294 25.208 70.0294 25.208C69.6294 25.208 69.4294 25.008 69.4294 24.608C69.4294 24.208 69.6294 24.008 70.0294 24.008C70.4294 24.008 70.6294 24.208 70.6294 24.608ZM67.6414 23.096C67.6414 23.52 67.4294 23.732 67.0054 23.732C66.5814 23.732 66.3694 23.52 66.3694 23.096C66.3694 22.672 66.5814 22.46 67.0054 22.46C67.4294 22.46 67.6414 22.672 67.6414 23.096ZM70.5934 26.12C70.5934 26.496 70.4054 26.684 70.0294 26.684C69.6534 26.684 69.4654 26.496 69.4654 26.12C69.4654 25.744 69.6534 25.556 70.0294 25.556C70.4054 25.556 70.5934 25.744 70.5934 26.12ZM66.1294 23.096C66.1294 23.52 65.9174 23.732 65.4934 23.732C65.0694 23.732 64.8574 23.52 64.8574 23.096C64.8574 22.672 65.0694 22.46 65.4934 22.46C65.9174 22.46 66.1294 22.672 66.1294 23.096ZM70.5574 27.632C70.5574 27.984 70.3814 28.16 70.0294 28.16C69.6774 28.16 69.5014 27.984 69.5014 27.632C69.5014 27.28 69.6774 27.104 70.0294 27.104C70.3814 27.104 70.5574 27.28 70.5574 27.632ZM64.5814 24.608C64.5814 25.008 64.3814 25.208 63.9814 25.208C63.5814 25.208 63.3814 25.008 63.3814 24.608C63.3814 24.208 63.5814 24.008 63.9814 24.008C64.3814 24.008 64.5814 24.208 64.5814 24.608ZM69.0094 29.144C69.0094 29.48 68.8454 29.648 68.5174 29.648C68.1894 29.648 68.0254 29.48 68.0254 29.144C68.0254 28.816 68.1894 28.652 68.5174 28.652C68.8454 28.652 69.0094 28.816 69.0094 29.144ZM64.5454 26.12C64.5454 26.496 64.3574 26.684 63.9814 26.684C63.6054 26.684 63.4174 26.496 63.4174 26.12C63.4174 25.744 63.6054 25.556 63.9814 25.556C64.3574 25.556 64.5454 25.744 64.5454 26.12ZM67.4974 29.144C67.4974 29.48 67.3334 29.648 67.0054 29.648C66.6774 29.648 66.5134 29.48 66.5134 29.144C66.5134 28.816 66.6774 28.652 67.0054 28.652C67.3334 28.652 67.4974 28.816 67.4974 29.144ZM64.5094 27.632C64.5094 27.984 64.3334 28.16 63.9814 28.16C63.6294 28.16 63.4534 27.984 63.4534 27.632C63.4534 27.28 63.6294 27.104 63.9814 27.104C64.3334 27.104 64.5094 27.28 64.5094 27.632ZM65.9854 29.144C65.9854 29.48 65.8214 29.648 65.4934 29.648C65.1654 29.648 65.0014 29.48 65.0014 29.144C65.0014 28.816 65.1654 28.652 65.4934 28.652C65.8214 28.652 65.9854 28.816 65.9854 29.144ZM79.3022 23.096C79.3022 23.52 79.0902 23.732 78.6662 23.732C78.2422 23.732 78.0302 23.52 78.0302 23.096C78.0302 22.672 78.2422 22.46 78.6662 22.46C79.0902 22.46 79.3022 22.672 79.3022 23.096ZM79.2662 24.608C79.2662 25.008 79.0662 25.208 78.6662 25.208C78.2662 25.208 78.0662 25.008 78.0662 24.608C78.0662 24.208 78.2662 24.008 78.6662 24.008C79.0662 24.008 79.2662 24.208 79.2662 24.608ZM76.2782 23.096C76.2782 23.52 76.0662 23.732 75.6422 23.732C75.2182 23.732 75.0062 23.52 75.0062 23.096C75.0062 22.672 75.2182 22.46 75.6422 22.46C76.0662 22.46 76.2782 22.672 76.2782 23.096ZM79.2302 26.12C79.2302 26.496 79.0422 26.684 78.6662 26.684C78.2902 26.684 78.1022 26.496 78.1022 26.12C78.1022 25.744 78.2902 25.556 78.6662 25.556C79.0422 25.556 79.2302 25.744 79.2302 26.12ZM76.2422 24.608C76.2422 25.008 76.0422 25.208 75.6422 25.208C75.2422 25.208 75.0422 25.008 75.0422 24.608C75.0422 24.208 75.2422 24.008 75.6422 24.008C76.0422 24.008 76.2422 24.208 76.2422 24.608ZM79.1942 27.632C79.1942 27.984 79.0182 28.16 78.6662 28.16C78.3142 28.16 78.1382 27.984 78.1382 27.632C78.1382 27.28 78.3142 27.104 78.6662 27.104C79.0182 27.104 79.1942 27.28 79.1942 27.632ZM73.2542 23.096C73.2542 23.52 73.0422 23.732 72.6182 23.732C72.1942 23.732 71.9822 23.52 71.9822 23.096C71.9822 22.672 72.1942 22.46 72.6182 22.46C73.0422 22.46 73.2542 22.672 73.2542 23.096ZM76.2062 26.12C76.2062 26.496 76.0182 26.684 75.6422 26.684C75.2662 26.684 75.0782 26.496 75.0782 26.12C75.0782 25.744 75.2662 25.556 75.6422 25.556C76.0182 25.556 76.2062 25.744 76.2062 26.12ZM73.2182 24.608C73.2182 25.008 73.0182 25.208 72.6182 25.208C72.2182 25.208 72.0182 25.008 72.0182 24.608C72.0182 24.208 72.2182 24.008 72.6182 24.008C73.0182 24.008 73.2182 24.208 73.2182 24.608ZM76.1702 27.632C76.1702 27.984 75.9942 28.16 75.6422 28.16C75.2902 28.16 75.1142 27.984 75.1142 27.632C75.1142 27.28 75.2902 27.104 75.6422 27.104C75.9942 27.104 76.1702 27.28 76.1702 27.632ZM77.6462 29.144C77.6462 29.48 77.4822 29.648 77.1542 29.648C76.8262 29.648 76.6622 29.48 76.6622 29.144C76.6622 28.816 76.8262 28.652 77.1542 28.652C77.4822 28.652 77.6462 28.816 77.6462 29.144ZM73.1822 26.12C73.1822 26.496 72.9942 26.684 72.6182 26.684C72.2422 26.684 72.0542 26.496 72.0542 26.12C72.0542 25.744 72.2422 25.556 72.6182 25.556C72.9942 25.556 73.1822 25.744 73.1822 26.12ZM73.1462 27.632C73.1462 27.984 72.9702 28.16 72.6182 28.16C72.2662 28.16 72.0902 27.984 72.0902 27.632C72.0902 27.28 72.2662 27.104 72.6182 27.104C72.9702 27.104 73.1462 27.28 73.1462 27.632ZM74.6222 29.144C74.6222 29.48 74.4582 29.648 74.1302 29.648C73.8022 29.648 73.6382 29.48 73.6382 29.144C73.6382 28.816 73.8022 28.652 74.1302 28.652C74.4582 28.652 74.6222 28.816 74.6222 29.144ZM84.9869 20.072C84.9869 20.544 84.7509 20.78 84.2789 20.78C83.8069 20.78 83.5709 20.544 83.5709 20.072C83.5709 19.6 83.8069 19.364 84.2789 19.364C84.7509 19.364 84.9869 19.6 84.9869 20.072ZM84.9149 23.096C84.9149 23.52 84.7029 23.732 84.2789 23.732C83.8549 23.732 83.6429 23.52 83.6429 23.096C83.6429 22.672 83.8549 22.46 84.2789 22.46C84.7029 22.46 84.9149 22.672 84.9149 23.096ZM83.4029 23.096C83.4029 23.52 83.1909 23.732 82.7669 23.732C82.3429 23.732 82.1309 23.52 82.1309 23.096C82.1309 22.672 82.3429 22.46 82.7669 22.46C83.1909 22.46 83.4029 22.672 83.4029 23.096ZM84.8789 24.608C84.8789 25.008 84.6789 25.208 84.2789 25.208C83.8789 25.208 83.6789 25.008 83.6789 24.608C83.6789 24.208 83.8789 24.008 84.2789 24.008C84.6789 24.008 84.8789 24.208 84.8789 24.608ZM84.8429 26.12C84.8429 26.496 84.6549 26.684 84.2789 26.684C83.9029 26.684 83.7149 26.496 83.7149 26.12C83.7149 25.744 83.9029 25.556 84.2789 25.556C84.6549 25.556 84.8429 25.744 84.8429 26.12ZM84.8069 27.632C84.8069 27.984 84.6309 28.16 84.2789 28.16C83.9269 28.16 83.7509 27.984 83.7509 27.632C83.7509 27.28 83.9269 27.104 84.2789 27.104C84.6309 27.104 84.8069 27.28 84.8069 27.632ZM86.2829 29.144C86.2829 29.48 86.1189 29.648 85.7909 29.648C85.4629 29.648 85.2989 29.48 85.2989 29.144C85.2989 28.816 85.4629 28.652 85.7909 28.652C86.1189 28.652 86.2829 28.816 86.2829 29.144ZM84.7709 29.144C84.7709 29.48 84.6069 29.648 84.2789 29.648C83.9509 29.648 83.7869 29.48 83.7869 29.144C83.7869 28.816 83.9509 28.652 84.2789 28.652C84.6069 28.652 84.7709 28.816 84.7709 29.144ZM83.2589 29.144C83.2589 29.48 83.0949 29.648 82.7669 29.648C82.4389 29.648 82.2749 29.48 82.2749 29.144C82.2749 28.816 82.4389 28.652 82.7669 28.652C83.0949 28.652 83.2589 28.816 83.2589 29.144ZM95.0636 23.096C95.0636 23.52 94.8516 23.732 94.4276 23.732C94.0036 23.732 93.7916 23.52 93.7916 23.096C93.7916 22.672 94.0036 22.46 94.4276 22.46C94.8516 22.46 95.0636 22.672 95.0636 23.096ZM96.5396 24.608C96.5396 25.008 96.3396 25.208 95.9396 25.208C95.5396 25.208 95.3396 25.008 95.3396 24.608C95.3396 24.208 95.5396 24.008 95.9396 24.008C96.3396 24.008 96.5396 24.208 96.5396 24.608ZM93.5516 23.096C93.5516 23.52 93.3396 23.732 92.9156 23.732C92.4916 23.732 92.2796 23.52 92.2796 23.096C92.2796 22.672 92.4916 22.46 92.9156 22.46C93.3396 22.46 93.5516 22.672 93.5516 23.096ZM96.5036 26.12C96.5036 26.496 96.3156 26.684 95.9396 26.684C95.5636 26.684 95.3756 26.496 95.3756 26.12C95.3756 25.744 95.5636 25.556 95.9396 25.556C96.3156 25.556 96.5036 25.744 96.5036 26.12ZM92.0396 23.096C92.0396 23.52 91.8276 23.732 91.4036 23.732C90.9796 23.732 90.7676 23.52 90.7676 23.096C90.7676 22.672 90.9796 22.46 91.4036 22.46C91.8276 22.46 92.0396 22.672 92.0396 23.096ZM96.4676 27.632C96.4676 27.984 96.2916 28.16 95.9396 28.16C95.5876 28.16 95.4116 27.984 95.4116 27.632C95.4116 27.28 95.5876 27.104 95.9396 27.104C96.2916 27.104 96.4676 27.28 96.4676 27.632ZM90.5276 23.096C90.5276 23.52 90.3156 23.732 89.8916 23.732C89.4676 23.732 89.2556 23.52 89.2556 23.096C89.2556 22.672 89.4676 22.46 89.8916 22.46C90.3156 22.46 90.5276 22.672 90.5276 23.096ZM96.4316 29.144C96.4316 29.48 96.2676 29.648 95.9396 29.648C95.6116 29.648 95.4476 29.48 95.4476 29.144C95.4476 28.816 95.6116 28.652 95.9396 28.652C96.2676 28.652 96.4316 28.816 96.4316 29.144ZM90.4916 24.608C90.4916 25.008 90.2916 25.208 89.8916 25.208C89.4916 25.208 89.2916 25.008 89.2916 24.608C89.2916 24.208 89.4916 24.008 89.8916 24.008C90.2916 24.008 90.4916 24.208 90.4916 24.608ZM90.4556 26.12C90.4556 26.496 90.2676 26.684 89.8916 26.684C89.5156 26.684 89.3276 26.496 89.3276 26.12C89.3276 25.744 89.5156 25.556 89.8916 25.556C90.2676 25.556 90.4556 25.744 90.4556 26.12ZM90.4196 27.632C90.4196 27.984 90.2436 28.16 89.8916 28.16C89.5396 28.16 89.3636 27.984 89.3636 27.632C89.3636 27.28 89.5396 27.104 89.8916 27.104C90.2436 27.104 90.4196 27.28 90.4196 27.632ZM90.3836 29.144C90.3836 29.48 90.2196 29.648 89.8916 29.648C89.5636 29.648 89.3996 29.48 89.3996 29.144C89.3996 28.816 89.5636 28.652 89.8916 28.652C90.2196 28.652 90.3836 28.816 90.3836 29.144ZM105.212 23.096C105.212 23.52 105 23.732 104.576 23.732C104.152 23.732 103.94 23.52 103.94 23.096C103.94 22.672 104.152 22.46 104.576 22.46C105 22.46 105.212 22.672 105.212 23.096ZM103.7 23.096C103.7 23.52 103.488 23.732 103.064 23.732C102.64 23.732 102.428 23.52 102.428 23.096C102.428 22.672 102.64 22.46 103.064 22.46C103.488 22.46 103.7 22.672 103.7 23.096ZM105.176 24.608C105.176 25.008 104.976 25.208 104.576 25.208C104.176 25.208 103.976 25.008 103.976 24.608C103.976 24.208 104.176 24.008 104.576 24.008C104.976 24.008 105.176 24.208 105.176 24.608ZM102.188 23.096C102.188 23.52 101.976 23.732 101.552 23.732C101.128 23.732 100.916 23.52 100.916 23.096C100.916 22.672 101.128 22.46 101.552 22.46C101.976 22.46 102.188 22.672 102.188 23.096ZM105.14 26.12C105.14 26.496 104.952 26.684 104.576 26.684C104.2 26.684 104.012 26.496 104.012 26.12C104.012 25.744 104.2 25.556 104.576 25.556C104.952 25.556 105.14 25.744 105.14 26.12ZM100.676 23.096C100.676 23.52 100.464 23.732 100.04 23.732C99.6163 23.732 99.4043 23.52 99.4043 23.096C99.4043 22.672 99.6163 22.46 100.04 22.46C100.464 22.46 100.676 22.672 100.676 23.096ZM105.104 27.632C105.104 27.984 104.928 28.16 104.576 28.16C104.224 28.16 104.048 27.984 104.048 27.632C104.048 27.28 104.224 27.104 104.576 27.104C104.928 27.104 105.104 27.28 105.104 27.632ZM105.068 29.144C105.068 29.48 104.904 29.648 104.576 29.648C104.248 29.648 104.084 29.48 104.084 29.144C104.084 28.816 104.248 28.652 104.576 28.652C104.904 28.652 105.068 28.816 105.068 29.144ZM99.1283 24.608C99.1283 25.008 98.9283 25.208 98.5283 25.208C98.1283 25.208 97.9283 25.008 97.9283 24.608C97.9283 24.208 98.1283 24.008 98.5283 24.008C98.9283 24.008 99.1283 24.208 99.1283 24.608ZM103.556 29.144C103.556 29.48 103.392 29.648 103.064 29.648C102.736 29.648 102.572 29.48 102.572 29.144C102.572 28.816 102.736 28.652 103.064 28.652C103.392 28.652 103.556 28.816 103.556 29.144ZM99.0923 26.12C99.0923 26.496 98.9043 26.684 98.5283 26.684C98.1523 26.684 97.9643 26.496 97.9643 26.12C97.9643 25.744 98.1523 25.556 98.5283 25.556C98.9043 25.556 99.0923 25.744 99.0923 26.12ZM102.044 29.144C102.044 29.48 101.88 29.648 101.552 29.648C101.224 29.648 101.06 29.48 101.06 29.144C101.06 28.816 101.224 28.652 101.552 28.652C101.88 28.652 102.044 28.816 102.044 29.144ZM99.0563 27.632C99.0563 27.984 98.8803 28.16 98.5283 28.16C98.1763 28.16 98.0003 27.984 98.0003 27.632C98.0003 27.28 98.1763 27.104 98.5283 27.104C98.8803 27.104 99.0563 27.28 99.0563 27.632ZM100.532 29.144C100.532 29.48 100.368 29.648 100.04 29.648C99.7123 29.648 99.5483 29.48 99.5483 29.144C99.5483 28.816 99.7123 28.652 100.04 28.652C100.368 28.652 100.532 28.816 100.532 29.144ZM105.032 30.656C105.032 30.968 104.88 31.124 104.576 31.124C104.272 31.124 104.12 30.968 104.12 30.656C104.12 30.352 104.272 30.2 104.576 30.2C104.88 30.2 105.032 30.352 105.032 30.656ZM103.484 32.168C103.484 32.456 103.344 32.6 103.064 32.6C102.784 32.6 102.644 32.456 102.644 32.168C102.644 31.888 102.784 31.748 103.064 31.748C103.344 31.748 103.484 31.888 103.484 32.168ZM101.972 32.168C101.972 32.456 101.832 32.6 101.552 32.6C101.272 32.6 101.132 32.456 101.132 32.168C101.132 31.888 101.272 31.748 101.552 31.748C101.832 31.748 101.972 31.888 101.972 32.168ZM100.46 32.168C100.46 32.456 100.32 32.6 100.04 32.6C99.7603 32.6 99.6203 32.456 99.6203 32.168C99.6203 31.888 99.7603 31.748 100.04 31.748C100.32 31.748 100.46 31.888 100.46 32.168ZM53.392 36.096C53.392 36.52 53.18 36.732 52.756 36.732C52.332 36.732 52.12 36.52 52.12 36.096C52.12 35.672 52.332 35.46 52.756 35.46C53.18 35.46 53.392 35.672 53.392 36.096ZM47.416 33.072C47.416 33.544 47.18 33.78 46.708 33.78C46.236 33.78 46 33.544 46 33.072C46 32.6 46.236 32.364 46.708 32.364C47.18 32.364 47.416 32.6 47.416 33.072ZM51.844 37.608C51.844 38.008 51.644 38.208 51.244 38.208C50.844 38.208 50.644 38.008 50.644 37.608C50.644 37.208 50.844 37.008 51.244 37.008C51.644 37.008 51.844 37.208 51.844 37.608ZM47.38 34.584C47.38 35.032 47.156 35.256 46.708 35.256C46.26 35.256 46.036 35.032 46.036 34.584C46.036 34.136 46.26 33.912 46.708 33.912C47.156 33.912 47.38 34.136 47.38 34.584ZM47.344 36.096C47.344 36.52 47.132 36.732 46.708 36.732C46.284 36.732 46.072 36.52 46.072 36.096C46.072 35.672 46.284 35.46 46.708 35.46C47.132 35.46 47.344 35.672 47.344 36.096ZM50.296 39.12C50.296 39.496 50.108 39.684 49.732 39.684C49.356 39.684 49.168 39.496 49.168 39.12C49.168 38.744 49.356 38.556 49.732 38.556C50.108 38.556 50.296 38.744 50.296 39.12ZM51.772 40.632C51.772 40.984 51.596 41.16 51.244 41.16C50.892 41.16 50.716 40.984 50.716 40.632C50.716 40.28 50.892 40.104 51.244 40.104C51.596 40.104 51.772 40.28 51.772 40.632ZM53.248 42.144C53.248 42.48 53.084 42.648 52.756 42.648C52.428 42.648 52.264 42.48 52.264 42.144C52.264 41.816 52.428 41.652 52.756 41.652C53.084 41.652 53.248 41.816 53.248 42.144ZM47.308 37.608C47.308 38.008 47.108 38.208 46.708 38.208C46.308 38.208 46.108 38.008 46.108 37.608C46.108 37.208 46.308 37.008 46.708 37.008C47.108 37.008 47.308 37.208 47.308 37.608ZM48.784 39.12C48.784 39.496 48.596 39.684 48.22 39.684C47.844 39.684 47.656 39.496 47.656 39.12C47.656 38.744 47.844 38.556 48.22 38.556C48.596 38.556 48.784 38.744 48.784 39.12ZM47.272 39.12C47.272 39.496 47.084 39.684 46.708 39.684C46.332 39.684 46.144 39.496 46.144 39.12C46.144 38.744 46.332 38.556 46.708 38.556C47.084 38.556 47.272 38.744 47.272 39.12ZM47.236 40.632C47.236 40.984 47.06 41.16 46.708 41.16C46.356 41.16 46.18 40.984 46.18 40.632C46.18 40.28 46.356 40.104 46.708 40.104C47.06 40.104 47.236 40.28 47.236 40.632ZM47.2 42.144C47.2 42.48 47.036 42.648 46.708 42.648C46.38 42.648 46.216 42.48 46.216 42.144C46.216 41.816 46.38 41.652 46.708 41.652C47.036 41.652 47.2 41.816 47.2 42.144ZM59.0767 33.072C59.0767 33.544 58.8407 33.78 58.3687 33.78C57.8967 33.78 57.6607 33.544 57.6607 33.072C57.6607 32.6 57.8967 32.364 58.3687 32.364C58.8407 32.364 59.0767 32.6 59.0767 33.072ZM59.0047 36.096C59.0047 36.52 58.7927 36.732 58.3687 36.732C57.9447 36.732 57.7327 36.52 57.7327 36.096C57.7327 35.672 57.9447 35.46 58.3687 35.46C58.7927 35.46 59.0047 35.672 59.0047 36.096ZM57.4927 36.096C57.4927 36.52 57.2807 36.732 56.8567 36.732C56.4327 36.732 56.2207 36.52 56.2207 36.096C56.2207 35.672 56.4327 35.46 56.8567 35.46C57.2807 35.46 57.4927 35.672 57.4927 36.096ZM58.9687 37.608C58.9687 38.008 58.7687 38.208 58.3687 38.208C57.9687 38.208 57.7687 38.008 57.7687 37.608C57.7687 37.208 57.9687 37.008 58.3687 37.008C58.7687 37.008 58.9687 37.208 58.9687 37.608ZM58.9327 39.12C58.9327 39.496 58.7447 39.684 58.3687 39.684C57.9927 39.684 57.8047 39.496 57.8047 39.12C57.8047 38.744 57.9927 38.556 58.3687 38.556C58.7447 38.556 58.9327 38.744 58.9327 39.12ZM58.8967 40.632C58.8967 40.984 58.7207 41.16 58.3687 41.16C58.0167 41.16 57.8407 40.984 57.8407 40.632C57.8407 40.28 58.0167 40.104 58.3687 40.104C58.7207 40.104 58.8967 40.28 58.8967 40.632ZM60.3727 42.144C60.3727 42.48 60.2087 42.648 59.8807 42.648C59.5527 42.648 59.3887 42.48 59.3887 42.144C59.3887 41.816 59.5527 41.652 59.8807 41.652C60.2087 41.652 60.3727 41.816 60.3727 42.144ZM58.8607 42.144C58.8607 42.48 58.6967 42.648 58.3687 42.648C58.0407 42.648 57.8767 42.48 57.8767 42.144C57.8767 41.816 58.0407 41.652 58.3687 41.652C58.6967 41.652 58.8607 41.816 58.8607 42.144ZM57.3487 42.144C57.3487 42.48 57.1847 42.648 56.8567 42.648C56.5287 42.648 56.3647 42.48 56.3647 42.144C56.3647 41.816 56.5287 41.652 56.8567 41.652C57.1847 41.652 57.3487 41.816 57.3487 42.144ZM70.6654 36.096C70.6654 36.52 70.4534 36.732 70.0294 36.732C69.6054 36.732 69.3934 36.52 69.3934 36.096C69.3934 35.672 69.6054 35.46 70.0294 35.46C70.4534 35.46 70.6654 35.672 70.6654 36.096ZM66.2014 33.072C66.2014 33.544 65.9654 33.78 65.4934 33.78C65.0214 33.78 64.7854 33.544 64.7854 33.072C64.7854 32.6 65.0214 32.364 65.4934 32.364C65.9654 32.364 66.2014 32.6 66.2014 33.072ZM69.1534 36.096C69.1534 36.52 68.9414 36.732 68.5174 36.732C68.0934 36.732 67.8814 36.52 67.8814 36.096C67.8814 35.672 68.0934 35.46 68.5174 35.46C68.9414 35.46 69.1534 35.672 69.1534 36.096ZM66.1654 34.584C66.1654 35.032 65.9414 35.256 65.4934 35.256C65.0454 35.256 64.8214 35.032 64.8214 34.584C64.8214 34.136 65.0454 33.912 65.4934 33.912C65.9414 33.912 66.1654 34.136 66.1654 34.584ZM67.6414 36.096C67.6414 36.52 67.4294 36.732 67.0054 36.732C66.5814 36.732 66.3694 36.52 66.3694 36.096C66.3694 35.672 66.5814 35.46 67.0054 35.46C67.4294 35.46 67.6414 35.672 67.6414 36.096ZM66.1294 36.096C66.1294 36.52 65.9174 36.732 65.4934 36.732C65.0694 36.732 64.8574 36.52 64.8574 36.096C64.8574 35.672 65.0694 35.46 65.4934 35.46C65.9174 35.46 66.1294 35.672 66.1294 36.096ZM70.5574 40.632C70.5574 40.984 70.3814 41.16 70.0294 41.16C69.6774 41.16 69.5014 40.984 69.5014 40.632C69.5014 40.28 69.6774 40.104 70.0294 40.104C70.3814 40.104 70.5574 40.28 70.5574 40.632ZM64.6174 36.096C64.6174 36.52 64.4054 36.732 63.9814 36.732C63.5574 36.732 63.3454 36.52 63.3454 36.096C63.3454 35.672 63.5574 35.46 63.9814 35.46C64.4054 35.46 64.6174 35.672 64.6174 36.096ZM66.0934 37.608C66.0934 38.008 65.8934 38.208 65.4934 38.208C65.0934 38.208 64.8934 38.008 64.8934 37.608C64.8934 37.208 65.0934 37.008 65.4934 37.008C65.8934 37.008 66.0934 37.208 66.0934 37.608ZM66.0574 39.12C66.0574 39.496 65.8694 39.684 65.4934 39.684C65.1174 39.684 64.9294 39.496 64.9294 39.12C64.9294 38.744 65.1174 38.556 65.4934 38.556C65.8694 38.556 66.0574 38.744 66.0574 39.12ZM69.0094 42.144C69.0094 42.48 68.8454 42.648 68.5174 42.648C68.1894 42.648 68.0254 42.48 68.0254 42.144C68.0254 41.816 68.1894 41.652 68.5174 41.652C68.8454 41.652 69.0094 41.816 69.0094 42.144ZM67.4974 42.144C67.4974 42.48 67.3334 42.648 67.0054 42.648C66.6774 42.648 66.5134 42.48 66.5134 42.144C66.5134 41.816 66.6774 41.652 67.0054 41.652C67.3334 41.652 67.4974 41.816 67.4974 42.144ZM66.0214 40.632C66.0214 40.984 65.8454 41.16 65.4934 41.16C65.1414 41.16 64.9654 40.984 64.9654 40.632C64.9654 40.28 65.1414 40.104 65.4934 40.104C65.8454 40.104 66.0214 40.28 66.0214 40.632ZM79.3022 36.096C79.3022 36.52 79.0902 36.732 78.6662 36.732C78.2422 36.732 78.0302 36.52 78.0302 36.096C78.0302 35.672 78.2422 35.46 78.6662 35.46C79.0902 35.46 79.3022 35.672 79.3022 36.096ZM74.8382 33.072C74.8382 33.544 74.6022 33.78 74.1302 33.78C73.6582 33.78 73.4222 33.544 73.4222 33.072C73.4222 32.6 73.6582 32.364 74.1302 32.364C74.6022 32.364 74.8382 32.6 74.8382 33.072ZM77.7902 36.096C77.7902 36.52 77.5782 36.732 77.1542 36.732C76.7302 36.732 76.5182 36.52 76.5182 36.096C76.5182 35.672 76.7302 35.46 77.1542 35.46C77.5782 35.46 77.7902 35.672 77.7902 36.096ZM74.8022 34.584C74.8022 35.032 74.5782 35.256 74.1302 35.256C73.6822 35.256 73.4582 35.032 73.4582 34.584C73.4582 34.136 73.6822 33.912 74.1302 33.912C74.5782 33.912 74.8022 34.136 74.8022 34.584ZM76.2782 36.096C76.2782 36.52 76.0662 36.732 75.6422 36.732C75.2182 36.732 75.0062 36.52 75.0062 36.096C75.0062 35.672 75.2182 35.46 75.6422 35.46C76.0662 35.46 76.2782 35.672 76.2782 36.096ZM74.7662 36.096C74.7662 36.52 74.5542 36.732 74.1302 36.732C73.7062 36.732 73.4942 36.52 73.4942 36.096C73.4942 35.672 73.7062 35.46 74.1302 35.46C74.5542 35.46 74.7662 35.672 74.7662 36.096ZM79.1942 40.632C79.1942 40.984 79.0182 41.16 78.6662 41.16C78.3142 41.16 78.1382 40.984 78.1382 40.632C78.1382 40.28 78.3142 40.104 78.6662 40.104C79.0182 40.104 79.1942 40.28 79.1942 40.632ZM73.2542 36.096C73.2542 36.52 73.0422 36.732 72.6182 36.732C72.1942 36.732 71.9822 36.52 71.9822 36.096C71.9822 35.672 72.1942 35.46 72.6182 35.46C73.0422 35.46 73.2542 35.672 73.2542 36.096ZM74.7302 37.608C74.7302 38.008 74.5302 38.208 74.1302 38.208C73.7302 38.208 73.5302 38.008 73.5302 37.608C73.5302 37.208 73.7302 37.008 74.1302 37.008C74.5302 37.008 74.7302 37.208 74.7302 37.608ZM74.6942 39.12C74.6942 39.496 74.5062 39.684 74.1302 39.684C73.7542 39.684 73.5662 39.496 73.5662 39.12C73.5662 38.744 73.7542 38.556 74.1302 38.556C74.5062 38.556 74.6942 38.744 74.6942 39.12ZM77.6462 42.144C77.6462 42.48 77.4822 42.648 77.1542 42.648C76.8262 42.648 76.6622 42.48 76.6622 42.144C76.6622 41.816 76.8262 41.652 77.1542 41.652C77.4822 41.652 77.6462 41.816 77.6462 42.144ZM76.1342 42.144C76.1342 42.48 75.9702 42.648 75.6422 42.648C75.3142 42.648 75.1502 42.48 75.1502 42.144C75.1502 41.816 75.3142 41.652 75.6422 41.652C75.9702 41.652 76.1342 41.816 76.1342 42.144ZM74.6582 40.632C74.6582 40.984 74.4822 41.16 74.1302 41.16C73.7782 41.16 73.6022 40.984 73.6022 40.632C73.6022 40.28 73.7782 40.104 74.1302 40.104C74.4822 40.104 74.6582 40.28 74.6582 40.632ZM87.9389 36.096C87.9389 36.52 87.7269 36.732 87.3029 36.732C86.8789 36.732 86.6669 36.52 86.6669 36.096C86.6669 35.672 86.8789 35.46 87.3029 35.46C87.7269 35.46 87.9389 35.672 87.9389 36.096ZM87.9029 37.608C87.9029 38.008 87.7029 38.208 87.3029 38.208C86.9029 38.208 86.7029 38.008 86.7029 37.608C86.7029 37.208 86.9029 37.008 87.3029 37.008C87.7029 37.008 87.9029 37.208 87.9029 37.608ZM87.8669 39.12C87.8669 39.496 87.6789 39.684 87.3029 39.684C86.9269 39.684 86.7389 39.496 86.7389 39.12C86.7389 38.744 86.9269 38.556 87.3029 38.556C87.6789 38.556 87.8669 38.744 87.8669 39.12ZM87.8309 40.632C87.8309 40.984 87.6549 41.16 87.3029 41.16C86.9509 41.16 86.7749 40.984 86.7749 40.632C86.7749 40.28 86.9509 40.104 87.3029 40.104C87.6549 40.104 87.8309 40.28 87.8309 40.632ZM81.8909 36.096C81.8909 36.52 81.6789 36.732 81.2549 36.732C80.8309 36.732 80.6189 36.52 80.6189 36.096C80.6189 35.672 80.8309 35.46 81.2549 35.46C81.6789 35.46 81.8909 35.672 81.8909 36.096ZM87.7949 42.144C87.7949 42.48 87.6309 42.648 87.3029 42.648C86.9749 42.648 86.8109 42.48 86.8109 42.144C86.8109 41.816 86.9749 41.652 87.3029 41.652C87.6309 41.652 87.7949 41.816 87.7949 42.144ZM81.8549 37.608C81.8549 38.008 81.6549 38.208 81.2549 38.208C80.8549 38.208 80.6549 38.008 80.6549 37.608C80.6549 37.208 80.8549 37.008 81.2549 37.008C81.6549 37.008 81.8549 37.208 81.8549 37.608ZM86.2829 42.144C86.2829 42.48 86.1189 42.648 85.7909 42.648C85.4629 42.648 85.2989 42.48 85.2989 42.144C85.2989 41.816 85.4629 41.652 85.7909 41.652C86.1189 41.652 86.2829 41.816 86.2829 42.144ZM81.8189 39.12C81.8189 39.496 81.6309 39.684 81.2549 39.684C80.8789 39.684 80.6909 39.496 80.6909 39.12C80.6909 38.744 80.8789 38.556 81.2549 38.556C81.6309 38.556 81.8189 38.744 81.8189 39.12ZM84.7709 42.144C84.7709 42.48 84.6069 42.648 84.2789 42.648C83.9509 42.648 83.7869 42.48 83.7869 42.144C83.7869 41.816 83.9509 41.652 84.2789 41.652C84.6069 41.652 84.7709 41.816 84.7709 42.144ZM81.7829 40.632C81.7829 40.984 81.6069 41.16 81.2549 41.16C80.9029 41.16 80.7269 40.984 80.7269 40.632C80.7269 40.28 80.9029 40.104 81.2549 40.104C81.6069 40.104 81.7829 40.28 81.7829 40.632ZM83.2589 42.144C83.2589 42.48 83.0949 42.648 82.7669 42.648C82.4389 42.648 82.2749 42.48 82.2749 42.144C82.2749 41.816 82.4389 41.652 82.7669 41.652C83.0949 41.652 83.2589 41.816 83.2589 42.144ZM87.7589 43.656C87.7589 43.968 87.6069 44.124 87.3029 44.124C86.9989 44.124 86.8469 43.968 86.8469 43.656C86.8469 43.352 86.9989 43.2 87.3029 43.2C87.6069 43.2 87.7589 43.352 87.7589 43.656ZM86.2109 45.168C86.2109 45.456 86.0709 45.6 85.7909 45.6C85.5109 45.6 85.3709 45.456 85.3709 45.168C85.3709 44.888 85.5109 44.748 85.7909 44.748C86.0709 44.748 86.2109 44.888 86.2109 45.168ZM84.6989 45.168C84.6989 45.456 84.5589 45.6 84.2789 45.6C83.9989 45.6 83.8589 45.456 83.8589 45.168C83.8589 44.888 83.9989 44.748 84.2789 44.748C84.5589 44.748 84.6989 44.888 84.6989 45.168ZM83.1869 45.168C83.1869 45.456 83.0469 45.6 82.7669 45.6C82.4869 45.6 82.3469 45.456 82.3469 45.168C82.3469 44.888 82.4869 44.748 82.7669 44.748C83.0469 44.748 83.1869 44.888 83.1869 45.168Z" fill="black"/>
<path d="M49.492 12.12C48.916 12.12 48.4 11.98 47.944 11.7C47.496 11.412 47.14 11.024 46.876 10.536C46.612 10.04 46.48 9.476 46.48 8.844C46.48 8.212 46.608 7.652 46.864 7.164C47.128 6.668 47.484 6.28 47.932 6C48.38 5.712 48.888 5.568 49.456 5.568C49.768 5.568 50.068 5.62 50.356 5.724C50.652 5.82 50.916 5.956 51.148 6.132C51.38 6.3 51.56 6.488 51.688 6.696C51.824 6.896 51.892 7.1 51.892 7.308L51.532 7.332V3.12H52.768V12H51.532V10.5H51.772C51.772 10.692 51.708 10.884 51.58 11.076C51.452 11.26 51.28 11.432 51.064 11.592C50.856 11.752 50.612 11.88 50.332 11.976C50.06 12.072 49.78 12.12 49.492 12.12ZM49.66 11.052C50.036 11.052 50.368 10.956 50.656 10.764C50.944 10.572 51.168 10.312 51.328 9.984C51.496 9.648 51.58 9.268 51.58 8.844C51.58 8.42 51.496 8.044 51.328 7.716C51.168 7.38 50.944 7.116 50.656 6.924C50.368 6.732 50.036 6.636 49.66 6.636C49.284 6.636 48.952 6.732 48.664 6.924C48.376 7.116 48.148 7.38 47.98 7.716C47.82 8.044 47.74 8.42 47.74 8.844C47.74 9.268 47.82 9.648 47.98 9.984C48.148 10.312 48.376 10.572 48.664 10.764C48.952 10.956 49.284 11.052 49.66 11.052ZM57.4095 12.12C56.7615 12.12 56.1855 11.984 55.6815 11.712C55.1855 11.432 54.7935 11.052 54.5055 10.572C54.2255 10.092 54.0855 9.54 54.0855 8.916C54.0855 8.42 54.1655 7.968 54.3255 7.56C54.4855 7.152 54.7055 6.8 54.9855 6.504C55.2735 6.2 55.6135 5.968 56.0055 5.808C56.4055 5.64 56.8375 5.556 57.3015 5.556C57.7095 5.556 58.0895 5.636 58.4415 5.796C58.7935 5.948 59.0975 6.16 59.3535 6.432C59.6175 6.704 59.8175 7.028 59.9535 7.404C60.0975 7.772 60.1655 8.176 60.1575 8.616L60.1455 9.144H54.9975L54.7215 8.16H59.0775L58.8975 8.364V8.076C58.8735 7.812 58.7855 7.576 58.6335 7.368C58.4815 7.16 58.2895 6.996 58.0575 6.876C57.8255 6.756 57.5735 6.696 57.3015 6.696C56.8695 6.696 56.5055 6.78 56.2095 6.948C55.9135 7.108 55.6895 7.348 55.5375 7.668C55.3855 7.98 55.3095 8.368 55.3095 8.832C55.3095 9.272 55.4015 9.656 55.5855 9.984C55.7695 10.304 56.0295 10.552 56.3655 10.728C56.7015 10.904 57.0895 10.992 57.5295 10.992C57.8415 10.992 58.1295 10.94 58.3935 10.836C58.6655 10.732 58.9575 10.544 59.2695 10.272L59.8935 11.148C59.7015 11.34 59.4655 11.508 59.1855 11.652C58.9135 11.796 58.6215 11.912 58.3095 12C58.0055 12.08 57.7055 12.12 57.4095 12.12ZM63.6007 12.12C63.0727 12.12 62.5967 12.028 62.1727 11.844C61.7487 11.66 61.3967 11.388 61.1167 11.028L61.9567 10.308C62.1967 10.588 62.4567 10.792 62.7367 10.92C63.0247 11.04 63.3487 11.1 63.7087 11.1C63.8527 11.1 63.9847 11.084 64.1047 11.052C64.2327 11.012 64.3407 10.956 64.4287 10.884C64.5247 10.812 64.5967 10.728 64.6447 10.632C64.6927 10.528 64.7167 10.416 64.7167 10.296C64.7167 10.088 64.6407 9.92 64.4887 9.792C64.4087 9.736 64.2807 9.676 64.1047 9.612C63.9367 9.54 63.7167 9.468 63.4447 9.396C62.9807 9.276 62.6007 9.14 62.3047 8.988C62.0087 8.836 61.7807 8.664 61.6207 8.472C61.5007 8.32 61.4127 8.156 61.3567 7.98C61.3007 7.796 61.2727 7.596 61.2727 7.38C61.2727 7.116 61.3287 6.876 61.4407 6.66C61.5607 6.436 61.7207 6.244 61.9207 6.084C62.1287 5.916 62.3687 5.788 62.6407 5.7C62.9207 5.612 63.2167 5.568 63.5287 5.568C63.8247 5.568 64.1167 5.608 64.4047 5.688C64.7007 5.768 64.9727 5.884 65.2207 6.036C65.4687 6.188 65.6767 6.368 65.8447 6.576L65.1367 7.356C64.9847 7.204 64.8167 7.072 64.6327 6.96C64.4567 6.84 64.2767 6.748 64.0927 6.684C63.9087 6.62 63.7407 6.588 63.5887 6.588C63.4207 6.588 63.2687 6.604 63.1327 6.636C62.9967 6.668 62.8807 6.716 62.7847 6.78C62.6967 6.844 62.6287 6.924 62.5807 7.02C62.5327 7.116 62.5087 7.224 62.5087 7.344C62.5167 7.448 62.5407 7.548 62.5807 7.644C62.6287 7.732 62.6927 7.808 62.7727 7.872C62.8607 7.936 62.9927 8.004 63.1687 8.076C63.3447 8.148 63.5687 8.216 63.8407 8.28C64.2407 8.384 64.5687 8.5 64.8247 8.628C65.0887 8.748 65.2967 8.888 65.4487 9.048C65.6087 9.2 65.7207 9.376 65.7847 9.576C65.8487 9.776 65.8807 10 65.8807 10.248C65.8807 10.608 65.7767 10.932 65.5687 11.22C65.3687 11.5 65.0967 11.72 64.7527 11.88C64.4087 12.04 64.0247 12.12 63.6007 12.12ZM67.4469 12V5.7H68.6829V12H67.4469ZM68.0469 4.308C67.7829 4.308 67.5789 4.24 67.4349 4.104C67.2909 3.968 67.2189 3.776 67.2189 3.528C67.2189 3.296 67.2909 3.108 67.4349 2.964C67.5869 2.82 67.7909 2.748 68.0469 2.748C68.3109 2.748 68.5149 2.816 68.6589 2.952C68.8029 3.088 68.8749 3.28 68.8749 3.528C68.8749 3.76 68.7989 3.948 68.6469 4.092C68.5029 4.236 68.3029 4.308 68.0469 4.308ZM73.4028 14.76C72.9548 14.76 72.5068 14.688 72.0588 14.544C71.6188 14.408 71.2628 14.228 70.9908 14.004L71.4468 13.044C71.6068 13.164 71.7948 13.268 72.0108 13.356C72.2268 13.452 72.4548 13.524 72.6948 13.572C72.9348 13.628 73.1708 13.656 73.4028 13.656C73.8428 13.656 74.2108 13.584 74.5068 13.44C74.8028 13.296 75.0268 13.084 75.1788 12.804C75.3308 12.524 75.4068 12.176 75.4068 11.76V10.548L75.5388 10.632C75.4988 10.88 75.3668 11.12 75.1428 11.352C74.9268 11.576 74.6548 11.76 74.3268 11.904C73.9988 12.048 73.6628 12.12 73.3188 12.12C72.7188 12.12 72.1828 11.98 71.7108 11.7C71.2468 11.412 70.8788 11.024 70.6068 10.536C70.3348 10.04 70.1988 9.476 70.1988 8.844C70.1988 8.212 70.3308 7.652 70.5948 7.164C70.8668 6.668 71.2348 6.28 71.6988 6C72.1708 5.712 72.6988 5.568 73.2828 5.568C73.5228 5.568 73.7548 5.6 73.9788 5.664C74.2028 5.72 74.4108 5.804 74.6028 5.916C74.7948 6.02 74.9668 6.136 75.1188 6.264C75.2708 6.392 75.3948 6.528 75.4908 6.672C75.5868 6.816 75.6468 6.952 75.6708 7.08L75.4068 7.176V5.7H76.6428V11.616C76.6428 12.12 76.5668 12.564 76.4148 12.948C76.2708 13.34 76.0588 13.668 75.7787 13.932C75.4988 14.204 75.1588 14.408 74.7588 14.544C74.3588 14.688 73.9068 14.76 73.4028 14.76ZM73.4508 10.98C73.8428 10.98 74.1908 10.888 74.4948 10.704C74.7988 10.52 75.0348 10.268 75.2028 9.948C75.3708 9.628 75.4548 9.26 75.4548 8.844C75.4548 8.428 75.3668 8.06 75.1908 7.74C75.0228 7.412 74.7868 7.156 74.4828 6.972C74.1868 6.788 73.8428 6.696 73.4508 6.696C73.0668 6.696 72.7228 6.792 72.4188 6.984C72.1228 7.168 71.8868 7.424 71.7108 7.752C71.5428 8.072 71.4588 8.436 71.4588 8.844C71.4588 9.252 71.5428 9.62 71.7108 9.948C71.8868 10.268 72.1228 10.52 72.4188 10.704C72.7228 10.888 73.0668 10.98 73.4508 10.98ZM78.3757 12V5.7H79.6117V6.996L79.3957 7.14C79.4757 6.86 79.6317 6.604 79.8637 6.372C80.0957 6.132 80.3717 5.94 80.6917 5.796C81.0117 5.644 81.3397 5.568 81.6757 5.568C82.1557 5.568 82.5557 5.664 82.8757 5.856C83.1957 6.04 83.4357 6.324 83.5957 6.708C83.7557 7.092 83.8357 7.576 83.8357 8.16V12H82.5997V8.244C82.5997 7.884 82.5517 7.588 82.4557 7.356C82.3597 7.116 82.2117 6.944 82.0117 6.84C81.8117 6.728 81.5637 6.68 81.2677 6.696C81.0277 6.696 80.8077 6.736 80.6077 6.816C80.4077 6.888 80.2317 6.992 80.0797 7.128C79.9357 7.264 79.8197 7.424 79.7317 7.608C79.6517 7.784 79.6117 7.976 79.6117 8.184V12H78.9997C78.8957 12 78.7917 12 78.6877 12C78.5837 12 78.4797 12 78.3757 12ZM88.4524 12.12C87.8044 12.12 87.2284 11.984 86.7244 11.712C86.2284 11.432 85.8364 11.052 85.5484 10.572C85.2684 10.092 85.1284 9.54 85.1284 8.916C85.1284 8.42 85.2084 7.968 85.3684 7.56C85.5284 7.152 85.7484 6.8 86.0284 6.504C86.3164 6.2 86.6564 5.968 87.0484 5.808C87.4484 5.64 87.8804 5.556 88.3444 5.556C88.7524 5.556 89.1324 5.636 89.4844 5.796C89.8364 5.948 90.1404 6.16 90.3964 6.432C90.6604 6.704 90.8604 7.028 90.9964 7.404C91.1404 7.772 91.2084 8.176 91.2004 8.616L91.1884 9.144H86.0404L85.7644 8.16H90.1204L89.9404 8.364V8.076C89.9164 7.812 89.8284 7.576 89.6764 7.368C89.5244 7.16 89.3324 6.996 89.1004 6.876C88.8684 6.756 88.6164 6.696 88.3444 6.696C87.9124 6.696 87.5484 6.78 87.2524 6.948C86.9564 7.108 86.7324 7.348 86.5804 7.668C86.4284 7.98 86.3524 8.368 86.3524 8.832C86.3524 9.272 86.4444 9.656 86.6284 9.984C86.8124 10.304 87.0724 10.552 87.4084 10.728C87.7444 10.904 88.1324 10.992 88.5724 10.992C88.8844 10.992 89.1724 10.94 89.4364 10.836C89.7084 10.732 90.0004 10.544 90.3124 10.272L90.9364 11.148C90.7444 11.34 90.5084 11.508 90.2284 11.652C89.9564 11.796 89.6644 11.912 89.3524 12C89.0484 12.08 88.7484 12.12 88.4524 12.12ZM95.1717 12.12C94.5957 12.12 94.0797 11.98 93.6237 11.7C93.1757 11.412 92.8197 11.024 92.5557 10.536C92.2917 10.04 92.1597 9.476 92.1597 8.844C92.1597 8.212 92.2877 7.652 92.5437 7.164C92.8077 6.668 93.1637 6.28 93.6117 6C94.0597 5.712 94.5677 5.568 95.1357 5.568C95.4477 5.568 95.7477 5.62 96.0357 5.724C96.3317 5.82 96.5957 5.956 96.8277 6.132C97.0597 6.3 97.2397 6.488 97.3677 6.696C97.5037 6.896 97.5717 7.1 97.5717 7.308L97.2117 7.332V3.12H98.4477V12H97.2117V10.5H97.4517C97.4517 10.692 97.3877 10.884 97.2597 11.076C97.1317 11.26 96.9597 11.432 96.7437 11.592C96.5357 11.752 96.2917 11.88 96.0117 11.976C95.7397 12.072 95.4597 12.12 95.1717 12.12ZM95.3397 11.052C95.7157 11.052 96.0477 10.956 96.3357 10.764C96.6237 10.572 96.8477 10.312 97.0077 9.984C97.1757 9.648 97.2597 9.268 97.2597 8.844C97.2597 8.42 97.1757 8.044 97.0077 7.716C96.8477 7.38 96.6237 7.116 96.3357 6.924C96.0477 6.732 95.7157 6.636 95.3397 6.636C94.9637 6.636 94.6317 6.732 94.3437 6.924C94.0557 7.116 93.8277 7.38 93.6597 7.716C93.4997 8.044 93.4197 8.42 93.4197 8.844C93.4197 9.268 93.4997 9.648 93.6597 9.984C93.8277 10.312 94.0557 10.572 94.3437 10.764C94.6317 10.956 94.9637 11.052 95.3397 11.052ZM106.824 12.12C106.552 12.12 106.28 12.076 106.008 11.988C105.744 11.9 105.5 11.784 105.276 11.64C105.06 11.488 104.876 11.324 104.724 11.148C104.58 10.964 104.484 10.78 104.436 10.596L104.748 10.428V11.964H103.512V3.12H104.748V7.14L104.556 7.032C104.596 6.848 104.684 6.672 104.82 6.504C104.956 6.328 105.128 6.172 105.336 6.036C105.552 5.892 105.784 5.78 106.032 5.7C106.28 5.612 106.532 5.568 106.788 5.568C107.356 5.568 107.86 5.708 108.3 5.988C108.74 6.268 109.088 6.656 109.344 7.152C109.6 7.64 109.728 8.2 109.728 8.832C109.728 9.464 109.6 10.028 109.344 10.524C109.096 11.02 108.752 11.412 108.312 11.7C107.872 11.98 107.376 12.12 106.824 12.12ZM106.62 10.992C106.988 10.992 107.316 10.9 107.604 10.716C107.892 10.524 108.12 10.268 108.288 9.948C108.456 9.62 108.54 9.248 108.54 8.832C108.54 8.424 108.456 8.06 108.288 7.74C108.128 7.412 107.904 7.156 107.616 6.972C107.328 6.788 106.996 6.696 106.62 6.696C106.244 6.696 105.912 6.788 105.624 6.972C105.336 7.156 105.108 7.412 104.94 7.74C104.772 8.06 104.688 8.424 104.688 8.832C104.688 9.248 104.772 9.62 104.94 9.948C105.108 10.268 105.336 10.524 105.624 10.716C105.912 10.9 106.244 10.992 106.62 10.992ZM111.893 14.76L113.165 11.82L113.177 12.804L110.033 5.7H111.473L113.441 10.332C113.481 10.412 113.529 10.536 113.585 10.704C113.641 10.864 113.689 11.024 113.729 11.184L113.417 11.256C113.481 11.088 113.541 10.92 113.597 10.752C113.661 10.584 113.721 10.416 113.777 10.248L115.421 5.7H116.885L114.293 12L113.225 14.76H111.893Z" fill="black"/>
</g>
</svg>
