<?xml version="1.0" encoding="UTF-8" standalone="no"?><svg width="60" height="60" viewBox="0 0 60 60" fill="none" xmlns="http://www.w3.org/2000/svg">
<g opacity="0.5">
<path d="M30 15L24.345 18.54H19.5V21.54L16.455 23.475C15.585 24 15 24.945 15 26.04V41.04C15 41.8357 15.3161 42.5987 15.8787 43.1613C16.4413 43.7239 17.2044 44.04 18 44.04H42C43.665 44.04 45 42.705 45 41.04V26.04C45 24.945 44.415 24 43.545 23.475L40.5 21.54V18.54H35.655L30 15ZM22.5 21.54H37.5V28.86L30 33.54L22.5 28.86V21.54ZM24 23.04V25.29H36V23.04H24ZM19.5 25.11V26.985L18 26.04L19.5 25.11ZM40.5 25.11L42 26.04L40.5 26.985V25.11ZM24 26.79V29.04H36V26.79H24Z" fill="black"/>
</g>
</svg>
