<svg width="171" height="15" viewBox="0 0 171 15" fill="none" xmlns="http://www.w3.org/2000/svg">
<path d="M0.00800006 14.08V3.65H1.464V5.33L1.24 5.204C1.296 4.924 1.45467 4.658 1.716 4.406C1.97733 4.14467 2.29467 3.93467 2.668 3.776C3.05067 3.608 3.44267 3.524 3.844 3.524C4.50667 3.524 5.09467 3.68733 5.608 4.014C6.12133 4.34067 6.52733 4.78867 6.826 5.358C7.12467 5.92733 7.274 6.58067 7.274 7.318C7.274 8.046 7.12467 8.69933 6.826 9.278C6.53667 9.84733 6.13533 10.3 5.622 10.636C5.10867 10.9627 4.53 11.126 3.886 11.126C3.45667 11.126 3.04133 11.042 2.64 10.874C2.23867 10.6967 1.898 10.4727 1.618 10.202C1.338 9.93133 1.16533 9.65133 1.1 9.362L1.464 9.166V14.08H0.00800006ZM3.648 9.796C4.07733 9.796 4.46 9.68867 4.796 9.474C5.132 9.25933 5.398 8.96533 5.594 8.592C5.79 8.21867 5.888 7.794 5.888 7.318C5.888 6.842 5.79 6.422 5.594 6.058C5.40733 5.68467 5.146 5.39067 4.81 5.176C4.474 4.96133 4.08667 4.854 3.648 4.854C3.20933 4.854 2.822 4.96133 2.486 5.176C2.15 5.38133 1.884 5.67067 1.688 6.044C1.492 6.41733 1.394 6.842 1.394 7.318C1.394 7.794 1.492 8.21867 1.688 8.592C1.884 8.96533 2.15 9.25933 2.486 9.474C2.822 9.68867 3.20933 9.796 3.648 9.796ZM8.84003 11V3.65H10.296V5.96L10.156 5.4C10.2587 5.04533 10.4314 4.72333 10.674 4.434C10.926 4.14467 11.2107 3.916 11.528 3.748C11.8547 3.58 12.1907 3.496 12.536 3.496C12.6947 3.496 12.844 3.51 12.984 3.538C13.1334 3.566 13.25 3.59867 13.334 3.636L12.956 5.204C12.844 5.15733 12.718 5.12 12.578 5.092C12.4474 5.05467 12.3167 5.036 12.186 5.036C11.934 5.036 11.6914 5.08733 11.458 5.19C11.234 5.28333 11.0334 5.41867 10.856 5.596C10.688 5.764 10.5527 5.96467 10.45 6.198C10.3474 6.422 10.296 6.66933 10.296 6.94V11H8.84003ZM14.7245 11V3.65H16.1665V11H14.7245ZM15.4245 2.026C15.1165 2.026 14.8785 1.94667 14.7105 1.788C14.5425 1.62933 14.4585 1.40533 14.4585 1.116C14.4585 0.845333 14.5425 0.626 14.7105 0.458C14.8878 0.29 15.1258 0.206 15.4245 0.206C15.7325 0.206 15.9705 0.285333 16.1385 0.444C16.3065 0.602666 16.3905 0.826666 16.3905 1.116C16.3905 1.38667 16.3018 1.606 16.1245 1.774C15.9565 1.942 15.7232 2.026 15.4245 2.026ZM20.791 11L17.683 3.65H19.237L21.477 9.152L21.211 9.278L23.605 3.65H25.089L21.827 11H20.791ZM29.0313 11.14C28.4246 11.14 27.8693 10.972 27.3653 10.636C26.8706 10.3 26.474 9.84267 26.1753 9.264C25.8766 8.68533 25.7273 8.032 25.7273 7.304C25.7273 6.56667 25.8766 5.91333 26.1753 5.344C26.4833 4.76533 26.894 4.31267 27.4073 3.986C27.93 3.65933 28.5133 3.496 29.1573 3.496C29.54 3.496 29.89 3.552 30.2073 3.664C30.5246 3.776 30.8 3.93467 31.0333 4.14C31.276 4.336 31.472 4.56467 31.6213 4.826C31.78 5.08733 31.878 5.36733 31.9153 5.666L31.5933 5.554V3.65H33.0493V11H31.5933V9.25L31.9293 9.152C31.8733 9.404 31.7566 9.65133 31.5793 9.894C31.4113 10.1273 31.192 10.3373 30.9213 10.524C30.66 10.7107 30.366 10.86 30.0393 10.972C29.722 11.084 29.386 11.14 29.0313 11.14ZM29.4093 9.81C29.848 9.81 30.2353 9.70267 30.5713 9.488C30.9073 9.27333 31.1686 8.97933 31.3553 8.606C31.5513 8.22333 31.6493 7.78933 31.6493 7.304C31.6493 6.828 31.5513 6.40333 31.3553 6.03C31.1686 5.65667 30.9073 5.36267 30.5713 5.148C30.2353 4.93333 29.848 4.826 29.4093 4.826C28.98 4.826 28.5973 4.93333 28.2613 5.148C27.9346 5.36267 27.6733 5.65667 27.4773 6.03C27.2906 6.40333 27.1973 6.828 27.1973 7.304C27.1973 7.78933 27.2906 8.22333 27.4773 8.606C27.6733 8.97933 27.9346 9.27333 28.2613 9.488C28.5973 9.70267 28.98 9.81 29.4093 9.81ZM38.1847 11.14C37.5034 11.14 36.892 10.972 36.3507 10.636C35.8187 10.3 35.394 9.84267 35.0767 9.264C34.7687 8.68533 34.6147 8.03667 34.6147 7.318C34.6147 6.59933 34.7687 5.95067 35.0767 5.372C35.394 4.79333 35.8187 4.336 36.3507 4C36.892 3.664 37.5034 3.496 38.1847 3.496C38.838 3.496 39.4307 3.63133 39.9627 3.902C40.504 4.16333 40.9147 4.52267 41.1947 4.98L40.3967 5.96C40.2474 5.74533 40.056 5.54933 39.8227 5.372C39.5894 5.19467 39.342 5.05467 39.0807 4.952C38.8194 4.84933 38.5674 4.798 38.3247 4.798C37.8767 4.798 37.4754 4.91 37.1207 5.134C36.7754 5.34867 36.5 5.64733 36.2947 6.03C36.0894 6.41267 35.9867 6.842 35.9867 7.318C35.9867 7.794 36.094 8.22333 36.3087 8.606C36.5234 8.97933 36.808 9.278 37.1627 9.502C37.5174 9.726 37.9094 9.838 38.3387 9.838C38.5907 9.838 38.8334 9.796 39.0667 9.712C39.3094 9.628 39.5427 9.502 39.7667 9.334C39.9907 9.166 40.2007 8.96067 40.3967 8.718L41.1947 9.698C40.896 10.118 40.4667 10.4633 39.9067 10.734C39.356 11.0047 38.782 11.14 38.1847 11.14ZM43.5818 14.22L45.0658 10.79L45.0798 11.938L41.4118 3.65H43.0918L45.3878 9.054C45.4345 9.14733 45.4905 9.292 45.5558 9.488C45.6211 9.67467 45.6771 9.86133 45.7238 10.048L45.3598 10.132C45.4345 9.936 45.5045 9.74 45.5698 9.544C45.6445 9.348 45.7145 9.152 45.7798 8.956L47.6978 3.65H49.4058L46.3818 11L45.1358 14.22H43.5818ZM55.2726 13.268C54.4606 13.268 53.7279 13.142 53.0746 12.89C52.4306 12.6473 51.8799 12.2973 51.4226 11.84C50.9746 11.392 50.6292 10.8507 50.3866 10.216C50.1532 9.58133 50.0366 8.88133 50.0366 8.116C50.0366 7.024 50.2279 6.044 50.6106 5.176C51.0026 4.29867 51.5392 3.55667 52.2206 2.95C52.9112 2.334 53.7092 1.86733 54.6146 1.55C55.5292 1.22333 56.5046 1.06 57.5406 1.06C58.2872 1.06 58.9592 1.16733 59.5566 1.382C60.1539 1.58733 60.6672 1.886 61.0966 2.278C61.5259 2.67 61.8526 3.13667 62.0766 3.678C62.3099 4.21 62.4266 4.80267 62.4266 5.456C62.4266 6.09067 62.3332 6.69733 62.1466 7.276C61.9692 7.84533 61.7172 8.354 61.3906 8.802C61.0639 9.24067 60.6812 9.59067 60.2426 9.852C59.8132 10.104 59.3466 10.23 58.8426 10.23C58.5159 10.23 58.2266 10.174 57.9746 10.062C57.7319 9.94067 57.5406 9.77733 57.4006 9.572C57.2606 9.36667 57.1906 9.11933 57.1906 8.83C57.1906 8.69 57.2046 8.54067 57.2326 8.382C57.2699 8.22333 57.2979 8.06 57.3166 7.892L57.5126 8.172C57.3726 8.61067 57.1812 8.984 56.9386 9.292C56.7052 9.6 56.4299 9.83333 56.1126 9.992C55.7952 10.1507 55.4499 10.23 55.0766 10.23C54.6752 10.23 54.3159 10.1227 53.9986 9.908C53.6906 9.69333 53.4479 9.39467 53.2706 9.012C53.0932 8.62933 53.0046 8.186 53.0046 7.682C53.0046 7.24333 53.0839 6.8 53.2426 6.352C53.4012 5.904 53.6299 5.49333 53.9286 5.12C54.2272 4.74667 54.5819 4.44333 54.9926 4.21C55.4032 3.97667 55.8559 3.86 56.3506 3.86C56.6399 3.86 56.8966 3.93 57.1206 4.07C57.3539 4.21 57.5406 4.406 57.6806 4.658C57.8299 4.91 57.9186 5.204 57.9466 5.54L57.6106 6.366L57.9746 3.986H59.3886L58.6746 8.298C58.6466 8.47533 58.6559 8.62467 58.7026 8.746C58.7586 8.858 58.8379 8.942 58.9406 8.998C59.0432 9.054 59.1552 9.082 59.2766 9.082C59.5566 9.082 59.8179 8.98867 60.0606 8.802C60.3032 8.61533 60.5132 8.35867 60.6906 8.032C60.8679 7.696 61.0079 7.31333 61.1106 6.884C61.2132 6.45467 61.2646 6.002 61.2646 5.526C61.2646 4.826 61.1152 4.22867 60.8166 3.734C60.5179 3.23 60.0839 2.84733 59.5146 2.586C58.9546 2.31533 58.2779 2.18 57.4846 2.18C56.5326 2.18 55.6692 2.31533 54.8946 2.586C54.1199 2.84733 53.4572 3.23467 52.9066 3.748C52.3652 4.252 51.9452 4.868 51.6466 5.596C51.3572 6.324 51.2126 7.15 51.2126 8.074C51.2126 8.718 51.3012 9.292 51.4786 9.796C51.6652 10.2907 51.9312 10.7153 52.2766 11.07C52.6219 11.4247 53.0512 11.6907 53.5646 11.868C54.0779 12.0547 54.6612 12.148 55.3146 12.148C55.7532 12.148 56.1312 12.1153 56.4486 12.05C56.7659 11.994 57.0692 11.9007 57.3586 11.77C57.6479 11.6487 57.9699 11.4947 58.3246 11.308L58.8426 12.246C58.2919 12.526 57.8206 12.736 57.4286 12.876C57.0366 13.0253 56.6726 13.128 56.3366 13.184C56.0006 13.24 55.6459 13.268 55.2726 13.268ZM55.3986 9.04C55.7159 9.04 56.0192 8.942 56.3086 8.746C56.6072 8.54067 56.8592 8.284 57.0646 7.976C57.2792 7.65867 57.4099 7.332 57.4566 6.996C57.4846 6.828 57.5079 6.68333 57.5266 6.562C57.5452 6.44067 57.5546 6.324 57.5546 6.212C57.5546 5.96933 57.5079 5.764 57.4146 5.596C57.3212 5.41867 57.1859 5.28333 57.0086 5.19C56.8406 5.09667 56.6399 5.05 56.4066 5.05C56.0426 5.05 55.7112 5.18533 55.4126 5.456C55.1139 5.71733 54.8759 6.058 54.6986 6.478C54.5212 6.88867 54.4326 7.31333 54.4326 7.752C54.4326 8.15333 54.5166 8.47067 54.6846 8.704C54.8619 8.928 55.0999 9.04 55.3986 9.04ZM67.2824 14.22C66.7597 14.22 66.237 14.136 65.7144 13.968C65.201 13.8093 64.7857 13.5993 64.4684 13.338L65.0004 12.218C65.187 12.358 65.4064 12.4793 65.6584 12.582C65.9104 12.694 66.1764 12.778 66.4564 12.834C66.7364 12.8993 67.0117 12.932 67.2824 12.932C67.7957 12.932 68.225 12.848 68.5704 12.68C68.9157 12.512 69.177 12.2647 69.3544 11.938C69.5317 11.6113 69.6204 11.2053 69.6204 10.72V9.306L69.7744 9.404C69.7277 9.69333 69.5737 9.97333 69.3124 10.244C69.0604 10.5053 68.743 10.72 68.3604 10.888C67.9777 11.056 67.5857 11.14 67.1844 11.14C66.4844 11.14 65.859 10.9767 65.3084 10.65C64.767 10.314 64.3377 9.86133 64.0204 9.292C63.703 8.71333 63.5444 8.05533 63.5444 7.318C63.5444 6.58067 63.6984 5.92733 64.0064 5.358C64.3237 4.77933 64.753 4.32667 65.2944 4C65.845 3.664 66.461 3.496 67.1424 3.496C67.4224 3.496 67.693 3.53333 67.9544 3.608C68.2157 3.67333 68.4584 3.77133 68.6824 3.902C68.9064 4.02333 69.107 4.15867 69.2844 4.308C69.4617 4.45733 69.6064 4.616 69.7184 4.784C69.8304 4.952 69.9004 5.11067 69.9284 5.26L69.6204 5.372V3.65H71.0624V10.552C71.0624 11.14 70.9737 11.658 70.7964 12.106C70.6284 12.5633 70.381 12.946 70.0544 13.254C69.7277 13.5713 69.331 13.8093 68.8644 13.968C68.3977 14.136 67.8704 14.22 67.2824 14.22ZM67.3384 9.81C67.7957 9.81 68.2017 9.70267 68.5564 9.488C68.911 9.27333 69.1864 8.97933 69.3824 8.606C69.5784 8.23267 69.6764 7.80333 69.6764 7.318C69.6764 6.83267 69.5737 6.40333 69.3684 6.03C69.1724 5.64733 68.897 5.34867 68.5424 5.134C68.197 4.91933 67.7957 4.812 67.3384 4.812C66.8904 4.812 66.489 4.924 66.1344 5.148C65.789 5.36267 65.5137 5.66133 65.3084 6.044C65.1124 6.41733 65.0144 6.842 65.0144 7.318C65.0144 7.794 65.1124 8.22333 65.3084 8.606C65.5137 8.97933 65.789 9.27333 66.1344 9.488C66.489 9.70267 66.8904 9.81 67.3384 9.81ZM73.1122 11V0.64H74.5542V11H73.1122ZM79.7651 11.14C79.0465 11.14 78.4025 10.9767 77.8331 10.65C77.2731 10.314 76.8298 9.86133 76.5031 9.292C76.1765 8.71333 76.0131 8.05533 76.0131 7.318C76.0131 6.58067 76.1765 5.92733 76.5031 5.358C76.8298 4.77933 77.2731 4.32667 77.8331 4C78.4025 3.664 79.0465 3.496 79.7651 3.496C80.4745 3.496 81.1091 3.664 81.6691 4C82.2385 4.32667 82.6865 4.77933 83.0131 5.358C83.3398 5.92733 83.5031 6.58067 83.5031 7.318C83.5031 8.05533 83.3398 8.71333 83.0131 9.292C82.6865 9.86133 82.2385 10.314 81.6691 10.65C81.1091 10.9767 80.4745 11.14 79.7651 11.14ZM79.7651 9.824C80.2038 9.824 80.5958 9.71667 80.9411 9.502C81.2865 9.278 81.5571 8.97933 81.7531 8.606C81.9491 8.22333 82.0425 7.794 82.0331 7.318C82.0425 6.83267 81.9491 6.40333 81.7531 6.03C81.5571 5.64733 81.2865 5.34867 80.9411 5.134C80.5958 4.91933 80.2038 4.812 79.7651 4.812C79.3265 4.812 78.9298 4.924 78.5751 5.148C78.2298 5.36267 77.9591 5.66133 77.7631 6.044C77.5671 6.41733 77.4738 6.842 77.4831 7.318C77.4738 7.794 77.5671 8.22333 77.7631 8.606C77.9591 8.97933 78.2298 9.278 78.5751 9.502C78.9298 9.71667 79.3265 9.824 79.7651 9.824ZM86.607 11L84.101 3.65L85.557 3.636L87.349 9.138L87.027 9.11L88.973 4.812H89.841L91.801 9.124L91.423 9.152L93.229 3.65H94.685L92.207 11H91.213L89.169 6.324L89.491 6.366L87.587 11H86.607ZM96.2362 11V3.65H97.6782V11H96.2362ZM96.9362 2.026C96.6282 2.026 96.3902 1.94667 96.2222 1.788C96.0542 1.62933 95.9702 1.40533 95.9702 1.116C95.9702 0.845333 96.0542 0.626 96.2222 0.458C96.3996 0.29 96.6376 0.206 96.9362 0.206C97.2442 0.206 97.4822 0.285333 97.6502 0.444C97.8182 0.602666 97.9022 0.826666 97.9022 1.116C97.9022 1.38667 97.8136 1.606 97.6362 1.774C97.4682 1.942 97.2349 2.026 96.9362 2.026ZM99.8947 11V3.65H101.337V5.162L101.085 5.33C101.178 5.00333 101.36 4.70467 101.631 4.434C101.901 4.154 102.223 3.93 102.597 3.762C102.97 3.58467 103.353 3.496 103.745 3.496C104.305 3.496 104.771 3.608 105.145 3.832C105.518 4.04667 105.798 4.378 105.985 4.826C106.171 5.274 106.265 5.83867 106.265 6.52V11H104.823V6.618C104.823 6.198 104.767 5.85267 104.655 5.582C104.543 5.302 104.37 5.10133 104.137 4.98C103.903 4.84933 103.614 4.79333 103.269 4.812C102.989 4.812 102.732 4.85867 102.499 4.952C102.265 5.036 102.06 5.15733 101.883 5.316C101.715 5.47467 101.579 5.66133 101.477 5.876C101.383 6.08133 101.337 6.30533 101.337 6.548V11H100.623C100.501 11 100.38 11 100.259 11C100.137 11 100.016 11 99.8947 11ZM111.511 14.22C110.988 14.22 110.466 14.136 109.943 13.968C109.43 13.8093 109.014 13.5993 108.697 13.338L109.229 12.218C109.416 12.358 109.635 12.4793 109.887 12.582C110.139 12.694 110.405 12.778 110.685 12.834C110.965 12.8993 111.24 12.932 111.511 12.932C112.024 12.932 112.454 12.848 112.799 12.68C113.144 12.512 113.406 12.2647 113.583 11.938C113.76 11.6113 113.849 11.2053 113.849 10.72V9.306L114.003 9.404C113.956 9.69333 113.802 9.97333 113.541 10.244C113.289 10.5053 112.972 10.72 112.589 10.888C112.206 11.056 111.814 11.14 111.413 11.14C110.713 11.14 110.088 10.9767 109.537 10.65C108.996 10.314 108.566 9.86133 108.249 9.292C107.932 8.71333 107.773 8.05533 107.773 7.318C107.773 6.58067 107.927 5.92733 108.235 5.358C108.552 4.77933 108.982 4.32667 109.523 4C110.074 3.664 110.69 3.496 111.371 3.496C111.651 3.496 111.922 3.53333 112.183 3.608C112.444 3.67333 112.687 3.77133 112.911 3.902C113.135 4.02333 113.336 4.15867 113.513 4.308C113.69 4.45733 113.835 4.616 113.947 4.784C114.059 4.952 114.129 5.11067 114.157 5.26L113.849 5.372V3.65H115.291V10.552C115.291 11.14 115.202 11.658 115.025 12.106C114.857 12.5633 114.61 12.946 114.283 13.254C113.956 13.5713 113.56 13.8093 113.093 13.968C112.626 14.136 112.099 14.22 111.511 14.22ZM111.567 9.81C112.024 9.81 112.43 9.70267 112.785 9.488C113.14 9.27333 113.415 8.97933 113.611 8.606C113.807 8.23267 113.905 7.80333 113.905 7.318C113.905 6.83267 113.802 6.40333 113.597 6.03C113.401 5.64733 113.126 5.34867 112.771 5.134C112.426 4.91933 112.024 4.812 111.567 4.812C111.119 4.812 110.718 4.924 110.363 5.148C110.018 5.36267 109.742 5.66133 109.537 6.044C109.341 6.41733 109.243 6.842 109.243 7.318C109.243 7.794 109.341 8.22333 109.537 8.606C109.742 8.97933 110.018 9.27333 110.363 9.488C110.718 9.70267 111.119 9.81 111.567 9.81ZM118.629 8.704L118.559 7.136L122.073 3.65H124.019L118.629 8.704ZM117.313 11V0.64H118.755V11H117.313ZM122.269 11L119.497 7.766L120.519 6.828L124.117 11H122.269ZM125.508 11V3.65H126.95V11H125.508ZM126.208 2.026C125.9 2.026 125.662 1.94667 125.494 1.788C125.326 1.62933 125.242 1.40533 125.242 1.116C125.242 0.845333 125.326 0.626 125.494 0.458C125.671 0.29 125.909 0.206 126.208 0.206C126.516 0.206 126.754 0.285333 126.922 0.444C127.09 0.602666 127.174 0.826666 127.174 1.116C127.174 1.38667 127.085 1.606 126.908 1.774C126.74 1.942 126.506 2.026 126.208 2.026ZM130.076 11V1.774H131.518V11H130.076ZM128.55 5.05V3.65H133.226V5.05H128.55ZM135.449 11V1.774H136.891V11H135.449ZM133.923 5.05V3.65H138.599V5.05H133.923ZM141.144 14.22L142.628 10.79L142.642 11.938L138.974 3.65H140.654L142.95 9.054C142.997 9.14733 143.053 9.292 143.118 9.488C143.184 9.67467 143.24 9.86133 143.286 10.048L142.922 10.132C142.997 9.936 143.067 9.74 143.132 9.544C143.207 9.348 143.277 9.152 143.342 8.956L145.26 3.65H146.968L143.944 11L142.698 14.22H141.144ZM148.075 11.154C147.767 11.154 147.529 11.0653 147.361 10.888C147.193 10.7013 147.109 10.44 147.109 10.104C147.109 9.796 147.197 9.544 147.375 9.348C147.552 9.152 147.785 9.054 148.075 9.054C148.383 9.054 148.621 9.14733 148.789 9.334C148.957 9.51133 149.041 9.768 149.041 10.104C149.041 10.412 148.952 10.664 148.775 10.86C148.597 11.056 148.364 11.154 148.075 11.154ZM150.644 11V3.65H152.1V5.218L151.834 5.386C151.909 5.14333 152.025 4.91 152.184 4.686C152.352 4.462 152.553 4.266 152.786 4.098C153.029 3.92067 153.285 3.78067 153.556 3.678C153.836 3.57533 154.121 3.524 154.41 3.524C154.83 3.524 155.199 3.594 155.516 3.734C155.833 3.874 156.095 4.084 156.3 4.364C156.505 4.644 156.655 4.994 156.748 5.414L156.524 5.358L156.622 5.12C156.725 4.90533 156.865 4.70467 157.042 4.518C157.229 4.322 157.439 4.14933 157.672 4C157.905 3.85067 158.153 3.734 158.414 3.65C158.675 3.566 158.932 3.524 159.184 3.524C159.735 3.524 160.187 3.636 160.542 3.86C160.906 4.084 161.177 4.42467 161.354 4.882C161.541 5.33933 161.634 5.90867 161.634 6.59V11H160.178V6.674C160.178 6.254 160.122 5.91333 160.01 5.652C159.907 5.38133 159.749 5.18067 159.534 5.05C159.319 4.91933 159.044 4.854 158.708 4.854C158.447 4.854 158.199 4.90067 157.966 4.994C157.742 5.078 157.546 5.19933 157.378 5.358C157.21 5.51667 157.079 5.70333 156.986 5.918C156.893 6.12333 156.846 6.352 156.846 6.604V11H155.39V6.646C155.39 6.26333 155.334 5.94133 155.222 5.68C155.11 5.40933 154.947 5.204 154.732 5.064C154.517 4.924 154.256 4.854 153.948 4.854C153.687 4.854 153.444 4.90067 153.22 4.994C152.996 5.078 152.8 5.19933 152.632 5.358C152.464 5.50733 152.333 5.68933 152.24 5.904C152.147 6.10933 152.1 6.33333 152.1 6.576V11H150.644ZM166.995 11.14C166.239 11.14 165.567 10.9813 164.979 10.664C164.4 10.3373 163.943 9.894 163.607 9.334C163.28 8.774 163.117 8.13 163.117 7.402C163.117 6.82333 163.21 6.296 163.397 5.82C163.583 5.344 163.84 4.93333 164.167 4.588C164.503 4.23333 164.899 3.96267 165.357 3.776C165.823 3.58 166.327 3.482 166.869 3.482C167.345 3.482 167.788 3.57533 168.199 3.762C168.609 3.93933 168.964 4.18667 169.263 4.504C169.571 4.82133 169.804 5.19933 169.963 5.638C170.131 6.06733 170.21 6.53867 170.201 7.052L170.187 7.668H164.181L163.859 6.52H168.941L168.731 6.758V6.422C168.703 6.114 168.6 5.83867 168.423 5.596C168.245 5.35333 168.021 5.162 167.751 5.022C167.48 4.882 167.186 4.812 166.869 4.812C166.365 4.812 165.94 4.91 165.595 5.106C165.249 5.29267 164.988 5.57267 164.811 5.946C164.633 6.31 164.545 6.76267 164.545 7.304C164.545 7.81733 164.652 8.26533 164.867 8.648C165.081 9.02133 165.385 9.31067 165.777 9.516C166.169 9.72133 166.621 9.824 167.135 9.824C167.499 9.824 167.835 9.76333 168.143 9.642C168.46 9.52067 168.801 9.30133 169.165 8.984L169.893 10.006C169.669 10.23 169.393 10.426 169.067 10.594C168.749 10.762 168.409 10.8973 168.045 11C167.69 11.0933 167.34 11.14 166.995 11.14Z" fill="black"/>
</svg>
