<svg width="224" height="13" viewBox="0 0 224 13" fill="none" xmlns="http://www.w3.org/2000/svg">
<path d="M0.63 6.71V5.45H7.644V6.71H0.63ZM3.388 9.412V2.65H4.858V9.412H3.388ZM13.1995 10V2.104L13.5495 2.188L10.3295 6.122L10.2735 5.954H16.3635V7.34H9.33548L8.69148 6.08L13.4935 0.199999H14.6555V10H13.1995ZM20.1451 10L20.0891 9.86L23.0011 3.672L23.0431 4.834C22.8751 5.114 22.6885 5.36133 22.4831 5.576C22.2871 5.79067 22.0678 5.97733 21.8251 6.136C21.5918 6.28533 21.3491 6.402 21.0971 6.486C20.8451 6.56067 20.5885 6.598 20.3271 6.598C19.7951 6.598 19.3051 6.458 18.8571 6.178C18.4091 5.898 18.0498 5.52467 17.7791 5.058C17.5085 4.59133 17.3731 4.08267 17.3731 3.532C17.3731 2.86933 17.5225 2.27667 17.8211 1.754C18.1198 1.222 18.5258 0.802 19.0391 0.494C19.5618 0.186 20.1451 0.0319998 20.7891 0.0319998C21.2558 0.0319998 21.6945 0.116 22.1051 0.284C22.5158 0.451999 22.8751 0.689999 23.1831 0.998C23.4911 1.29667 23.7338 1.64667 23.9111 2.048C24.0885 2.44 24.1771 2.86 24.1771 3.308C24.1771 3.54133 24.1538 3.79333 24.1071 4.064C24.0605 4.32533 23.9811 4.624 23.8691 4.96C23.7665 5.28667 23.6265 5.66467 23.4491 6.094C23.2718 6.514 23.0525 7.004 22.7911 7.564L21.6291 10H20.1451ZM20.6491 5.198C21.0131 5.198 21.3398 5.11867 21.6291 4.96C21.9185 4.792 22.1425 4.57267 22.3011 4.302C22.4691 4.022 22.5531 3.70933 22.5531 3.364C22.5531 3 22.4738 2.67333 22.3151 2.384C22.1565 2.08533 21.9325 1.852 21.6431 1.684C21.3631 1.516 21.0411 1.432 20.6771 1.432C20.3411 1.432 20.0425 1.516 19.7811 1.684C19.5198 1.84267 19.3098 2.06667 19.1511 2.356C19.0018 2.636 18.9271 2.96733 18.9271 3.35C18.9271 3.67667 19.0018 3.98 19.1511 4.26C19.3098 4.54 19.5198 4.76867 19.7811 4.946C20.0425 5.114 20.3318 5.198 20.6491 5.198ZM31.6259 9.314V1.362L32.1439 1.754L30.2119 2.776L29.8059 1.46L32.4239 0.0599995H33.1519V9.314H31.6259ZM30.0719 10V8.544H34.7479V10H30.0719ZM39.1859 10.098C38.5419 10.098 37.9586 9.95333 37.4359 9.664C36.9132 9.36533 36.4792 8.94067 36.1339 8.39L36.9739 7.452C37.4126 7.93733 37.7952 8.26867 38.1219 8.446C38.4486 8.62333 38.8032 8.712 39.1859 8.712C39.5686 8.712 39.9139 8.628 40.2219 8.46C40.5299 8.292 40.7726 8.06333 40.9499 7.774C41.1366 7.48467 41.2299 7.16267 41.2299 6.808C41.2299 6.43467 41.1412 6.10333 40.9639 5.814C40.7959 5.51533 40.5672 5.282 40.2779 5.114C39.9886 4.93667 39.6619 4.848 39.2979 4.848C39.1206 4.848 38.9526 4.862 38.7939 4.89C38.6352 4.90867 38.4439 4.96 38.2199 5.044C37.9959 5.128 37.7019 5.25867 37.3379 5.436L36.5399 4.358L37.1139 0.199999H42.4059V1.6H38.0659L38.3599 1.334L37.8979 4.442L37.5479 4.036C37.6412 3.94267 37.7999 3.854 38.0239 3.77C38.2479 3.67667 38.4952 3.602 38.7659 3.546C39.0459 3.48067 39.3119 3.448 39.5639 3.448C40.1612 3.448 40.6932 3.588 41.1599 3.868C41.6359 4.13867 42.0092 4.51667 42.2799 5.002C42.5599 5.48733 42.6999 6.04267 42.6999 6.668C42.6999 7.312 42.5459 7.89533 42.2379 8.418C41.9299 8.93133 41.5099 9.342 40.9779 9.65C40.4459 9.94867 39.8486 10.098 39.1859 10.098ZM46.5829 9.314V1.362L47.1009 1.754L45.1689 2.776L44.7629 1.46L47.3809 0.0599995H48.1089V9.314H46.5829ZM45.0289 10V8.544H49.7049V10H45.0289ZM58.4308 10C57.9454 10 57.4928 9.916 57.0728 9.748C56.6621 9.57067 56.3028 9.328 55.9948 9.02C55.6961 8.712 55.4581 8.348 55.2808 7.928C55.1128 7.508 55.0288 7.046 55.0288 6.542C55.0288 6.29 55.0614 6.01 55.1268 5.702C55.2014 5.38467 55.3088 5.03933 55.4488 4.666C55.5981 4.29267 55.7754 3.90067 55.9808 3.49C56.1861 3.07 56.4241 2.636 56.6948 2.188L57.9688 0.0319998H59.4388L59.4948 0.172L57.9548 2.762C57.6748 3.238 57.4228 3.69067 57.1988 4.12C56.9841 4.54933 56.8021 4.95533 56.6528 5.338C56.5034 5.71133 56.3914 6.052 56.3167 6.36L55.9808 4.918C56.1581 4.62867 56.3494 4.37667 56.5548 4.162C56.7601 3.938 56.9794 3.75133 57.2128 3.602C57.4554 3.45267 57.7074 3.34067 57.9688 3.266C58.2301 3.19133 58.5008 3.154 58.7808 3.154C59.3221 3.154 59.8168 3.30333 60.2648 3.602C60.7221 3.89133 61.0861 4.27867 61.3568 4.764C61.6368 5.24933 61.7768 5.78133 61.7768 6.36C61.7768 7.06 61.6321 7.68533 61.3428 8.236C61.0628 8.77733 60.6708 9.20667 60.1668 9.524C59.6628 9.84133 59.0841 10 58.4308 10ZM58.4308 8.6C58.7948 8.6 59.1168 8.516 59.3968 8.348C59.6861 8.17067 59.9101 7.928 60.0688 7.62C60.2368 7.30267 60.3208 6.94333 60.3208 6.542C60.3208 6.19667 60.2368 5.87467 60.0688 5.576C59.9008 5.268 59.6768 5.02067 59.3968 4.834C59.1168 4.64733 58.8041 4.554 58.4588 4.554C58.0761 4.554 57.7354 4.64267 57.4368 4.82C57.1381 4.99733 56.9048 5.23533 56.7368 5.534C56.5688 5.83267 56.4848 6.164 56.4848 6.528C56.4848 6.92 56.5688 7.27467 56.7368 7.592C56.9048 7.9 57.1334 8.14733 57.4228 8.334C57.7121 8.51133 58.0481 8.6 58.4308 8.6ZM65.2997 9.314V1.362L65.8177 1.754L63.8857 2.776L63.4797 1.46L66.0977 0.0599995H66.8257V9.314H65.2997ZM63.7457 10V8.544H68.4217V10H63.7457ZM74.1897 10V2.104L74.5397 2.188L71.3197 6.122L71.2637 5.954H77.3537V7.34H70.3257L69.6817 6.08L74.4837 0.199999H75.6457V10H74.1897ZM79.2379 10L83.2979 1.152L83.4659 1.6H78.5099V0.199999H84.5719L84.7679 1.166L80.8619 10H79.2379ZM88.8558 10.098C88.2118 10.098 87.6285 9.95333 87.1058 9.664C86.5831 9.36533 86.1491 8.94067 85.8038 8.39L86.6438 7.452C87.0825 7.93733 87.4651 8.26867 87.7918 8.446C88.1185 8.62333 88.4731 8.712 88.8558 8.712C89.2385 8.712 89.5838 8.628 89.8918 8.46C90.1998 8.292 90.4425 8.06333 90.6198 7.774C90.8065 7.48467 90.8998 7.16267 90.8998 6.808C90.8998 6.43467 90.8111 6.10333 90.6338 5.814C90.4658 5.51533 90.2371 5.282 89.9478 5.114C89.6585 4.93667 89.3318 4.848 88.9678 4.848C88.7905 4.848 88.6225 4.862 88.4638 4.89C88.3051 4.90867 88.1138 4.96 87.8898 5.044C87.6658 5.128 87.3718 5.25867 87.0078 5.436L86.2098 4.358L86.7838 0.199999H92.0758V1.6H87.7358L88.0298 1.334L87.5678 4.442L87.2178 4.036C87.3111 3.94267 87.4698 3.854 87.6938 3.77C87.9178 3.67667 88.1651 3.602 88.4358 3.546C88.7158 3.48067 88.9818 3.448 89.2338 3.448C89.8311 3.448 90.3631 3.588 90.8298 3.868C91.3058 4.13867 91.6791 4.51667 91.9498 5.002C92.2298 5.48733 92.3698 6.04267 92.3698 6.668C92.3698 7.312 92.2158 7.89533 91.9078 8.418C91.5998 8.93133 91.1798 9.342 90.6478 9.65C90.1158 9.94867 89.5185 10.098 88.8558 10.098ZM94.7828 10L98.8428 1.152L99.0108 1.6H94.0548V0.199999H100.117L100.313 1.166L96.4068 10H94.7828ZM104.575 10.042C103.969 10.042 103.413 9.916 102.909 9.664C102.415 9.40267 102.018 9.05733 101.719 8.628C101.421 8.19867 101.271 7.72267 101.271 7.2C101.271 6.91067 101.309 6.64 101.383 6.388C101.467 6.12667 101.589 5.88867 101.747 5.674C101.915 5.45933 102.116 5.26333 102.349 5.086C102.583 4.90867 102.853 4.75 103.161 4.61L103.077 4.904C102.835 4.81067 102.615 4.69867 102.419 4.568C102.233 4.428 102.069 4.26933 101.929 4.092C101.789 3.91467 101.682 3.72333 101.607 3.518C101.542 3.31267 101.509 3.098 101.509 2.874C101.509 2.37933 101.645 1.93133 101.915 1.53C102.195 1.12867 102.564 0.806667 103.021 0.564C103.488 0.321333 104.006 0.199999 104.575 0.199999C105.145 0.199999 105.658 0.321333 106.115 0.564C106.582 0.806667 106.951 1.12867 107.221 1.53C107.501 1.93133 107.641 2.37933 107.641 2.874C107.641 3.098 107.604 3.31267 107.529 3.518C107.464 3.72333 107.366 3.91 107.235 4.078C107.105 4.246 106.937 4.4 106.731 4.54C106.535 4.68 106.311 4.80133 106.059 4.904L106.017 4.666C106.297 4.778 106.549 4.92267 106.773 5.1C107.007 5.27733 107.207 5.478 107.375 5.702C107.543 5.926 107.669 6.164 107.753 6.416C107.847 6.668 107.893 6.92933 107.893 7.2C107.893 7.732 107.744 8.21267 107.445 8.642C107.147 9.07133 106.745 9.412 106.241 9.664C105.747 9.916 105.191 10.042 104.575 10.042ZM104.575 8.642C104.921 8.642 105.229 8.57667 105.499 8.446C105.779 8.31533 105.999 8.138 106.157 7.914C106.316 7.69 106.395 7.43333 106.395 7.144C106.395 6.836 106.316 6.56533 106.157 6.332C105.999 6.08933 105.779 5.898 105.499 5.758C105.229 5.618 104.921 5.548 104.575 5.548C104.23 5.548 103.922 5.618 103.651 5.758C103.381 5.898 103.166 6.08933 103.007 6.332C102.849 6.56533 102.769 6.836 102.769 7.144C102.769 7.424 102.849 7.676 103.007 7.9C103.166 8.124 103.381 8.306 103.651 8.446C103.922 8.57667 104.23 8.642 104.575 8.642ZM104.575 4.204C104.874 4.204 105.14 4.148 105.373 4.036C105.616 3.924 105.803 3.77467 105.933 3.588C106.073 3.392 106.143 3.168 106.143 2.916C106.143 2.664 106.073 2.44 105.933 2.244C105.803 2.048 105.616 1.894 105.373 1.782C105.14 1.66067 104.874 1.6 104.575 1.6C104.277 1.6 104.006 1.66067 103.763 1.782C103.53 1.894 103.343 2.048 103.203 2.244C103.073 2.44 103.007 2.664 103.007 2.916C103.007 3.168 103.073 3.392 103.203 3.588C103.343 3.77467 103.53 3.924 103.763 4.036C104.006 4.148 104.277 4.204 104.575 4.204ZM112.599 10C112.113 10 111.661 9.916 111.241 9.748C110.83 9.57067 110.471 9.328 110.163 9.02C109.864 8.712 109.626 8.348 109.449 7.928C109.281 7.508 109.197 7.046 109.197 6.542C109.197 6.29 109.229 6.01 109.295 5.702C109.369 5.38467 109.477 5.03933 109.617 4.666C109.766 4.29267 109.943 3.90067 110.149 3.49C110.354 3.07 110.592 2.636 110.863 2.188L112.137 0.0319998H113.607L113.663 0.172L112.123 2.762C111.843 3.238 111.591 3.69067 111.367 4.12C111.152 4.54933 110.97 4.95533 110.821 5.338C110.671 5.71133 110.559 6.052 110.485 6.36L110.149 4.918C110.326 4.62867 110.517 4.37667 110.723 4.162C110.928 3.938 111.147 3.75133 111.381 3.602C111.623 3.45267 111.875 3.34067 112.137 3.266C112.398 3.19133 112.669 3.154 112.949 3.154C113.49 3.154 113.985 3.30333 114.433 3.602C114.89 3.89133 115.254 4.27867 115.525 4.764C115.805 5.24933 115.945 5.78133 115.945 6.36C115.945 7.06 115.8 7.68533 115.511 8.236C115.231 8.77733 114.839 9.20667 114.335 9.524C113.831 9.84133 113.252 10 112.599 10ZM112.599 8.6C112.963 8.6 113.285 8.516 113.565 8.348C113.854 8.17067 114.078 7.928 114.237 7.62C114.405 7.30267 114.489 6.94333 114.489 6.542C114.489 6.19667 114.405 5.87467 114.237 5.576C114.069 5.268 113.845 5.02067 113.565 4.834C113.285 4.64733 112.972 4.554 112.627 4.554C112.244 4.554 111.903 4.64267 111.605 4.82C111.306 4.99733 111.073 5.23533 110.905 5.534C110.737 5.83267 110.653 6.164 110.653 6.528C110.653 6.92 110.737 7.27467 110.905 7.592C111.073 7.9 111.301 8.14733 111.591 8.334C111.88 8.51133 112.216 8.6 112.599 8.6ZM124.414 12.604C123.275 11.8947 122.407 11.008 121.81 9.944C121.212 8.88 120.914 7.69467 120.914 6.388C120.914 5.09067 121.212 3.91 121.81 2.846C122.416 1.77267 123.289 0.881333 124.428 0.172L125.198 1.04C124.246 1.70267 123.518 2.496 123.014 3.42C122.519 4.33467 122.272 5.324 122.272 6.388C122.272 7.452 122.519 8.446 123.014 9.37C123.518 10.2847 124.246 11.0733 125.198 11.736L124.414 12.604ZM126.852 10V0.199999H128.21L134.202 8.222L133.978 8.348C133.941 8.11467 133.908 7.86267 133.88 7.592C133.852 7.312 133.824 7.018 133.796 6.71C133.778 6.39267 133.759 6.06133 133.74 5.716C133.731 5.36133 133.722 4.99267 133.712 4.61C133.703 4.22733 133.698 3.83067 133.698 3.42V0.199999H135.21V10H133.824L127.93 2.272L128.084 2.076C128.131 2.64533 128.168 3.13067 128.196 3.532C128.234 3.924 128.262 4.26 128.28 4.54C128.308 4.81067 128.327 5.03467 128.336 5.212C128.346 5.38 128.35 5.52 128.35 5.632C128.36 5.744 128.364 5.842 128.364 5.926V10H126.852ZM142.056 10.14C141.365 10.14 140.726 10.014 140.138 9.762C139.559 9.51 139.051 9.16 138.612 8.712C138.183 8.25467 137.847 7.72267 137.604 7.116C137.371 6.5 137.254 5.828 137.254 5.1C137.254 4.372 137.371 3.70467 137.604 3.098C137.847 2.482 138.183 1.95 138.612 1.502C139.051 1.04467 139.559 0.69 140.138 0.438C140.726 0.186 141.365 0.0599995 142.056 0.0599995C142.747 0.0599995 143.381 0.186 143.96 0.438C144.548 0.69 145.057 1.04467 145.486 1.502C145.925 1.95933 146.261 2.496 146.494 3.112C146.737 3.71867 146.858 4.38133 146.858 5.1C146.858 5.81867 146.737 6.486 146.494 7.102C146.261 7.70867 145.925 8.24067 145.486 8.698C145.057 9.15533 144.548 9.51 143.96 9.762C143.381 10.014 142.747 10.14 142.056 10.14ZM142.056 8.67C142.532 8.67 142.966 8.58133 143.358 8.404C143.759 8.22667 144.105 7.97933 144.394 7.662C144.683 7.33533 144.907 6.95733 145.066 6.528C145.234 6.08933 145.318 5.61333 145.318 5.1C145.318 4.58667 145.234 4.11533 145.066 3.686C144.907 3.24733 144.683 2.86933 144.394 2.552C144.105 2.22533 143.759 1.97333 143.358 1.796C142.966 1.61867 142.532 1.53 142.056 1.53C141.58 1.53 141.141 1.61867 140.74 1.796C140.348 1.97333 140.003 2.22067 139.704 2.538C139.415 2.85533 139.191 3.23333 139.032 3.672C138.873 4.10133 138.794 4.57733 138.794 5.1C138.794 5.61333 138.873 6.08933 139.032 6.528C139.191 6.96667 139.415 7.34467 139.704 7.662C140.003 7.97933 140.348 8.22667 140.74 8.404C141.141 8.58133 141.58 8.67 142.056 8.67ZM159.227 10V0.199999H160.739V10H159.227ZM152.829 10V0.199999H154.341V10H152.829ZM153.487 5.842V4.386H159.899V5.842H153.487ZM167.581 10.14C166.891 10.14 166.251 10.014 165.663 9.762C165.085 9.51 164.576 9.16 164.137 8.712C163.708 8.25467 163.372 7.72267 163.129 7.116C162.896 6.5 162.779 5.828 162.779 5.1C162.779 4.372 162.896 3.70467 163.129 3.098C163.372 2.482 163.708 1.95 164.137 1.502C164.576 1.04467 165.085 0.69 165.663 0.438C166.251 0.186 166.891 0.0599995 167.581 0.0599995C168.272 0.0599995 168.907 0.186 169.485 0.438C170.073 0.69 170.582 1.04467 171.011 1.502C171.45 1.95933 171.786 2.496 172.019 3.112C172.262 3.71867 172.383 4.38133 172.383 5.1C172.383 5.81867 172.262 6.486 172.019 7.102C171.786 7.70867 171.45 8.24067 171.011 8.698C170.582 9.15533 170.073 9.51 169.485 9.762C168.907 10.014 168.272 10.14 167.581 10.14ZM167.581 8.67C168.057 8.67 168.491 8.58133 168.883 8.404C169.285 8.22667 169.63 7.97933 169.919 7.662C170.209 7.33533 170.433 6.95733 170.591 6.528C170.759 6.08933 170.843 5.61333 170.843 5.1C170.843 4.58667 170.759 4.11533 170.591 3.686C170.433 3.24733 170.209 2.86933 169.919 2.552C169.63 2.22533 169.285 1.97333 168.883 1.796C168.491 1.61867 168.057 1.53 167.581 1.53C167.105 1.53 166.667 1.61867 166.265 1.796C165.873 1.97333 165.528 2.22067 165.229 2.538C164.94 2.85533 164.716 3.23333 164.557 3.672C164.399 4.10133 164.319 4.57733 164.319 5.1C164.319 5.61333 164.399 6.08933 164.557 6.528C164.716 6.96667 164.94 7.34467 165.229 7.662C165.528 7.97933 165.873 8.22667 166.265 8.404C166.667 8.58133 167.105 8.67 167.581 8.67ZM175.869 10V1.656H173.125V0.199999H180.209V1.656H177.381V10H175.869ZM182.073 10V0.199999H183.585V8.544H188.177V10H182.073ZM190.09 10V8.6H191.672V1.6H190.09V0.199999H194.766V1.6H193.184V8.6H194.766V10H190.09ZM197.14 10V0.199999H198.498L204.49 8.222L204.266 8.348C204.228 8.11467 204.196 7.86267 204.168 7.592C204.14 7.312 204.112 7.018 204.084 6.71C204.065 6.39267 204.046 6.06133 204.028 5.716C204.018 5.36133 204.009 4.99267 204 4.61C203.99 4.22733 203.986 3.83067 203.986 3.42V0.199999H205.498V10H204.112L198.218 2.272L198.372 2.076C198.418 2.64533 198.456 3.13067 198.484 3.532C198.521 3.924 198.549 4.26 198.568 4.54C198.596 4.81067 198.614 5.03467 198.624 5.212C198.633 5.38 198.638 5.52 198.638 5.632C198.647 5.744 198.652 5.842 198.652 5.926V10H197.14ZM208.241 10V0.199999H214.415V1.656H209.753V8.544H214.415V10H208.241ZM208.927 5.702V4.246H213.645V5.702H208.927ZM216.687 6.626C216.621 6.038 216.561 5.43133 216.505 4.806C216.458 4.17133 216.421 3.546 216.393 2.93C216.365 2.314 216.351 1.73067 216.351 1.18V0.199999H217.863V1.18C217.863 1.75867 217.849 2.36533 217.821 3C217.793 3.63467 217.751 4.26467 217.695 4.89C217.648 5.506 217.592 6.08467 217.527 6.626H216.687ZM217.065 10.154C216.757 10.154 216.519 10.0653 216.351 9.888C216.183 9.70133 216.099 9.44 216.099 9.104C216.099 8.796 216.187 8.544 216.365 8.348C216.542 8.152 216.775 8.054 217.065 8.054C217.373 8.054 217.611 8.14733 217.779 8.334C217.947 8.51133 218.031 8.768 218.031 9.104C218.031 9.412 217.942 9.664 217.765 9.86C217.587 10.056 217.354 10.154 217.065 10.154ZM219.827 12.604L219.057 11.736C220.009 11.0733 220.733 10.2847 221.227 9.37C221.731 8.446 221.983 7.452 221.983 6.388C221.983 5.324 221.731 4.33467 221.227 3.42C220.733 2.496 220.009 1.70267 219.057 1.04L219.841 0.172C220.98 0.881333 221.848 1.768 222.445 2.832C223.043 3.896 223.341 5.08133 223.341 6.388C223.341 7.68533 223.038 8.87067 222.431 9.944C221.834 11.008 220.966 11.8947 219.827 12.604Z" fill="black"/>
</svg>
