<svg width="173" height="15" viewBox="0 0 173 15" fill="none" xmlns="http://www.w3.org/2000/svg">
<path d="M4.13 11.14C3.44867 11.14 2.83733 10.972 2.296 10.636C1.764 10.3 1.33933 9.84267 1.022 9.264C0.714 8.68533 0.56 8.03667 0.56 7.318C0.56 6.59933 0.714 5.95067 1.022 5.372C1.33933 4.79333 1.764 4.336 2.296 4C2.83733 3.664 3.44867 3.496 4.13 3.496C4.78333 3.496 5.376 3.63133 5.908 3.902C6.44933 4.16333 6.86 4.52267 7.14 4.98L6.342 5.96C6.19267 5.74533 6.00133 5.54933 5.768 5.372C5.53467 5.19467 5.28733 5.05467 5.026 4.952C4.76467 4.84933 4.51267 4.798 4.27 4.798C3.822 4.798 3.42067 4.91 3.066 5.134C2.72067 5.34867 2.44533 5.64733 2.24 6.03C2.03467 6.41267 1.932 6.842 1.932 7.318C1.932 7.794 2.03933 8.22333 2.254 8.606C2.46867 8.97933 2.75333 9.278 3.108 9.502C3.46267 9.726 3.85467 9.838 4.284 9.838C4.536 9.838 4.77867 9.796 5.012 9.712C5.25467 9.628 5.488 9.502 5.712 9.334C5.936 9.166 6.146 8.96067 6.342 8.718L7.14 9.698C6.84133 10.118 6.412 10.4633 5.852 10.734C5.30133 11.0047 4.72733 11.14 4.13 11.14ZM11.8042 11.14C11.0855 11.14 10.4415 10.9767 9.87219 10.65C9.31219 10.314 8.86885 9.86133 8.54219 9.292C8.21552 8.71333 8.05219 8.05533 8.05219 7.318C8.05219 6.58067 8.21552 5.92733 8.54219 5.358C8.86885 4.77933 9.31219 4.32667 9.87219 4C10.4415 3.664 11.0855 3.496 11.8042 3.496C12.5135 3.496 13.1482 3.664 13.7082 4C14.2775 4.32667 14.7255 4.77933 15.0522 5.358C15.3789 5.92733 15.5422 6.58067 15.5422 7.318C15.5422 8.05533 15.3789 8.71333 15.0522 9.292C14.7255 9.86133 14.2775 10.314 13.7082 10.65C13.1482 10.9767 12.5135 11.14 11.8042 11.14ZM11.8042 9.824C12.2429 9.824 12.6349 9.71667 12.9802 9.502C13.3255 9.278 13.5962 8.97933 13.7922 8.606C13.9882 8.22333 14.0815 7.794 14.0722 7.318C14.0815 6.83267 13.9882 6.40333 13.7922 6.03C13.5962 5.64733 13.3255 5.34867 12.9802 5.134C12.6349 4.91933 12.2429 4.812 11.8042 4.812C11.3655 4.812 10.9689 4.924 10.6142 5.148C10.2689 5.36267 9.99819 5.66133 9.80219 6.044C9.60619 6.41733 9.51285 6.842 9.52219 7.318C9.51285 7.794 9.60619 8.22333 9.80219 8.606C9.99819 8.97933 10.2689 9.278 10.6142 9.502C10.9689 9.71667 11.3655 9.824 11.8042 9.824ZM17.1135 11V3.65H18.5555V5.162L18.3035 5.33C18.3968 5.00333 18.5788 4.70467 18.8495 4.434C19.1201 4.154 19.4421 3.93 19.8155 3.762C20.1888 3.58467 20.5715 3.496 20.9635 3.496C21.5235 3.496 21.9901 3.608 22.3635 3.832C22.7368 4.04667 23.0168 4.378 23.2035 4.826C23.3901 5.274 23.4835 5.83867 23.4835 6.52V11H22.0415V6.618C22.0415 6.198 21.9855 5.85267 21.8735 5.582C21.7615 5.302 21.5888 5.10133 21.3555 4.98C21.1221 4.84933 20.8328 4.79333 20.4875 4.812C20.2075 4.812 19.9508 4.85867 19.7175 4.952C19.4841 5.036 19.2788 5.15733 19.1015 5.316C18.9335 5.47467 18.7981 5.66133 18.6955 5.876C18.6021 6.08133 18.5555 6.30533 18.5555 6.548V11H17.8415C17.7201 11 17.5988 11 17.4775 11C17.3561 11 17.2348 11 17.1135 11ZM26.3496 11V1.774H27.7916V11H26.3496ZM24.8236 5.05V3.65H29.4996V5.05H24.8236ZM33.5723 11.14C32.9657 11.14 32.4103 10.972 31.9063 10.636C31.4117 10.3 31.015 9.84267 30.7163 9.264C30.4177 8.68533 30.2683 8.032 30.2683 7.304C30.2683 6.56667 30.4177 5.91333 30.7163 5.344C31.0243 4.76533 31.435 4.31267 31.9483 3.986C32.471 3.65933 33.0543 3.496 33.6983 3.496C34.081 3.496 34.431 3.552 34.7483 3.664C35.0657 3.776 35.341 3.93467 35.5743 4.14C35.817 4.336 36.013 4.56467 36.1623 4.826C36.321 5.08733 36.419 5.36733 36.4563 5.666L36.1343 5.554V3.65H37.5903V11H36.1343V9.25L36.4703 9.152C36.4143 9.404 36.2977 9.65133 36.1203 9.894C35.9523 10.1273 35.733 10.3373 35.4623 10.524C35.201 10.7107 34.907 10.86 34.5803 10.972C34.263 11.084 33.927 11.14 33.5723 11.14ZM33.9503 9.81C34.389 9.81 34.7763 9.70267 35.1123 9.488C35.4483 9.27333 35.7097 8.97933 35.8963 8.606C36.0923 8.22333 36.1903 7.78933 36.1903 7.304C36.1903 6.828 36.0923 6.40333 35.8963 6.03C35.7097 5.65667 35.4483 5.36267 35.1123 5.148C34.7763 4.93333 34.389 4.826 33.9503 4.826C33.521 4.826 33.1383 4.93333 32.8023 5.148C32.4757 5.36267 32.2143 5.65667 32.0183 6.03C31.8317 6.40333 31.7383 6.828 31.7383 7.304C31.7383 7.78933 31.8317 8.22333 32.0183 8.606C32.2143 8.97933 32.4757 9.27333 32.8023 9.488C33.1383 9.70267 33.521 9.81 33.9503 9.81ZM42.7257 11.14C42.0444 11.14 41.433 10.972 40.8917 10.636C40.3597 10.3 39.935 9.84267 39.6177 9.264C39.3097 8.68533 39.1557 8.03667 39.1557 7.318C39.1557 6.59933 39.3097 5.95067 39.6177 5.372C39.935 4.79333 40.3597 4.336 40.8917 4C41.433 3.664 42.0444 3.496 42.7257 3.496C43.379 3.496 43.9717 3.63133 44.5037 3.902C45.045 4.16333 45.4557 4.52267 45.7357 4.98L44.9377 5.96C44.7884 5.74533 44.597 5.54933 44.3637 5.372C44.1304 5.19467 43.883 5.05467 43.6217 4.952C43.3604 4.84933 43.1084 4.798 42.8657 4.798C42.4177 4.798 42.0164 4.91 41.6617 5.134C41.3164 5.34867 41.041 5.64733 40.8357 6.03C40.6304 6.41267 40.5277 6.842 40.5277 7.318C40.5277 7.794 40.635 8.22333 40.8497 8.606C41.0644 8.97933 41.349 9.278 41.7037 9.502C42.0584 9.726 42.4504 9.838 42.8797 9.838C43.1317 9.838 43.3744 9.796 43.6077 9.712C43.8504 9.628 44.0837 9.502 44.3077 9.334C44.5317 9.166 44.7417 8.96067 44.9377 8.718L45.7357 9.698C45.437 10.118 45.0077 10.4633 44.4477 10.734C43.897 11.0047 43.323 11.14 42.7257 11.14ZM48.0059 11V1.774H49.4479V11H48.0059ZM46.4799 5.05V3.65H51.1559V5.05H46.4799ZM57.2569 13.268C56.4449 13.268 55.7123 13.142 55.0589 12.89C54.4149 12.6473 53.8643 12.2973 53.4069 11.84C52.9589 11.392 52.6136 10.8507 52.3709 10.216C52.1376 9.58133 52.0209 8.88133 52.0209 8.116C52.0209 7.024 52.2123 6.044 52.5949 5.176C52.9869 4.29867 53.5236 3.55667 54.2049 2.95C54.8956 2.334 55.6936 1.86733 56.5989 1.55C57.5136 1.22333 58.4889 1.06 59.5249 1.06C60.2716 1.06 60.9436 1.16733 61.5409 1.382C62.1383 1.58733 62.6516 1.886 63.0809 2.278C63.5103 2.67 63.8369 3.13667 64.0609 3.678C64.2943 4.21 64.4109 4.80267 64.4109 5.456C64.4109 6.09067 64.3176 6.69733 64.1309 7.276C63.9536 7.84533 63.7016 8.354 63.3749 8.802C63.0483 9.24067 62.6656 9.59067 62.2269 9.852C61.7976 10.104 61.3309 10.23 60.8269 10.23C60.5003 10.23 60.2109 10.174 59.9589 10.062C59.7163 9.94067 59.5249 9.77733 59.3849 9.572C59.2449 9.36667 59.1749 9.11933 59.1749 8.83C59.1749 8.69 59.1889 8.54067 59.2169 8.382C59.2543 8.22333 59.2823 8.06 59.3009 7.892L59.4969 8.172C59.3569 8.61067 59.1656 8.984 58.9229 9.292C58.6896 9.6 58.4143 9.83333 58.0969 9.992C57.7796 10.1507 57.4343 10.23 57.0609 10.23C56.6596 10.23 56.3003 10.1227 55.9829 9.908C55.6749 9.69333 55.4323 9.39467 55.2549 9.012C55.0776 8.62933 54.9889 8.186 54.9889 7.682C54.9889 7.24333 55.0683 6.8 55.2269 6.352C55.3856 5.904 55.6143 5.49333 55.9129 5.12C56.2116 4.74667 56.5663 4.44333 56.9769 4.21C57.3876 3.97667 57.8403 3.86 58.3349 3.86C58.6243 3.86 58.8809 3.93 59.1049 4.07C59.3383 4.21 59.5249 4.406 59.6649 4.658C59.8143 4.91 59.9029 5.204 59.9309 5.54L59.5949 6.366L59.9589 3.986H61.3729L60.6589 8.298C60.6309 8.47533 60.6403 8.62467 60.6869 8.746C60.7429 8.858 60.8223 8.942 60.9249 8.998C61.0276 9.054 61.1396 9.082 61.2609 9.082C61.5409 9.082 61.8023 8.98867 62.0449 8.802C62.2876 8.61533 62.4976 8.35867 62.6749 8.032C62.8523 7.696 62.9923 7.31333 63.0949 6.884C63.1976 6.45467 63.2489 6.002 63.2489 5.526C63.2489 4.826 63.0996 4.22867 62.8009 3.734C62.5023 3.23 62.0683 2.84733 61.4989 2.586C60.9389 2.31533 60.2623 2.18 59.4689 2.18C58.5169 2.18 57.6536 2.31533 56.8789 2.586C56.1043 2.84733 55.4416 3.23467 54.8909 3.748C54.3496 4.252 53.9296 4.868 53.6309 5.596C53.3416 6.324 53.1969 7.15 53.1969 8.074C53.1969 8.718 53.2856 9.292 53.4629 9.796C53.6496 10.2907 53.9156 10.7153 54.2609 11.07C54.6063 11.4247 55.0356 11.6907 55.5489 11.868C56.0623 12.0547 56.6456 12.148 57.2989 12.148C57.7376 12.148 58.1156 12.1153 58.4329 12.05C58.7503 11.994 59.0536 11.9007 59.3429 11.77C59.6323 11.6487 59.9543 11.4947 60.3089 11.308L60.8269 12.246C60.2763 12.526 59.8049 12.736 59.4129 12.876C59.0209 13.0253 58.6569 13.128 58.3209 13.184C57.9849 13.24 57.6303 13.268 57.2569 13.268ZM57.3829 9.04C57.7003 9.04 58.0036 8.942 58.2929 8.746C58.5916 8.54067 58.8436 8.284 59.0489 7.976C59.2636 7.65867 59.3943 7.332 59.4409 6.996C59.4689 6.828 59.4923 6.68333 59.5109 6.562C59.5296 6.44067 59.5389 6.324 59.5389 6.212C59.5389 5.96933 59.4923 5.764 59.3989 5.596C59.3056 5.41867 59.1703 5.28333 58.9929 5.19C58.8249 5.09667 58.6243 5.05 58.3909 5.05C58.0269 5.05 57.6956 5.18533 57.3969 5.456C57.0983 5.71733 56.8603 6.058 56.6829 6.478C56.5056 6.88867 56.4169 7.31333 56.4169 7.752C56.4169 8.15333 56.5009 8.47067 56.6689 8.704C56.8463 8.928 57.0843 9.04 57.3829 9.04ZM69.2668 14.22C68.7441 14.22 68.2214 14.136 67.6988 13.968C67.1854 13.8093 66.7701 13.5993 66.4528 13.338L66.9848 12.218C67.1714 12.358 67.3908 12.4793 67.6428 12.582C67.8948 12.694 68.1608 12.778 68.4408 12.834C68.7208 12.8993 68.9961 12.932 69.2668 12.932C69.7801 12.932 70.2094 12.848 70.5548 12.68C70.9001 12.512 71.1614 12.2647 71.3388 11.938C71.5161 11.6113 71.6048 11.2053 71.6048 10.72V9.306L71.7588 9.404C71.7121 9.69333 71.5581 9.97333 71.2968 10.244C71.0448 10.5053 70.7274 10.72 70.3448 10.888C69.9621 11.056 69.5701 11.14 69.1688 11.14C68.4688 11.14 67.8434 10.9767 67.2928 10.65C66.7514 10.314 66.3221 9.86133 66.0048 9.292C65.6874 8.71333 65.5288 8.05533 65.5288 7.318C65.5288 6.58067 65.6828 5.92733 65.9908 5.358C66.3081 4.77933 66.7374 4.32667 67.2788 4C67.8294 3.664 68.4454 3.496 69.1268 3.496C69.4068 3.496 69.6774 3.53333 69.9388 3.608C70.2001 3.67333 70.4428 3.77133 70.6668 3.902C70.8908 4.02333 71.0914 4.15867 71.2688 4.308C71.4461 4.45733 71.5908 4.616 71.7028 4.784C71.8148 4.952 71.8848 5.11067 71.9128 5.26L71.6048 5.372V3.65H73.0468V10.552C73.0468 11.14 72.9581 11.658 72.7808 12.106C72.6128 12.5633 72.3654 12.946 72.0387 13.254C71.7121 13.5713 71.3154 13.8093 70.8488 13.968C70.3821 14.136 69.8548 14.22 69.2668 14.22ZM69.3228 9.81C69.7801 9.81 70.1861 9.70267 70.5408 9.488C70.8954 9.27333 71.1708 8.97933 71.3668 8.606C71.5628 8.23267 71.6608 7.80333 71.6608 7.318C71.6608 6.83267 71.5581 6.40333 71.3528 6.03C71.1568 5.64733 70.8814 5.34867 70.5268 5.134C70.1814 4.91933 69.7801 4.812 69.3228 4.812C68.8748 4.812 68.4734 4.924 68.1188 5.148C67.7734 5.36267 67.4981 5.66133 67.2928 6.044C67.0968 6.41733 66.9988 6.842 66.9988 7.318C66.9988 7.794 67.0968 8.22333 67.2928 8.606C67.4981 8.97933 67.7734 9.27333 68.1188 9.488C68.4734 9.70267 68.8748 9.81 69.3228 9.81ZM75.0965 11V0.64H76.5385V11H75.0965ZM81.7495 11.14C81.0308 11.14 80.3868 10.9767 79.8175 10.65C79.2575 10.314 78.8142 9.86133 78.4875 9.292C78.1608 8.71333 77.9975 8.05533 77.9975 7.318C77.9975 6.58067 78.1608 5.92733 78.4875 5.358C78.8142 4.77933 79.2575 4.32667 79.8175 4C80.3868 3.664 81.0308 3.496 81.7495 3.496C82.4588 3.496 83.0935 3.664 83.6535 4C84.2228 4.32667 84.6708 4.77933 84.9975 5.358C85.3242 5.92733 85.4875 6.58067 85.4875 7.318C85.4875 8.05533 85.3242 8.71333 84.9975 9.292C84.6708 9.86133 84.2228 10.314 83.6535 10.65C83.0935 10.9767 82.4588 11.14 81.7495 11.14ZM81.7495 9.824C82.1882 9.824 82.5802 9.71667 82.9255 9.502C83.2708 9.278 83.5415 8.97933 83.7375 8.606C83.9335 8.22333 84.0268 7.794 84.0175 7.318C84.0268 6.83267 83.9335 6.40333 83.7375 6.03C83.5415 5.64733 83.2708 5.34867 82.9255 5.134C82.5802 4.91933 82.1882 4.812 81.7495 4.812C81.3108 4.812 80.9142 4.924 80.5595 5.148C80.2142 5.36267 79.9435 5.66133 79.7475 6.044C79.5515 6.41733 79.4582 6.842 79.4675 7.318C79.4582 7.794 79.5515 8.22333 79.7475 8.606C79.9435 8.97933 80.2142 9.278 80.5595 9.502C80.9142 9.71667 81.3108 9.824 81.7495 9.824ZM88.5913 11L86.0853 3.65L87.5413 3.636L89.3333 9.138L89.0113 9.11L90.9573 4.812H91.8253L93.7853 9.124L93.4073 9.152L95.2133 3.65H96.6693L94.1913 11H93.1973L91.1533 6.324L91.4753 6.366L89.5713 11H88.5913ZM98.2206 11V3.65H99.6626V11H98.2206ZM98.9206 2.026C98.6126 2.026 98.3746 1.94667 98.2066 1.788C98.0386 1.62933 97.9546 1.40533 97.9546 1.116C97.9546 0.845333 98.0386 0.626 98.2066 0.458C98.3839 0.29 98.6219 0.206 98.9206 0.206C99.2286 0.206 99.4666 0.285333 99.6346 0.444C99.8026 0.602666 99.8866 0.826666 99.8866 1.116C99.8866 1.38667 99.7979 1.606 99.6206 1.774C99.4526 1.942 99.2193 2.026 98.9206 2.026ZM101.879 11V3.65H103.321V5.162L103.069 5.33C103.162 5.00333 103.344 4.70467 103.615 4.434C103.886 4.154 104.208 3.93 104.581 3.762C104.954 3.58467 105.337 3.496 105.729 3.496C106.289 3.496 106.756 3.608 107.129 3.832C107.502 4.04667 107.782 4.378 107.969 4.826C108.156 5.274 108.249 5.83867 108.249 6.52V11H106.807V6.618C106.807 6.198 106.751 5.85267 106.639 5.582C106.527 5.302 106.354 5.10133 106.121 4.98C105.888 4.84933 105.598 4.79333 105.253 4.812C104.973 4.812 104.716 4.85867 104.483 4.952C104.25 5.036 104.044 5.15733 103.867 5.316C103.699 5.47467 103.564 5.66133 103.461 5.876C103.368 6.08133 103.321 6.30533 103.321 6.548V11H102.607C102.486 11 102.364 11 102.243 11C102.122 11 102 11 101.879 11ZM113.495 14.22C112.973 14.22 112.45 14.136 111.927 13.968C111.414 13.8093 110.999 13.5993 110.681 13.338L111.213 12.218C111.4 12.358 111.619 12.4793 111.871 12.582C112.123 12.694 112.389 12.778 112.669 12.834C112.949 12.8993 113.225 12.932 113.495 12.932C114.009 12.932 114.438 12.848 114.783 12.68C115.129 12.512 115.39 12.2647 115.567 11.938C115.745 11.6113 115.833 11.2053 115.833 10.72V9.306L115.987 9.404C115.941 9.69333 115.787 9.97333 115.525 10.244C115.273 10.5053 114.956 10.72 114.573 10.888C114.191 11.056 113.799 11.14 113.397 11.14C112.697 11.14 112.072 10.9767 111.521 10.65C110.98 10.314 110.551 9.86133 110.233 9.292C109.916 8.71333 109.757 8.05533 109.757 7.318C109.757 6.58067 109.911 5.92733 110.219 5.358C110.537 4.77933 110.966 4.32667 111.507 4C112.058 3.664 112.674 3.496 113.355 3.496C113.635 3.496 113.906 3.53333 114.167 3.608C114.429 3.67333 114.671 3.77133 114.895 3.902C115.119 4.02333 115.32 4.15867 115.497 4.308C115.675 4.45733 115.819 4.616 115.931 4.784C116.043 4.952 116.113 5.11067 116.141 5.26L115.833 5.372V3.65H117.275V10.552C117.275 11.14 117.187 11.658 117.009 12.106C116.841 12.5633 116.594 12.946 116.267 13.254C115.941 13.5713 115.544 13.8093 115.077 13.968C114.611 14.136 114.083 14.22 113.495 14.22ZM113.551 9.81C114.009 9.81 114.415 9.70267 114.769 9.488C115.124 9.27333 115.399 8.97933 115.595 8.606C115.791 8.23267 115.889 7.80333 115.889 7.318C115.889 6.83267 115.787 6.40333 115.581 6.03C115.385 5.64733 115.11 5.34867 114.755 5.134C114.41 4.91933 114.009 4.812 113.551 4.812C113.103 4.812 112.702 4.924 112.347 5.148C112.002 5.36267 111.727 5.66133 111.521 6.044C111.325 6.41733 111.227 6.842 111.227 7.318C111.227 7.794 111.325 8.22333 111.521 8.606C111.727 8.97933 112.002 9.27333 112.347 9.488C112.702 9.70267 113.103 9.81 113.551 9.81ZM120.613 8.704L120.543 7.136L124.057 3.65H126.003L120.613 8.704ZM119.297 11V0.64H120.739V11H119.297ZM124.253 11L121.481 7.766L122.503 6.828L126.101 11H124.253ZM127.492 11V3.65H128.934V11H127.492ZM128.192 2.026C127.884 2.026 127.646 1.94667 127.478 1.788C127.31 1.62933 127.226 1.40533 127.226 1.116C127.226 0.845333 127.31 0.626 127.478 0.458C127.655 0.29 127.893 0.206 128.192 0.206C128.5 0.206 128.738 0.285333 128.906 0.444C129.074 0.602666 129.158 0.826666 129.158 1.116C129.158 1.38667 129.069 1.606 128.892 1.774C128.724 1.942 128.491 2.026 128.192 2.026ZM132.061 11V1.774H133.503V11H132.061ZM130.535 5.05V3.65H135.211V5.05H130.535ZM137.434 11V1.774H138.876V11H137.434ZM135.908 5.05V3.65H140.584V5.05H135.908ZM143.129 14.22L144.613 10.79L144.627 11.938L140.959 3.65H142.639L144.935 9.054C144.981 9.14733 145.037 9.292 145.103 9.488C145.168 9.67467 145.224 9.86133 145.271 10.048L144.907 10.132C144.981 9.936 145.051 9.74 145.117 9.544C145.191 9.348 145.261 9.152 145.327 8.956L147.245 3.65H148.953L145.929 11L144.683 14.22H143.129ZM150.059 11.154C149.751 11.154 149.513 11.0653 149.345 10.888C149.177 10.7013 149.093 10.44 149.093 10.104C149.093 9.796 149.182 9.544 149.359 9.348C149.536 9.152 149.77 9.054 150.059 9.054C150.367 9.054 150.605 9.14733 150.773 9.334C150.941 9.51133 151.025 9.768 151.025 10.104C151.025 10.412 150.936 10.664 150.759 10.86C150.582 11.056 150.348 11.154 150.059 11.154ZM152.628 11V3.65H154.084V5.218L153.818 5.386C153.893 5.14333 154.01 4.91 154.168 4.686C154.336 4.462 154.537 4.266 154.77 4.098C155.013 3.92067 155.27 3.78067 155.54 3.678C155.82 3.57533 156.105 3.524 156.394 3.524C156.814 3.524 157.183 3.594 157.5 3.734C157.818 3.874 158.079 4.084 158.284 4.364C158.49 4.644 158.639 4.994 158.732 5.414L158.508 5.358L158.606 5.12C158.709 4.90533 158.849 4.70467 159.026 4.518C159.213 4.322 159.423 4.14933 159.656 4C159.89 3.85067 160.137 3.734 160.398 3.65C160.66 3.566 160.916 3.524 161.168 3.524C161.719 3.524 162.172 3.636 162.526 3.86C162.89 4.084 163.161 4.42467 163.338 4.882C163.525 5.33933 163.618 5.90867 163.618 6.59V11H162.162V6.674C162.162 6.254 162.106 5.91333 161.994 5.652C161.892 5.38133 161.733 5.18067 161.518 5.05C161.304 4.91933 161.028 4.854 160.692 4.854C160.431 4.854 160.184 4.90067 159.95 4.994C159.726 5.078 159.53 5.19933 159.362 5.358C159.194 5.51667 159.064 5.70333 158.97 5.918C158.877 6.12333 158.83 6.352 158.83 6.604V11H157.374V6.646C157.374 6.26333 157.318 5.94133 157.206 5.68C157.094 5.40933 156.931 5.204 156.716 5.064C156.502 4.924 156.24 4.854 155.932 4.854C155.671 4.854 155.428 4.90067 155.204 4.994C154.98 5.078 154.784 5.19933 154.616 5.358C154.448 5.50733 154.318 5.68933 154.224 5.904C154.131 6.10933 154.084 6.33333 154.084 6.576V11H152.628ZM168.979 11.14C168.223 11.14 167.551 10.9813 166.963 10.664C166.384 10.3373 165.927 9.894 165.591 9.334C165.264 8.774 165.101 8.13 165.101 7.402C165.101 6.82333 165.194 6.296 165.381 5.82C165.568 5.344 165.824 4.93333 166.151 4.588C166.487 4.23333 166.884 3.96267 167.341 3.776C167.808 3.58 168.312 3.482 168.853 3.482C169.329 3.482 169.772 3.57533 170.183 3.762C170.594 3.93933 170.948 4.18667 171.247 4.504C171.555 4.82133 171.788 5.19933 171.947 5.638C172.115 6.06733 172.194 6.53867 172.185 7.052L172.171 7.668H166.165L165.843 6.52H170.925L170.715 6.758V6.422C170.687 6.114 170.584 5.83867 170.407 5.596C170.23 5.35333 170.006 5.162 169.735 5.022C169.464 4.882 169.17 4.812 168.853 4.812C168.349 4.812 167.924 4.91 167.579 5.106C167.234 5.29267 166.972 5.57267 166.795 5.946C166.618 6.31 166.529 6.76267 166.529 7.304C166.529 7.81733 166.636 8.26533 166.851 8.648C167.066 9.02133 167.369 9.31067 167.761 9.516C168.153 9.72133 168.606 9.824 169.119 9.824C169.483 9.824 169.819 9.76333 170.127 9.642C170.444 9.52067 170.785 9.30133 171.149 8.984L171.877 10.006C171.653 10.23 171.378 10.426 171.051 10.594C170.734 10.762 170.393 10.8973 170.029 11C169.674 11.0933 169.324 11.14 168.979 11.14Z" fill="black"/>
</svg>
