<svg width="98" height="69" viewBox="0 0 98 69" fill="none" xmlns="http://www.w3.org/2000/svg">
<path d="M1.372 11V1.2H2.856L6.426 7.01L5.712 6.996L9.324 1.2H10.724V11H9.212V6.982C9.212 6.142 9.23067 5.386 9.268 4.714C9.31467 4.042 9.38933 3.37467 9.492 2.712L9.688 3.23L6.482 8.186H5.558L2.45 3.286L2.604 2.712C2.70667 3.33733 2.77667 3.98133 2.814 4.644C2.86067 5.29733 2.884 6.07667 2.884 6.982V11H1.372ZM15.9356 11.14C15.3289 11.14 14.7736 10.972 14.2696 10.636C13.7749 10.3 13.3783 9.84267 13.0796 9.264C12.7809 8.68533 12.6316 8.032 12.6316 7.304C12.6316 6.56667 12.7809 5.91333 13.0796 5.344C13.3876 4.76533 13.7983 4.31267 14.3116 3.986C14.8343 3.65933 15.4176 3.496 16.0616 3.496C16.4443 3.496 16.7943 3.552 17.1116 3.664C17.4289 3.776 17.7043 3.93467 17.9376 4.14C18.1803 4.336 18.3763 4.56467 18.5256 4.826C18.6843 5.08733 18.7823 5.36733 18.8196 5.666L18.4976 5.554V3.65H19.9536V11H18.4976V9.25L18.8336 9.152C18.7776 9.404 18.6609 9.65133 18.4836 9.894C18.3156 10.1273 18.0963 10.3373 17.8256 10.524C17.5643 10.7107 17.2703 10.86 16.9436 10.972C16.6263 11.084 16.2903 11.14 15.9356 11.14ZM16.3136 9.81C16.7523 9.81 17.1396 9.70267 17.4756 9.488C17.8116 9.27333 18.0729 8.97933 18.2596 8.606C18.4556 8.22333 18.5536 7.78933 18.5536 7.304C18.5536 6.828 18.4556 6.40333 18.2596 6.03C18.0729 5.65667 17.8116 5.36267 17.4756 5.148C17.1396 4.93333 16.7523 4.826 16.3136 4.826C15.8843 4.826 15.5016 4.93333 15.1656 5.148C14.8389 5.36267 14.5776 5.65667 14.3816 6.03C14.1949 6.40333 14.1016 6.828 14.1016 7.304C14.1016 7.78933 14.1949 8.22333 14.3816 8.606C14.5776 8.97933 14.8389 9.27333 15.1656 9.488C15.5016 9.70267 15.8843 9.81 16.3136 9.81ZM21.967 11V3.65H23.423V5.96L23.283 5.4C23.3857 5.04533 23.5583 4.72333 23.801 4.434C24.053 4.14467 24.3377 3.916 24.655 3.748C24.9817 3.58 25.3177 3.496 25.663 3.496C25.8217 3.496 25.971 3.51 26.111 3.538C26.2603 3.566 26.377 3.59867 26.461 3.636L26.083 5.204C25.971 5.15733 25.845 5.12 25.705 5.092C25.5743 5.05467 25.4437 5.036 25.313 5.036C25.061 5.036 24.8183 5.08733 24.585 5.19C24.361 5.28333 24.1603 5.41867 23.983 5.596C23.815 5.764 23.6797 5.96467 23.577 6.198C23.4743 6.422 23.423 6.66933 23.423 6.94V11H21.967ZM30.421 11.14C29.7397 11.14 29.1283 10.972 28.587 10.636C28.055 10.3 27.6303 9.84267 27.313 9.264C27.005 8.68533 26.851 8.03667 26.851 7.318C26.851 6.59933 27.005 5.95067 27.313 5.372C27.6303 4.79333 28.055 4.336 28.587 4C29.1283 3.664 29.7397 3.496 30.421 3.496C31.0743 3.496 31.667 3.63133 32.199 3.902C32.7403 4.16333 33.151 4.52267 33.431 4.98L32.633 5.96C32.4837 5.74533 32.2923 5.54933 32.059 5.372C31.8257 5.19467 31.5783 5.05467 31.317 4.952C31.0557 4.84933 30.8037 4.798 30.561 4.798C30.113 4.798 29.7117 4.91 29.357 5.134C29.0117 5.34867 28.7363 5.64733 28.531 6.03C28.3257 6.41267 28.223 6.842 28.223 7.318C28.223 7.794 28.3303 8.22333 28.545 8.606C28.7597 8.97933 29.0443 9.278 29.399 9.502C29.7537 9.726 30.1457 9.838 30.575 9.838C30.827 9.838 31.0697 9.796 31.303 9.712C31.5457 9.628 31.779 9.502 32.003 9.334C32.227 9.166 32.437 8.96067 32.633 8.718L33.431 9.698C33.1323 10.118 32.703 10.4633 32.143 10.734C31.5923 11.0047 31.0183 11.14 30.421 11.14ZM38.0952 11.14C37.3765 11.14 36.7325 10.9767 36.1632 10.65C35.6032 10.314 35.1599 9.86133 34.8332 9.292C34.5065 8.71333 34.3432 8.05533 34.3432 7.318C34.3432 6.58067 34.5065 5.92733 34.8332 5.358C35.1599 4.77933 35.6032 4.32667 36.1632 4C36.7325 3.664 37.3765 3.496 38.0952 3.496C38.8045 3.496 39.4392 3.664 39.9992 4C40.5685 4.32667 41.0165 4.77933 41.3432 5.358C41.6699 5.92733 41.8332 6.58067 41.8332 7.318C41.8332 8.05533 41.6699 8.71333 41.3432 9.292C41.0165 9.86133 40.5685 10.314 39.9992 10.65C39.4392 10.9767 38.8045 11.14 38.0952 11.14ZM38.0952 9.824C38.5339 9.824 38.9259 9.71667 39.2712 9.502C39.6165 9.278 39.8872 8.97933 40.0832 8.606C40.2792 8.22333 40.3725 7.794 40.3632 7.318C40.3725 6.83267 40.2792 6.40333 40.0832 6.03C39.8872 5.64733 39.6165 5.34867 39.2712 5.134C38.9259 4.91933 38.5339 4.812 38.0952 4.812C37.6565 4.812 37.2599 4.924 36.9052 5.148C36.5599 5.36267 36.2892 5.66133 36.0932 6.044C35.8972 6.41733 35.8039 6.842 35.8132 7.318C35.8039 7.794 35.8972 8.22333 36.0932 8.606C36.2892 8.97933 36.5599 9.278 36.9052 9.502C37.2599 9.71667 37.6565 9.824 38.0952 9.824ZM47.6923 11V1.2H51.7803C52.4056 1.2 52.933 1.29333 53.3623 1.48C53.7916 1.66667 54.1136 1.94667 54.3283 2.32C54.5523 2.684 54.6643 3.132 54.6643 3.664C54.6643 4.196 54.515 4.64867 54.2163 5.022C53.927 5.39533 53.521 5.652 52.9983 5.792V5.512C53.437 5.60533 53.8196 5.77333 54.1463 6.016C54.473 6.24933 54.725 6.54333 54.9023 6.898C55.089 7.25267 55.1823 7.65867 55.1823 8.116C55.1823 8.58267 55.1076 8.998 54.9583 9.362C54.8183 9.71667 54.6036 10.0153 54.3143 10.258C54.0343 10.5007 53.6936 10.6873 53.2923 10.818C52.891 10.9393 52.4336 11 51.9203 11H47.6923ZM49.2043 9.544H51.8363C52.219 9.544 52.541 9.488 52.8023 9.376C53.073 9.264 53.2783 9.10067 53.4183 8.886C53.5676 8.662 53.6423 8.396 53.6423 8.088C53.6423 7.79867 53.563 7.55133 53.4043 7.346C53.255 7.14067 53.0403 6.98667 52.7603 6.884C52.4803 6.772 52.149 6.716 51.7663 6.716H49.2043V9.544ZM49.2043 5.26H51.6963C51.9763 5.26 52.2236 5.204 52.4383 5.092C52.6623 4.98 52.835 4.826 52.9563 4.63C53.087 4.434 53.1523 4.21 53.1523 3.958C53.1523 3.538 53.0123 3.216 52.7323 2.992C52.4523 2.768 52.051 2.656 51.5283 2.656H49.2043V5.26ZM59.6719 11.14C59.0653 11.14 58.5099 10.972 58.0059 10.636C57.5113 10.3 57.1146 9.84267 56.8159 9.264C56.5173 8.68533 56.3679 8.032 56.3679 7.304C56.3679 6.56667 56.5173 5.91333 56.8159 5.344C57.1239 4.76533 57.5346 4.31267 58.0479 3.986C58.5706 3.65933 59.1539 3.496 59.7979 3.496C60.1806 3.496 60.5306 3.552 60.8479 3.664C61.1653 3.776 61.4406 3.93467 61.6739 4.14C61.9166 4.336 62.1126 4.56467 62.2619 4.826C62.4206 5.08733 62.5186 5.36733 62.5559 5.666L62.2339 5.554V3.65H63.6899V11H62.2339V9.25L62.5699 9.152C62.5139 9.404 62.3973 9.65133 62.2199 9.894C62.0519 10.1273 61.8326 10.3373 61.5619 10.524C61.3006 10.7107 61.0066 10.86 60.6799 10.972C60.3626 11.084 60.0266 11.14 59.6719 11.14ZM60.0499 9.81C60.4886 9.81 60.8759 9.70267 61.2119 9.488C61.5479 9.27333 61.8093 8.97933 61.9959 8.606C62.1919 8.22333 62.2899 7.78933 62.2899 7.304C62.2899 6.828 62.1919 6.40333 61.9959 6.03C61.8093 5.65667 61.5479 5.36267 61.2119 5.148C60.8759 4.93333 60.4886 4.826 60.0499 4.826C59.6206 4.826 59.2379 4.93333 58.9019 5.148C58.5753 5.36267 58.3139 5.65667 58.1179 6.03C57.9313 6.40333 57.8379 6.828 57.8379 7.304C57.8379 7.78933 57.9313 8.22333 58.1179 8.606C58.3139 8.97933 58.5753 9.27333 58.9019 9.488C59.2379 9.70267 59.6206 9.81 60.0499 9.81ZM65.7033 11V3.65H67.1593V5.96L67.0193 5.4C67.122 5.04533 67.2946 4.72333 67.5373 4.434C67.7893 4.14467 68.074 3.916 68.3913 3.748C68.718 3.58 69.054 3.496 69.3993 3.496C69.558 3.496 69.7073 3.51 69.8473 3.538C69.9966 3.566 70.1133 3.59867 70.1973 3.636L69.8193 5.204C69.7073 5.15733 69.5813 5.12 69.4413 5.092C69.3106 5.05467 69.18 5.036 69.0493 5.036C68.7973 5.036 68.5546 5.08733 68.3213 5.19C68.0973 5.28333 67.8966 5.41867 67.7193 5.596C67.5513 5.764 67.416 5.96467 67.3133 6.198C67.2106 6.422 67.1593 6.66933 67.1593 6.94V11H65.7033ZM72.5332 11V1.774H73.9752V11H72.5332ZM71.0072 5.05V3.65H75.6832V5.05H71.0072ZM79.7197 11.14C79.1037 11.14 78.5484 11.0327 78.0537 10.818C77.5591 10.6033 77.1484 10.286 76.8217 9.866L77.8017 9.026C78.0817 9.35267 78.3851 9.59067 78.7117 9.74C79.0477 9.88 79.4257 9.95 79.8457 9.95C80.0137 9.95 80.1677 9.93133 80.3077 9.894C80.4571 9.84733 80.5831 9.782 80.6857 9.698C80.7977 9.614 80.8817 9.516 80.9377 9.404C80.9937 9.28267 81.0217 9.152 81.0217 9.012C81.0217 8.76933 80.9331 8.57333 80.7557 8.424C80.6624 8.35867 80.5131 8.28867 80.3077 8.214C80.1117 8.13 79.8551 8.046 79.5377 7.962C78.9964 7.822 78.5531 7.66333 78.2077 7.486C77.8624 7.30867 77.5964 7.108 77.4097 6.884C77.2697 6.70667 77.1671 6.51533 77.1017 6.31C77.0364 6.09533 77.0037 5.862 77.0037 5.61C77.0037 5.302 77.0691 5.022 77.1997 4.77C77.3397 4.50867 77.5264 4.28467 77.7597 4.098C78.0024 3.902 78.2824 3.75267 78.5997 3.65C78.9264 3.54733 79.2717 3.496 79.6357 3.496C79.9811 3.496 80.3217 3.54267 80.6577 3.636C81.0031 3.72933 81.3204 3.86467 81.6097 4.042C81.8991 4.21933 82.1417 4.42933 82.3377 4.672L81.5117 5.582C81.3344 5.40467 81.1384 5.25067 80.9237 5.12C80.7184 4.98 80.5084 4.87267 80.2937 4.798C80.0791 4.72333 79.8831 4.686 79.7057 4.686C79.5097 4.686 79.3324 4.70467 79.1737 4.742C79.0151 4.77933 78.8797 4.83533 78.7677 4.91C78.6651 4.98467 78.5857 5.078 78.5297 5.19C78.4737 5.302 78.4457 5.428 78.4457 5.568C78.4551 5.68933 78.4831 5.806 78.5297 5.918C78.5857 6.02067 78.6604 6.10933 78.7537 6.184C78.8564 6.25867 79.0104 6.338 79.2157 6.422C79.4211 6.506 79.6824 6.58533 79.9997 6.66C80.4664 6.78133 80.8491 6.91667 81.1477 7.066C81.4557 7.206 81.6984 7.36933 81.8757 7.556C82.0624 7.73333 82.1931 7.93867 82.2677 8.172C82.3424 8.40533 82.3797 8.66667 82.3797 8.956C82.3797 9.376 82.2584 9.754 82.0157 10.09C81.7824 10.4167 81.4651 10.6733 81.0637 10.86C80.6624 11.0467 80.2144 11.14 79.7197 11.14ZM87.0909 11.14C86.4096 11.14 85.7983 10.972 85.2569 10.636C84.7249 10.3 84.3003 9.84267 83.9829 9.264C83.6749 8.68533 83.5209 8.03667 83.5209 7.318C83.5209 6.59933 83.6749 5.95067 83.9829 5.372C84.3003 4.79333 84.7249 4.336 85.2569 4C85.7983 3.664 86.4096 3.496 87.0909 3.496C87.7443 3.496 88.3369 3.63133 88.8689 3.902C89.4103 4.16333 89.8209 4.52267 90.1009 4.98L89.3029 5.96C89.1536 5.74533 88.9623 5.54933 88.7289 5.372C88.4956 5.19467 88.2483 5.05467 87.9869 4.952C87.7256 4.84933 87.4736 4.798 87.2309 4.798C86.7829 4.798 86.3816 4.91 86.0269 5.134C85.6816 5.34867 85.4063 5.64733 85.2009 6.03C84.9956 6.41267 84.8929 6.842 84.8929 7.318C84.8929 7.794 85.0003 8.22333 85.2149 8.606C85.4296 8.97933 85.7143 9.278 86.0689 9.502C86.4236 9.726 86.8156 9.838 87.2449 9.838C87.4969 9.838 87.7396 9.796 87.9729 9.712C88.2156 9.628 88.4489 9.502 88.6729 9.334C88.8969 9.166 89.1069 8.96067 89.3029 8.718L90.1009 9.698C89.8023 10.118 89.3729 10.4633 88.8129 10.734C88.2623 11.0047 87.6883 11.14 87.0909 11.14ZM91.4611 11V0.64H92.9031V5.162L92.6511 5.33C92.7445 5.00333 92.9265 4.70467 93.1971 4.434C93.4678 4.154 93.7898 3.93 94.1631 3.762C94.5365 3.58467 94.9191 3.496 95.3111 3.496C95.8711 3.496 96.3378 3.608 96.7111 3.832C97.0845 4.04667 97.3645 4.378 97.5511 4.826C97.7378 5.274 97.8311 5.83867 97.8311 6.52V11H96.3891V6.618C96.3891 6.198 96.3331 5.85267 96.2211 5.582C96.1091 5.302 95.9365 5.10133 95.7031 4.98C95.4698 4.84933 95.1805 4.79333 94.8351 4.812C94.5551 4.812 94.2985 4.85867 94.0651 4.952C93.8318 5.036 93.6265 5.15733 93.4491 5.316C93.2811 5.47467 93.1458 5.66133 93.0431 5.876C92.9498 6.08133 92.9031 6.30533 92.9031 6.548V11H92.1891C92.0678 11 91.9465 11 91.8251 11C91.7038 11 91.5825 11 91.4611 11ZM4.396 29.14C3.864 29.14 3.36933 29.07 2.912 28.93C2.464 28.79 2.05333 28.58 1.68 28.3C1.316 28.0107 0.989333 27.656 0.7 27.236L1.736 26.046C2.19333 26.6993 2.632 27.152 3.052 27.404C3.472 27.656 3.97133 27.782 4.55 27.782C4.90467 27.782 5.22667 27.726 5.516 27.614C5.80533 27.502 6.034 27.348 6.202 27.152C6.37 26.956 6.454 26.732 6.454 26.48C6.454 26.312 6.426 26.1533 6.37 26.004C6.314 25.8547 6.22533 25.7193 6.104 25.598C5.992 25.4767 5.84267 25.3647 5.656 25.262C5.47867 25.1593 5.26867 25.0707 5.026 24.996C4.78333 24.912 4.50333 24.842 4.186 24.786C3.682 24.6833 3.24333 24.548 2.87 24.38C2.49667 24.212 2.184 24.002 1.932 23.75C1.68 23.498 1.49333 23.2133 1.372 22.896C1.25067 22.5693 1.19 22.2053 1.19 21.804C1.19 21.412 1.274 21.048 1.442 20.712C1.61933 20.376 1.85733 20.0867 2.156 19.844C2.464 19.592 2.82333 19.4007 3.234 19.27C3.64467 19.13 4.088 19.06 4.564 19.06C5.068 19.06 5.53 19.1253 5.95 19.256C6.37 19.3867 6.74333 19.5827 7.07 19.844C7.39667 20.096 7.66733 20.4087 7.882 20.782L6.818 21.832C6.63133 21.524 6.42133 21.2673 6.188 21.062C5.95467 20.8473 5.698 20.6887 5.418 20.586C5.138 20.474 4.83933 20.418 4.522 20.418C4.158 20.418 3.84067 20.474 3.57 20.586C3.29933 20.698 3.08467 20.8567 2.926 21.062C2.77667 21.258 2.702 21.4913 2.702 21.762C2.702 21.958 2.73933 22.14 2.814 22.308C2.88867 22.4667 3.00067 22.6113 3.15 22.742C3.30867 22.8633 3.51867 22.9753 3.78 23.078C4.04133 23.1713 4.354 23.2553 4.718 23.33C5.23133 23.442 5.68867 23.5867 6.09 23.764C6.49133 23.932 6.832 24.1327 7.112 24.366C7.392 24.5993 7.602 24.8607 7.742 25.15C7.89133 25.4393 7.966 25.752 7.966 26.088C7.966 26.7133 7.82133 27.2547 7.532 27.712C7.24267 28.1693 6.832 28.524 6.3 28.776C5.768 29.0187 5.13333 29.14 4.396 29.14ZM13.0483 29.14C12.3297 29.14 11.6857 28.9767 11.1163 28.65C10.5563 28.314 10.113 27.8613 9.78633 27.292C9.45966 26.7133 9.29633 26.0553 9.29633 25.318C9.29633 24.5807 9.45966 23.9273 9.78633 23.358C10.113 22.7793 10.5563 22.3267 11.1163 22C11.6857 21.664 12.3297 21.496 13.0483 21.496C13.7577 21.496 14.3923 21.664 14.9523 22C15.5217 22.3267 15.9697 22.7793 16.2963 23.358C16.623 23.9273 16.7863 24.5807 16.7863 25.318C16.7863 26.0553 16.623 26.7133 16.2963 27.292C15.9697 27.8613 15.5217 28.314 14.9523 28.65C14.3923 28.9767 13.7577 29.14 13.0483 29.14ZM13.0483 27.824C13.487 27.824 13.879 27.7167 14.2243 27.502C14.5697 27.278 14.8403 26.9793 15.0363 26.606C15.2323 26.2233 15.3257 25.794 15.3163 25.318C15.3257 24.8327 15.2323 24.4033 15.0363 24.03C14.8403 23.6473 14.5697 23.3487 14.2243 23.134C13.879 22.9193 13.487 22.812 13.0483 22.812C12.6097 22.812 12.213 22.924 11.8583 23.148C11.513 23.3627 11.2423 23.6613 11.0463 24.044C10.8503 24.4173 10.757 24.842 10.7663 25.318C10.757 25.794 10.8503 26.2233 11.0463 26.606C11.2423 26.9793 11.513 27.278 11.8583 27.502C12.213 27.7167 12.6097 27.824 13.0483 27.824ZM18.3576 29V21.65H19.8136V23.96L19.6736 23.4C19.7763 23.0453 19.9489 22.7233 20.1916 22.434C20.4436 22.1447 20.7283 21.916 21.0456 21.748C21.3723 21.58 21.7083 21.496 22.0536 21.496C22.2123 21.496 22.3616 21.51 22.5016 21.538C22.6509 21.566 22.7676 21.5987 22.8516 21.636L22.4736 23.204C22.3616 23.1573 22.2356 23.12 22.0956 23.092C21.9649 23.0547 21.8343 23.036 21.7036 23.036C21.4516 23.036 21.2089 23.0873 20.9756 23.19C20.7516 23.2833 20.5509 23.4187 20.3736 23.596C20.2056 23.764 20.0703 23.9647 19.9676 24.198C19.8649 24.422 19.8136 24.6693 19.8136 24.94V29H18.3576ZM26.5176 29.14C25.911 29.14 25.3556 28.972 24.8516 28.636C24.357 28.3 23.9603 27.8427 23.6616 27.264C23.363 26.6853 23.2136 26.032 23.2136 25.304C23.2136 24.5667 23.363 23.9133 23.6616 23.344C23.9696 22.7653 24.3803 22.3127 24.8936 21.986C25.4163 21.6593 25.9996 21.496 26.6436 21.496C27.0263 21.496 27.3763 21.552 27.6936 21.664C28.011 21.776 28.2863 21.9347 28.5196 22.14C28.7623 22.336 28.9583 22.5647 29.1076 22.826C29.2663 23.0873 29.3643 23.3673 29.4016 23.666L29.0796 23.554V21.65H30.5356V29H29.0796V27.25L29.4156 27.152C29.3596 27.404 29.243 27.6513 29.0656 27.894C28.8976 28.1273 28.6783 28.3373 28.4076 28.524C28.1463 28.7107 27.8523 28.86 27.5256 28.972C27.2083 29.084 26.8723 29.14 26.5176 29.14ZM26.8956 27.81C27.3343 27.81 27.7216 27.7027 28.0576 27.488C28.3936 27.2733 28.655 26.9793 28.8416 26.606C29.0376 26.2233 29.1356 25.7893 29.1356 25.304C29.1356 24.828 29.0376 24.4033 28.8416 24.03C28.655 23.6567 28.3936 23.3627 28.0576 23.148C27.7216 22.9333 27.3343 22.826 26.8956 22.826C26.4663 22.826 26.0836 22.9333 25.7476 23.148C25.421 23.3627 25.1596 23.6567 24.9636 24.03C24.777 24.4033 24.6836 24.828 24.6836 25.304C24.6836 25.7893 24.777 26.2233 24.9636 26.606C25.1596 26.9793 25.421 27.2733 25.7476 27.488C26.0836 27.7027 26.4663 27.81 26.8956 27.81ZM34.9883 29.14C34.4656 29.14 34.0083 29.0187 33.6163 28.776C33.2336 28.5333 32.935 28.1927 32.7203 27.754C32.515 27.3153 32.4123 26.7927 32.4123 26.186V21.65H33.8543V25.794C33.8543 26.2233 33.9196 26.5967 34.0503 26.914C34.1903 27.222 34.3863 27.46 34.6383 27.628C34.8996 27.796 35.2123 27.88 35.5763 27.88C35.847 27.88 36.0943 27.838 36.3183 27.754C36.5423 27.6607 36.7336 27.5347 36.8923 27.376C37.0603 27.2173 37.191 27.026 37.2843 26.802C37.3776 26.578 37.4243 26.3353 37.4243 26.074V21.65H38.8663V29H37.4243V27.46L37.6763 27.292C37.5643 27.6373 37.373 27.95 37.1023 28.23C36.841 28.51 36.5283 28.734 36.1643 28.902C35.8003 29.0607 35.4083 29.14 34.9883 29.14ZM44.3189 29.14C43.5629 29.14 42.8909 28.9813 42.3029 28.664C41.7242 28.3373 41.2669 27.894 40.9309 27.334C40.6042 26.774 40.4409 26.13 40.4409 25.402C40.4409 24.8233 40.5342 24.296 40.7209 23.82C40.9075 23.344 41.1642 22.9333 41.4909 22.588C41.8269 22.2333 42.2235 21.9627 42.6809 21.776C43.1475 21.58 43.6515 21.482 44.1929 21.482C44.6689 21.482 45.1122 21.5753 45.5229 21.762C45.9335 21.9393 46.2882 22.1867 46.5869 22.504C46.8949 22.8213 47.1282 23.1993 47.2869 23.638C47.4549 24.0673 47.5342 24.5387 47.5249 25.052L47.5109 25.668H41.5049L41.1829 24.52H46.2649L46.0549 24.758V24.422C46.0269 24.114 45.9242 23.8387 45.7469 23.596C45.5695 23.3533 45.3455 23.162 45.0749 23.022C44.8042 22.882 44.5102 22.812 44.1929 22.812C43.6889 22.812 43.2642 22.91 42.9189 23.106C42.5735 23.2927 42.3122 23.5727 42.1349 23.946C41.9575 24.31 41.8689 24.7627 41.8689 25.304C41.8689 25.8173 41.9762 26.2653 42.1909 26.648C42.4055 27.0213 42.7089 27.3107 43.1009 27.516C43.4929 27.7213 43.9455 27.824 44.4589 27.824C44.8229 27.824 45.1589 27.7633 45.4669 27.642C45.7842 27.5207 46.1249 27.3013 46.4889 26.984L47.2169 28.006C46.9929 28.23 46.7175 28.426 46.3909 28.594C46.0735 28.762 45.7329 28.8973 45.3689 29C45.0142 29.0933 44.6642 29.14 44.3189 29.14ZM49.092 29V21.65H50.548V23.96L50.408 23.4C50.5107 23.0453 50.6833 22.7233 50.926 22.434C51.178 22.1447 51.4627 21.916 51.78 21.748C52.1067 21.58 52.4427 21.496 52.788 21.496C52.9467 21.496 53.096 21.51 53.236 21.538C53.3853 21.566 53.502 21.5987 53.586 21.636L53.208 23.204C53.096 23.1573 52.97 23.12 52.83 23.092C52.6993 23.0547 52.5687 23.036 52.438 23.036C52.186 23.036 51.9433 23.0873 51.71 23.19C51.486 23.2833 51.2853 23.4187 51.108 23.596C50.94 23.764 50.8047 23.9647 50.702 24.198C50.5993 24.422 50.548 24.6693 50.548 24.94V29H49.092ZM62.0503 29.14C61.5183 29.14 61.0236 29.07 60.5663 28.93C60.1183 28.79 59.7076 28.58 59.3343 28.3C58.9703 28.0107 58.6436 27.656 58.3543 27.236L59.3903 26.046C59.8476 26.6993 60.2863 27.152 60.7063 27.404C61.1263 27.656 61.6256 27.782 62.2043 27.782C62.559 27.782 62.881 27.726 63.1703 27.614C63.4596 27.502 63.6883 27.348 63.8563 27.152C64.0243 26.956 64.1083 26.732 64.1083 26.48C64.1083 26.312 64.0803 26.1533 64.0243 26.004C63.9683 25.8547 63.8796 25.7193 63.7583 25.598C63.6463 25.4767 63.497 25.3647 63.3103 25.262C63.133 25.1593 62.923 25.0707 62.6803 24.996C62.4376 24.912 62.1576 24.842 61.8403 24.786C61.3363 24.6833 60.8976 24.548 60.5243 24.38C60.151 24.212 59.8383 24.002 59.5863 23.75C59.3343 23.498 59.1476 23.2133 59.0263 22.896C58.905 22.5693 58.8443 22.2053 58.8443 21.804C58.8443 21.412 58.9283 21.048 59.0963 20.712C59.2736 20.376 59.5116 20.0867 59.8103 19.844C60.1183 19.592 60.4776 19.4007 60.8883 19.27C61.299 19.13 61.7423 19.06 62.2183 19.06C62.7223 19.06 63.1843 19.1253 63.6043 19.256C64.0243 19.3867 64.3976 19.5827 64.7243 19.844C65.051 20.096 65.3216 20.4087 65.5363 20.782L64.4723 21.832C64.2856 21.524 64.0756 21.2673 63.8423 21.062C63.609 20.8473 63.3523 20.6887 63.0723 20.586C62.7923 20.474 62.4936 20.418 62.1763 20.418C61.8123 20.418 61.495 20.474 61.2243 20.586C60.9536 20.698 60.739 20.8567 60.5803 21.062C60.431 21.258 60.3563 21.4913 60.3563 21.762C60.3563 21.958 60.3936 22.14 60.4683 22.308C60.543 22.4667 60.655 22.6113 60.8043 22.742C60.963 22.8633 61.173 22.9753 61.4343 23.078C61.6956 23.1713 62.0083 23.2553 62.3723 23.33C62.8856 23.442 63.343 23.5867 63.7443 23.764C64.1456 23.932 64.4863 24.1327 64.7663 24.366C65.0463 24.5993 65.2563 24.8607 65.3963 25.15C65.5456 25.4393 65.6203 25.752 65.6203 26.088C65.6203 26.7133 65.4756 27.2547 65.1863 27.712C64.897 28.1693 64.4863 28.524 63.9543 28.776C63.4223 29.0187 62.7876 29.14 62.0503 29.14ZM68.3086 29V19.774H69.7506V29H68.3086ZM66.7826 23.05V21.65H71.4586V23.05H66.7826ZM72.7717 29V21.65H74.2277V23.96L74.0877 23.4C74.1903 23.0453 74.363 22.7233 74.6057 22.434C74.8577 22.1447 75.1423 21.916 75.4597 21.748C75.7863 21.58 76.1223 21.496 76.4677 21.496C76.6263 21.496 76.7757 21.51 76.9157 21.538C77.065 21.566 77.1817 21.5987 77.2657 21.636L76.8877 23.204C76.7757 23.1573 76.6497 23.12 76.5097 23.092C76.379 23.0547 76.2483 23.036 76.1177 23.036C75.8657 23.036 75.623 23.0873 75.3897 23.19C75.1657 23.2833 74.965 23.4187 74.7877 23.596C74.6197 23.764 74.4843 23.9647 74.3817 24.198C74.279 24.422 74.2277 24.6693 74.2277 24.94V29H72.7717ZM77.4065 29.154C77.0985 29.154 76.8605 29.0653 76.6925 28.888C76.5245 28.7013 76.4405 28.44 76.4405 28.104C76.4405 27.796 76.5292 27.544 76.7065 27.348C76.8839 27.152 77.1172 27.054 77.4065 27.054C77.7145 27.054 77.9525 27.1473 78.1205 27.334C78.2885 27.5113 78.3725 27.768 78.3725 28.104C78.3725 28.412 78.2839 28.664 78.1065 28.86C77.9292 29.056 77.6959 29.154 77.4065 29.154ZM85.9579 28.314V20.362L86.4759 20.754L84.5439 21.776L84.1379 20.46L86.7559 19.06H87.4839V28.314H85.9579ZM84.4039 29V27.544H89.0799V29H84.4039ZM93.1119 29L93.0559 28.86L95.9679 22.672L96.0099 23.834C95.8419 24.114 95.6553 24.3613 95.4499 24.576C95.2539 24.7907 95.0346 24.9773 94.7919 25.136C94.5586 25.2853 94.3159 25.402 94.0639 25.486C93.8119 25.5607 93.5553 25.598 93.2939 25.598C92.7619 25.598 92.2719 25.458 91.8239 25.178C91.3759 24.898 91.0166 24.5247 90.7459 24.058C90.4753 23.5913 90.3399 23.0827 90.3399 22.532C90.3399 21.8693 90.4893 21.2767 90.7879 20.754C91.0866 20.222 91.4926 19.802 92.0059 19.494C92.5286 19.186 93.1119 19.032 93.7559 19.032C94.2226 19.032 94.6613 19.116 95.0719 19.284C95.4826 19.452 95.8419 19.69 96.1499 19.998C96.4579 20.2967 96.7006 20.6467 96.8779 21.048C97.0553 21.44 97.1439 21.86 97.1439 22.308C97.1439 22.5413 97.1206 22.7933 97.0739 23.064C97.0273 23.3253 96.9479 23.624 96.8359 23.96C96.7333 24.2867 96.5933 24.6647 96.4159 25.094C96.2386 25.514 96.0193 26.004 95.7579 26.564L94.5959 29H93.1119ZM93.6159 24.198C93.9799 24.198 94.3066 24.1187 94.5959 23.96C94.8853 23.792 95.1093 23.5727 95.2679 23.302C95.4359 23.022 95.5199 22.7093 95.5199 22.364C95.5199 22 95.4406 21.6733 95.2819 21.384C95.1233 21.0853 94.8993 20.852 94.6099 20.684C94.3299 20.516 94.0079 20.432 93.6439 20.432C93.3079 20.432 93.0093 20.516 92.7479 20.684C92.4866 20.8427 92.2766 21.0667 92.1179 21.356C91.9686 21.636 91.8939 21.9673 91.8939 22.35C91.8939 22.6767 91.9686 22.98 92.1179 23.26C92.2766 23.54 92.4866 23.7687 92.7479 23.946C93.0093 24.114 93.2986 24.198 93.6159 24.198ZM3.038 46.314V38.362L3.556 38.754L1.624 39.776L1.218 38.46L3.836 37.06H4.564V46.314H3.038ZM1.484 47V45.544H6.16V47H1.484ZM11.242 47.14C10.4953 47.14 9.85133 46.9347 9.31 46.524C8.778 46.1133 8.36733 45.5347 8.078 44.788C7.78867 44.032 7.644 43.136 7.644 42.1C7.644 41.064 7.78867 40.1727 8.078 39.426C8.36733 38.67 8.778 38.0867 9.31 37.676C9.85133 37.2653 10.4953 37.06 11.242 37.06C11.9887 37.06 12.6327 37.2653 13.174 37.676C13.7153 38.0867 14.1307 38.67 14.42 39.426C14.7093 40.1727 14.854 41.064 14.854 42.1C14.854 43.136 14.7093 44.032 14.42 44.788C14.1307 45.5347 13.7153 46.1133 13.174 46.524C12.6327 46.9347 11.9887 47.14 11.242 47.14ZM11.242 45.768C11.9233 45.768 12.4507 45.4507 12.824 44.816C13.1973 44.172 13.384 43.2667 13.384 42.1C13.384 40.9333 13.1973 40.0327 12.824 39.398C12.4507 38.754 11.9233 38.432 11.242 38.432C10.5607 38.432 10.0333 38.754 9.66 39.398C9.28667 40.0327 9.1 40.9333 9.1 42.1C9.1 43.2667 9.28667 44.172 9.66 44.816C10.0333 45.4507 10.5607 45.768 11.242 45.768ZM18.6959 47L18.6399 46.86L21.5519 40.672L21.5939 41.834C21.4259 42.114 21.2392 42.3613 21.0339 42.576C20.8379 42.7907 20.6186 42.9773 20.3759 43.136C20.1426 43.2853 19.8999 43.402 19.6479 43.486C19.3959 43.5607 19.1392 43.598 18.8779 43.598C18.3459 43.598 17.8559 43.458 17.4079 43.178C16.9599 42.898 16.6006 42.5247 16.3299 42.058C16.0592 41.5913 15.9239 41.0827 15.9239 40.532C15.9239 39.8693 16.0732 39.2767 16.3719 38.754C16.6706 38.222 17.0766 37.802 17.5899 37.494C18.1126 37.186 18.6959 37.032 19.3399 37.032C19.8066 37.032 20.2452 37.116 20.6559 37.284C21.0666 37.452 21.4259 37.69 21.7339 37.998C22.0419 38.2967 22.2846 38.6467 22.4619 39.048C22.6392 39.44 22.7279 39.86 22.7279 40.308C22.7279 40.5413 22.7046 40.7933 22.6579 41.064C22.6112 41.3253 22.5319 41.624 22.4199 41.96C22.3172 42.2867 22.1772 42.6647 21.9999 43.094C21.8226 43.514 21.6032 44.004 21.3419 44.564L20.1799 47H18.6959ZM19.1999 42.198C19.5639 42.198 19.8906 42.1187 20.1799 41.96C20.4692 41.792 20.6932 41.5727 20.8519 41.302C21.0199 41.022 21.1039 40.7093 21.1039 40.364C21.1039 40 21.0246 39.6733 20.8659 39.384C20.7072 39.0853 20.4832 38.852 20.1939 38.684C19.9139 38.516 19.5919 38.432 19.2279 38.432C18.8919 38.432 18.5932 38.516 18.3319 38.684C18.0706 38.8427 17.8606 39.0667 17.7019 39.356C17.5526 39.636 17.4779 39.9673 17.4779 40.35C17.4779 40.6767 17.5526 40.98 17.7019 41.26C17.8606 41.54 18.0706 41.7687 18.3319 41.946C18.5932 42.114 18.8826 42.198 19.1999 42.198ZM26.4068 47L26.3508 46.86L29.2628 40.672L29.3048 41.834C29.1368 42.114 28.9502 42.3613 28.7448 42.576C28.5488 42.7907 28.3295 42.9773 28.0868 43.136C27.8535 43.2853 27.6108 43.402 27.3588 43.486C27.1068 43.5607 26.8502 43.598 26.5888 43.598C26.0568 43.598 25.5668 43.458 25.1188 43.178C24.6708 42.898 24.3115 42.5247 24.0408 42.058C23.7702 41.5913 23.6348 41.0827 23.6348 40.532C23.6348 39.8693 23.7842 39.2767 24.0828 38.754C24.3815 38.222 24.7875 37.802 25.3008 37.494C25.8235 37.186 26.4068 37.032 27.0508 37.032C27.5175 37.032 27.9562 37.116 28.3668 37.284C28.7775 37.452 29.1368 37.69 29.4448 37.998C29.7528 38.2967 29.9955 38.6467 30.1728 39.048C30.3502 39.44 30.4388 39.86 30.4388 40.308C30.4388 40.5413 30.4155 40.7933 30.3688 41.064C30.3222 41.3253 30.2428 41.624 30.1308 41.96C30.0282 42.2867 29.8882 42.6647 29.7108 43.094C29.5335 43.514 29.3142 44.004 29.0528 44.564L27.8908 47H26.4068ZM26.9108 42.198C27.2748 42.198 27.6015 42.1187 27.8908 41.96C28.1802 41.792 28.4042 41.5727 28.5628 41.302C28.7308 41.022 28.8148 40.7093 28.8148 40.364C28.8148 40 28.7355 39.6733 28.5768 39.384C28.4182 39.0853 28.1942 38.852 27.9048 38.684C27.6248 38.516 27.3028 38.432 26.9388 38.432C26.6028 38.432 26.3042 38.516 26.0428 38.684C25.7815 38.8427 25.5715 39.0667 25.4128 39.356C25.2635 39.636 25.1888 39.9673 25.1888 40.35C25.1888 40.6767 25.2635 40.98 25.4128 41.26C25.5715 41.54 25.7815 41.7687 26.0428 41.946C26.3042 42.114 26.5935 42.198 26.9108 42.198ZM32.4938 47L36.5538 38.152L36.7218 38.6H31.7658V37.2H37.8278L38.0238 38.166L34.1178 47H32.4938ZM43.8095 47V37.2H47.8975C48.5228 37.2 49.0502 37.2933 49.4795 37.48C49.9088 37.6667 50.2308 37.9467 50.4455 38.32C50.6695 38.684 50.7815 39.132 50.7815 39.664C50.7815 40.196 50.6322 40.6487 50.3335 41.022C50.0442 41.3953 49.6382 41.652 49.1155 41.792V41.512C49.5542 41.6053 49.9368 41.7733 50.2635 42.016C50.5902 42.2493 50.8422 42.5433 51.0195 42.898C51.2062 43.2527 51.2995 43.6587 51.2995 44.116C51.2995 44.5827 51.2248 44.998 51.0755 45.362C50.9355 45.7167 50.7208 46.0153 50.4315 46.258C50.1515 46.5007 49.8108 46.6873 49.4095 46.818C49.0082 46.9393 48.5508 47 48.0375 47H43.8095ZM45.3215 45.544H47.9535C48.3362 45.544 48.6582 45.488 48.9195 45.376C49.1902 45.264 49.3955 45.1007 49.5355 44.886C49.6848 44.662 49.7595 44.396 49.7595 44.088C49.7595 43.7987 49.6802 43.5513 49.5215 43.346C49.3722 43.1407 49.1575 42.9867 48.8775 42.884C48.5975 42.772 48.2662 42.716 47.8835 42.716H45.3215V45.544ZM45.3215 41.26H47.8135C48.0935 41.26 48.3408 41.204 48.5555 41.092C48.7795 40.98 48.9522 40.826 49.0735 40.63C49.2042 40.434 49.2695 40.21 49.2695 39.958C49.2695 39.538 49.1295 39.216 48.8495 38.992C48.5695 38.768 48.1682 38.656 47.6455 38.656H45.3215V41.26ZM56.3911 47.14C55.6351 47.14 54.9631 46.9813 54.3751 46.664C53.7965 46.3373 53.3391 45.894 53.0031 45.334C52.6765 44.774 52.5131 44.13 52.5131 43.402C52.5131 42.8233 52.6065 42.296 52.7931 41.82C52.9798 41.344 53.2365 40.9333 53.5631 40.588C53.8991 40.2333 54.2958 39.9627 54.7531 39.776C55.2198 39.58 55.7238 39.482 56.2651 39.482C56.7411 39.482 57.1845 39.5753 57.5951 39.762C58.0058 39.9393 58.3605 40.1867 58.6591 40.504C58.9671 40.8213 59.2005 41.1993 59.3591 41.638C59.5271 42.0673 59.6065 42.5387 59.5971 43.052L59.5831 43.668H53.5771L53.2551 42.52H58.3371L58.1271 42.758V42.422C58.0991 42.114 57.9965 41.8387 57.8191 41.596C57.6418 41.3533 57.4178 41.162 57.1471 41.022C56.8765 40.882 56.5825 40.812 56.2651 40.812C55.7611 40.812 55.3365 40.91 54.9911 41.106C54.6458 41.2927 54.3845 41.5727 54.2071 41.946C54.0298 42.31 53.9411 42.7627 53.9411 43.304C53.9411 43.8173 54.0485 44.2653 54.2631 44.648C54.4778 45.0213 54.7811 45.3107 55.1731 45.516C55.5651 45.7213 56.0178 45.824 56.5311 45.824C56.8951 45.824 57.2311 45.7633 57.5391 45.642C57.8565 45.5207 58.1971 45.3013 58.5611 44.984L59.2891 46.006C59.0651 46.23 58.7898 46.426 58.4631 46.594C58.1458 46.762 57.8051 46.8973 57.4411 47C57.0865 47.0933 56.7365 47.14 56.3911 47.14ZM61.1643 47V39.65H62.6203V41.96L62.4803 41.4C62.5829 41.0453 62.7556 40.7233 62.9983 40.434C63.2503 40.1447 63.5349 39.916 63.8522 39.748C64.1789 39.58 64.5149 39.496 64.8603 39.496C65.0189 39.496 65.1683 39.51 65.3083 39.538C65.4576 39.566 65.5743 39.5987 65.6583 39.636L65.2803 41.204C65.1683 41.1573 65.0423 41.12 64.9023 41.092C64.7716 41.0547 64.6409 41.036 64.5103 41.036C64.2583 41.036 64.0156 41.0873 63.7823 41.19C63.5583 41.2833 63.3576 41.4187 63.1803 41.596C63.0123 41.764 62.8769 41.9647 62.7743 42.198C62.6716 42.422 62.6203 42.6693 62.6203 42.94V47H61.1643ZM66.8387 47V36.64H68.2807V47H66.8387ZM70.5624 47V39.65H72.0044V47H70.5624ZM71.2624 38.026C70.9544 38.026 70.7164 37.9467 70.5484 37.788C70.3804 37.6293 70.2964 37.4053 70.2964 37.116C70.2964 36.8453 70.3804 36.626 70.5484 36.458C70.7257 36.29 70.9637 36.206 71.2624 36.206C71.5704 36.206 71.8084 36.2853 71.9764 36.444C72.1444 36.6027 72.2284 36.8267 72.2284 37.116C72.2284 37.3867 72.1397 37.606 71.9624 37.774C71.7944 37.942 71.5611 38.026 71.2624 38.026ZM74.2209 47V39.65H75.6629V41.162L75.4109 41.33C75.5042 41.0033 75.6862 40.7047 75.9569 40.434C76.2276 40.154 76.5496 39.93 76.9229 39.762C77.2962 39.5847 77.6789 39.496 78.0709 39.496C78.6309 39.496 79.0976 39.608 79.4709 39.832C79.8442 40.0467 80.1242 40.378 80.3109 40.826C80.4976 41.274 80.5909 41.8387 80.5909 42.52V47H79.1489V42.618C79.1489 42.198 79.0929 41.8527 78.9809 41.582C78.8689 41.302 78.6962 41.1013 78.4629 40.98C78.2296 40.8493 77.9402 40.7933 77.5949 40.812C77.3149 40.812 77.0582 40.8587 76.8249 40.952C76.5916 41.036 76.3862 41.1573 76.2089 41.316C76.0409 41.4747 75.9056 41.6613 75.8029 41.876C75.7096 42.0813 75.6629 42.3053 75.6629 42.548V47H74.9489C74.8276 47 74.7062 47 74.5849 47C74.4636 47 74.3422 47 74.2209 47ZM5.754 65.14C5.04467 65.14 4.382 65.014 3.766 64.762C3.15 64.5007 2.60867 64.1413 2.142 63.684C1.67533 63.2267 1.31133 62.6947 1.05 62.088C0.798 61.472 0.672 60.8093 0.672 60.1C0.672 59.4 0.798 58.7467 1.05 58.14C1.31133 57.5333 1.67067 57.006 2.128 56.558C2.59467 56.1007 3.136 55.746 3.752 55.494C4.368 55.242 5.03067 55.116 5.74 55.116C6.23467 55.116 6.71533 55.186 7.182 55.326C7.658 55.466 8.08733 55.662 8.47 55.914C8.85267 56.166 9.16533 56.4553 9.408 56.782L8.428 57.804C8.148 57.5333 7.85867 57.3093 7.56 57.132C7.27067 56.9547 6.972 56.8193 6.664 56.726C6.356 56.6327 6.048 56.586 5.74 56.586C5.236 56.586 4.76933 56.6747 4.34 56.852C3.92 57.0293 3.54667 57.2767 3.22 57.594C2.90267 57.9113 2.65533 58.2847 2.478 58.714C2.30067 59.134 2.212 59.596 2.212 60.1C2.212 60.5853 2.30533 61.0473 2.492 61.486C2.67867 61.9153 2.93533 62.2933 3.262 62.62C3.598 62.9467 3.98067 63.2033 4.41 63.39C4.84867 63.5767 5.31067 63.67 5.796 63.67C6.16 63.67 6.50533 63.6187 6.832 63.516C7.15867 63.404 7.448 63.25 7.7 63.054C7.952 62.858 8.148 62.634 8.288 62.382C8.428 62.1207 8.498 61.8453 8.498 61.556V61.276L8.708 61.472H5.712V59.974H10.052C10.0707 60.0767 10.0847 60.1793 10.094 60.282C10.1033 60.3753 10.108 60.4687 10.108 60.562C10.1173 60.646 10.122 60.73 10.122 60.814C10.122 61.458 10.01 62.046 9.786 62.578C9.562 63.1007 9.24933 63.5533 8.848 63.936C8.456 64.3187 7.994 64.6173 7.462 64.832C6.93933 65.0373 6.37 65.14 5.754 65.14ZM15.1568 65.14C14.4008 65.14 13.7288 64.9813 13.1408 64.664C12.5621 64.3373 12.1048 63.894 11.7688 63.334C11.4421 62.774 11.2788 62.13 11.2788 61.402C11.2788 60.8233 11.3721 60.296 11.5588 59.82C11.7454 59.344 12.0021 58.9333 12.3288 58.588C12.6648 58.2333 13.0614 57.9627 13.5188 57.776C13.9854 57.58 14.4894 57.482 15.0308 57.482C15.5068 57.482 15.9501 57.5753 16.3608 57.762C16.7714 57.9393 17.1261 58.1867 17.4248 58.504C17.7328 58.8213 17.9661 59.1993 18.1248 59.638C18.2928 60.0673 18.3721 60.5387 18.3628 61.052L18.3488 61.668H12.3428L12.0208 60.52H17.1028L16.8928 60.758V60.422C16.8648 60.114 16.7621 59.8387 16.5848 59.596C16.4074 59.3533 16.1834 59.162 15.9128 59.022C15.6421 58.882 15.3481 58.812 15.0308 58.812C14.5268 58.812 14.1021 58.91 13.7568 59.106C13.4114 59.2927 13.1501 59.5727 12.9728 59.946C12.7954 60.31 12.7068 60.7627 12.7068 61.304C12.7068 61.8173 12.8141 62.2653 13.0288 62.648C13.2434 63.0213 13.5468 63.3107 13.9388 63.516C14.3308 63.7213 14.7834 63.824 15.2968 63.824C15.6608 63.824 15.9968 63.7633 16.3048 63.642C16.6221 63.5207 16.9628 63.3013 17.3268 62.984L18.0548 64.006C17.8308 64.23 17.5554 64.426 17.2288 64.594C16.9114 64.762 16.5708 64.8973 16.2068 65C15.8521 65.0933 15.5021 65.14 15.1568 65.14ZM19.9299 65V57.65H21.3859V59.96L21.2459 59.4C21.3485 59.0453 21.5212 58.7233 21.7639 58.434C22.0159 58.1447 22.3005 57.916 22.6179 57.748C22.9445 57.58 23.2805 57.496 23.6259 57.496C23.7845 57.496 23.9339 57.51 24.0739 57.538C24.2232 57.566 24.3399 57.5987 24.4239 57.636L24.0459 59.204C23.9339 59.1573 23.8079 59.12 23.6679 59.092C23.5372 59.0547 23.4065 59.036 23.2759 59.036C23.0239 59.036 22.7812 59.0873 22.5479 59.19C22.3239 59.2833 22.1232 59.4187 21.9459 59.596C21.7779 59.764 21.6425 59.9647 21.5399 60.198C21.4372 60.422 21.3859 60.6693 21.3859 60.94V65H19.9299ZM25.5484 65V57.65H27.0044V59.218L26.7384 59.386C26.813 59.1433 26.9297 58.91 27.0884 58.686C27.2564 58.462 27.457 58.266 27.6904 58.098C27.933 57.9207 28.1897 57.7807 28.4604 57.678C28.7404 57.5753 29.025 57.524 29.3144 57.524C29.7344 57.524 30.103 57.594 30.4204 57.734C30.7377 57.874 30.999 58.084 31.2044 58.364C31.4097 58.644 31.559 58.994 31.6524 59.414L31.4284 59.358L31.5264 59.12C31.629 58.9053 31.769 58.7047 31.9464 58.518C32.133 58.322 32.343 58.1493 32.5764 58C32.8097 57.8507 33.057 57.734 33.3184 57.65C33.5797 57.566 33.8364 57.524 34.0884 57.524C34.639 57.524 35.0917 57.636 35.4464 57.86C35.8104 58.084 36.081 58.4247 36.2584 58.882C36.445 59.3393 36.5384 59.9087 36.5384 60.59V65H35.0824V60.674C35.0824 60.254 35.0264 59.9133 34.9144 59.652C34.8117 59.3813 34.653 59.1807 34.4384 59.05C34.2237 58.9193 33.9484 58.854 33.6124 58.854C33.351 58.854 33.1037 58.9007 32.8704 58.994C32.6464 59.078 32.4504 59.1993 32.2824 59.358C32.1144 59.5167 31.9837 59.7033 31.8904 59.918C31.797 60.1233 31.7504 60.352 31.7504 60.604V65H30.2944V60.646C30.2944 60.2633 30.2384 59.9413 30.1264 59.68C30.0144 59.4093 29.851 59.204 29.6364 59.064C29.4217 58.924 29.1604 58.854 28.8524 58.854C28.591 58.854 28.3484 58.9007 28.1244 58.994C27.9004 59.078 27.7044 59.1993 27.5364 59.358C27.3684 59.5073 27.2377 59.6893 27.1444 59.904C27.051 60.1093 27.0044 60.3333 27.0044 60.576V65H25.5484ZM41.2969 65.14C40.6903 65.14 40.1349 64.972 39.6309 64.636C39.1363 64.3 38.7396 63.8427 38.4409 63.264C38.1423 62.6853 37.9929 62.032 37.9929 61.304C37.9929 60.5667 38.1423 59.9133 38.4409 59.344C38.7489 58.7653 39.1596 58.3127 39.6729 57.986C40.1956 57.6593 40.7789 57.496 41.4229 57.496C41.8056 57.496 42.1556 57.552 42.4729 57.664C42.7903 57.776 43.0656 57.9347 43.2989 58.14C43.5416 58.336 43.7376 58.5647 43.8869 58.826C44.0456 59.0873 44.1436 59.3673 44.1809 59.666L43.8589 59.554V57.65H45.3149V65H43.8589V63.25L44.1949 63.152C44.1389 63.404 44.0223 63.6513 43.8449 63.894C43.6769 64.1273 43.4576 64.3373 43.1869 64.524C42.9256 64.7107 42.6316 64.86 42.3049 64.972C41.9876 65.084 41.6516 65.14 41.2969 65.14ZM41.6749 63.81C42.1136 63.81 42.5009 63.7027 42.8369 63.488C43.1729 63.2733 43.4343 62.9793 43.6209 62.606C43.8169 62.2233 43.9149 61.7893 43.9149 61.304C43.9149 60.828 43.8169 60.4033 43.6209 60.03C43.4343 59.6567 43.1729 59.3627 42.8369 59.148C42.5009 58.9333 42.1136 58.826 41.6749 58.826C41.2456 58.826 40.8629 58.9333 40.5269 59.148C40.2003 59.3627 39.9389 59.6567 39.7429 60.03C39.5563 60.4033 39.4629 60.828 39.4629 61.304C39.4629 61.7893 39.5563 62.2233 39.7429 62.606C39.9389 62.9793 40.2003 63.2733 40.5269 63.488C40.8629 63.7027 41.2456 63.81 41.6749 63.81ZM47.3283 65V57.65H48.7703V59.162L48.5183 59.33C48.6116 59.0033 48.7936 58.7047 49.0643 58.434C49.335 58.154 49.657 57.93 50.0303 57.762C50.4036 57.5847 50.7863 57.496 51.1783 57.496C51.7383 57.496 52.205 57.608 52.5783 57.832C52.9516 58.0467 53.2316 58.378 53.4183 58.826C53.605 59.274 53.6983 59.8387 53.6983 60.52V65H52.2563V60.618C52.2563 60.198 52.2003 59.8527 52.0883 59.582C51.9763 59.302 51.8036 59.1013 51.5703 58.98C51.337 58.8493 51.0476 58.7933 50.7023 58.812C50.4223 58.812 50.1656 58.8587 49.9323 58.952C49.699 59.036 49.4936 59.1573 49.3163 59.316C49.1483 59.4747 49.013 59.6613 48.9103 59.876C48.817 60.0813 48.7703 60.3053 48.7703 60.548V65H48.0563C47.935 65 47.8136 65 47.6923 65C47.571 65 47.4496 65 47.3283 65ZM56.8181 68.22L58.3021 64.79L58.3161 65.938L54.6481 57.65H56.3281L58.6241 63.054C58.6708 63.1473 58.7268 63.292 58.7921 63.488C58.8575 63.6747 58.9135 63.8613 58.9601 64.048L58.5961 64.132C58.6708 63.936 58.7408 63.74 58.8061 63.544C58.8808 63.348 58.9508 63.152 59.0161 62.956L60.9341 57.65H62.6421L59.6181 65L58.3721 68.22H56.8181Z" fill="black"/>
</svg>
