<svg width="91" height="11" viewBox="0 0 91 11" fill="none" xmlns="http://www.w3.org/2000/svg">
<path d="M0.372 10V0.199999H4.208C4.908 0.199999 5.538 0.316666 6.098 0.55C6.66733 0.783333 7.15267 1.11933 7.554 1.558C7.95533 1.99667 8.26333 2.51467 8.478 3.112C8.69267 3.70933 8.8 4.372 8.8 5.1C8.8 5.828 8.69267 6.49533 8.478 7.102C8.26333 7.69933 7.95533 8.21733 7.554 8.656C7.162 9.08533 6.68133 9.41667 6.112 9.65C5.54267 9.88333 4.908 10 4.208 10H0.372ZM1.884 8.698L1.842 8.544H4.138C4.63267 8.544 5.07133 8.46467 5.454 8.306C5.846 8.14733 6.17267 7.92333 6.434 7.634C6.70467 7.33533 6.91 6.97133 7.05 6.542C7.19 6.11267 7.26 5.632 7.26 5.1C7.26 4.568 7.19 4.092 7.05 3.672C6.91 3.24267 6.70467 2.87867 6.434 2.58C6.16333 2.28133 5.83667 2.05267 5.454 1.894C5.07133 1.73533 4.63267 1.656 4.138 1.656H1.8L1.884 1.53V8.698ZM10.8447 10V0.199999H17.0187V1.656H12.3567V8.544H17.0187V10H10.8447ZM11.5307 5.702V4.246H16.2487V5.702H11.5307ZM21.5863 10.14C20.8956 10.14 20.2936 9.98133 19.7803 9.664C19.2763 9.34667 18.8003 8.81467 18.3523 8.068L19.5283 7.326C19.7616 7.67133 19.9903 7.956 20.2143 8.18C20.4476 8.39467 20.6856 8.55333 20.9283 8.656C21.1709 8.75867 21.4276 8.81 21.6983 8.81C22.0249 8.81 22.3283 8.73067 22.6083 8.572C22.8883 8.404 23.1123 8.17533 23.2803 7.886C23.4483 7.59667 23.5323 7.27 23.5323 6.906C23.5323 6.542 23.4669 6.234 23.3363 5.982C23.2056 5.72067 23.0143 5.52467 22.7623 5.394C22.5103 5.254 22.2116 5.184 21.8663 5.184C21.7076 5.184 21.5396 5.20267 21.3623 5.24C21.1943 5.268 21.0123 5.31467 20.8163 5.38C20.6203 5.436 20.4056 5.51067 20.1723 5.604L19.7523 4.498L22.7763 1.166L23.0703 1.6H18.8983V0.199999H24.5123L24.7923 0.76L21.5863 4.316L21.2363 3.952C21.3109 3.91467 21.4323 3.882 21.6003 3.854C21.7776 3.81667 21.9223 3.798 22.0343 3.798C22.4449 3.798 22.8276 3.87733 23.1823 4.036C23.5463 4.18533 23.8589 4.4 24.1203 4.68C24.3909 4.95067 24.6009 5.27267 24.7503 5.646C24.9089 6.01 24.9883 6.402 24.9883 6.822C24.9883 7.45667 24.8343 8.026 24.5263 8.53C24.2276 9.02467 23.8216 9.41667 23.3083 9.706C22.7949 9.99533 22.2209 10.14 21.5863 10.14ZM30.4104 10V2.104L30.7604 2.188L27.5404 6.122L27.4844 5.954H33.5744V7.34H26.5464L25.9024 6.08L30.7044 0.199999H31.8664V10H30.4104ZM38.2101 10.042C37.6034 10.042 37.0481 9.916 36.5441 9.664C36.0494 9.40267 35.6527 9.05733 35.3541 8.628C35.0554 8.19867 34.9061 7.72267 34.9061 7.2C34.9061 6.91067 34.9434 6.64 35.0181 6.388C35.1021 6.12667 35.2234 5.88867 35.3821 5.674C35.5501 5.45933 35.7507 5.26333 35.9841 5.086C36.2174 4.90867 36.4881 4.75 36.7961 4.61L36.7121 4.904C36.4694 4.81067 36.2501 4.69867 36.0541 4.568C35.8674 4.428 35.7041 4.26933 35.5641 4.092C35.4241 3.91467 35.3167 3.72333 35.2421 3.518C35.1767 3.31267 35.1441 3.098 35.1441 2.874C35.1441 2.37933 35.2794 1.93133 35.5501 1.53C35.8301 1.12867 36.1987 0.806667 36.6561 0.564C37.1227 0.321333 37.6407 0.199999 38.2101 0.199999C38.7794 0.199999 39.2927 0.321333 39.7501 0.564C40.2167 0.806667 40.5854 1.12867 40.8561 1.53C41.1361 1.93133 41.2761 2.37933 41.2761 2.874C41.2761 3.098 41.2387 3.31267 41.1641 3.518C41.0987 3.72333 41.0007 3.91 40.8701 4.078C40.7394 4.246 40.5714 4.4 40.3661 4.54C40.1701 4.68 39.9461 4.80133 39.6941 4.904L39.6521 4.666C39.9321 4.778 40.1841 4.92267 40.4081 5.1C40.6414 5.27733 40.8421 5.478 41.0101 5.702C41.1781 5.926 41.3041 6.164 41.3881 6.416C41.4814 6.668 41.5281 6.92933 41.5281 7.2C41.5281 7.732 41.3787 8.21267 41.0801 8.642C40.7814 9.07133 40.3801 9.412 39.8761 9.664C39.3814 9.916 38.8261 10.042 38.2101 10.042ZM38.2101 8.642C38.5554 8.642 38.8634 8.57667 39.1341 8.446C39.4141 8.31533 39.6334 8.138 39.7921 7.914C39.9507 7.69 40.0301 7.43333 40.0301 7.144C40.0301 6.836 39.9507 6.56533 39.7921 6.332C39.6334 6.08933 39.4141 5.898 39.1341 5.758C38.8634 5.618 38.5554 5.548 38.2101 5.548C37.8647 5.548 37.5567 5.618 37.2861 5.758C37.0154 5.898 36.8007 6.08933 36.6421 6.332C36.4834 6.56533 36.4041 6.836 36.4041 7.144C36.4041 7.424 36.4834 7.676 36.6421 7.9C36.8007 8.124 37.0154 8.306 37.2861 8.446C37.5567 8.57667 37.8647 8.642 38.2101 8.642ZM38.2101 4.204C38.5087 4.204 38.7747 4.148 39.0081 4.036C39.2507 3.924 39.4374 3.77467 39.5681 3.588C39.7081 3.392 39.7781 3.168 39.7781 2.916C39.7781 2.664 39.7081 2.44 39.5681 2.244C39.4374 2.048 39.2507 1.894 39.0081 1.782C38.7747 1.66067 38.5087 1.6 38.2101 1.6C37.9114 1.6 37.6407 1.66067 37.3981 1.782C37.1647 1.894 36.9781 2.048 36.8381 2.244C36.7074 2.44 36.6421 2.664 36.6421 2.916C36.6421 3.168 36.7074 3.392 36.8381 3.588C36.9781 3.77467 37.1647 3.924 37.3981 4.036C37.6407 4.148 37.9114 4.204 38.2101 4.204ZM43.8395 10L47.8995 1.152L48.0675 1.6H43.1115V0.199999H49.1735L49.3695 1.166L45.4635 10H43.8395ZM54.4319 10V2.104L54.7819 2.188L51.5619 6.122L51.5059 5.954H57.5959V7.34H50.5679L49.9239 6.08L54.7259 0.199999H55.8879V10H54.4319ZM61.3775 10L61.3215 9.86L64.2335 3.672L64.2755 4.834C64.1075 5.114 63.9209 5.36133 63.7155 5.576C63.5195 5.79067 63.3002 5.97733 63.0575 6.136C62.8242 6.28533 62.5815 6.402 62.3295 6.486C62.0775 6.56067 61.8209 6.598 61.5595 6.598C61.0275 6.598 60.5375 6.458 60.0895 6.178C59.6415 5.898 59.2822 5.52467 59.0115 5.058C58.7409 4.59133 58.6055 4.08267 58.6055 3.532C58.6055 2.86933 58.7549 2.27667 59.0535 1.754C59.3522 1.222 59.7582 0.802 60.2715 0.494C60.7942 0.186 61.3775 0.0319998 62.0215 0.0319998C62.4882 0.0319998 62.9269 0.116 63.3375 0.284C63.7482 0.451999 64.1075 0.689999 64.4155 0.998C64.7235 1.29667 64.9662 1.64667 65.1435 2.048C65.3209 2.44 65.4095 2.86 65.4095 3.308C65.4095 3.54133 65.3862 3.79333 65.3395 4.064C65.2929 4.32533 65.2135 4.624 65.1015 4.96C64.9989 5.28667 64.8589 5.66467 64.6815 6.094C64.5042 6.514 64.2849 7.004 64.0235 7.564L62.8615 10H61.3775ZM61.8815 5.198C62.2455 5.198 62.5722 5.11867 62.8615 4.96C63.1509 4.792 63.3749 4.57267 63.5335 4.302C63.7015 4.022 63.7855 3.70933 63.7855 3.364C63.7855 3 63.7062 2.67333 63.5475 2.384C63.3889 2.08533 63.1649 1.852 62.8755 1.684C62.5955 1.516 62.2735 1.432 61.9095 1.432C61.5735 1.432 61.2749 1.516 61.0135 1.684C60.7522 1.84267 60.5422 2.06667 60.3835 2.356C60.2342 2.636 60.1595 2.96733 60.1595 3.35C60.1595 3.67667 60.2342 3.98 60.3835 4.26C60.5422 4.54 60.7522 4.76867 61.0135 4.946C61.2749 5.114 61.5642 5.198 61.8815 5.198ZM70.1385 10.14C69.3918 10.14 68.7478 9.93467 68.2065 9.524C67.6745 9.11333 67.2638 8.53467 66.9745 7.788C66.6852 7.032 66.5405 6.136 66.5405 5.1C66.5405 4.064 66.6852 3.17267 66.9745 2.426C67.2638 1.67 67.6745 1.08667 68.2065 0.676C68.7478 0.265333 69.3918 0.0599995 70.1385 0.0599995C70.8852 0.0599995 71.5292 0.265333 72.0705 0.676C72.6118 1.08667 73.0272 1.67 73.3165 2.426C73.6058 3.17267 73.7505 4.064 73.7505 5.1C73.7505 6.136 73.6058 7.032 73.3165 7.788C73.0272 8.53467 72.6118 9.11333 72.0705 9.524C71.5292 9.93467 70.8852 10.14 70.1385 10.14ZM70.1385 8.768C70.8198 8.768 71.3472 8.45067 71.7205 7.816C72.0938 7.172 72.2805 6.26667 72.2805 5.1C72.2805 3.93333 72.0938 3.03267 71.7205 2.398C71.3472 1.754 70.8198 1.432 70.1385 1.432C69.4572 1.432 68.9298 1.754 68.5565 2.398C68.1832 3.03267 67.9965 3.93333 67.9965 5.1C67.9965 6.26667 68.1832 7.172 68.5565 7.816C68.9298 8.45067 69.4572 8.768 70.1385 8.768ZM79.3284 10V2.104L79.6784 2.188L76.4584 6.122L76.4024 5.954H82.4924V7.34H75.4644L74.8204 6.08L79.6224 0.199999H80.7844V10H79.3284ZM86.68 10.098C86.036 10.098 85.4527 9.95333 84.93 9.664C84.4074 9.36533 83.9734 8.94067 83.628 8.39L84.468 7.452C84.9067 7.93733 85.2894 8.26867 85.616 8.446C85.9427 8.62333 86.2974 8.712 86.68 8.712C87.0627 8.712 87.408 8.628 87.716 8.46C88.024 8.292 88.2667 8.06333 88.444 7.774C88.6307 7.48467 88.724 7.16267 88.724 6.808C88.724 6.43467 88.6354 6.10333 88.458 5.814C88.29 5.51533 88.0614 5.282 87.772 5.114C87.4827 4.93667 87.156 4.848 86.792 4.848C86.6147 4.848 86.4467 4.862 86.288 4.89C86.1294 4.90867 85.938 4.96 85.714 5.044C85.49 5.128 85.196 5.25867 84.832 5.436L84.034 4.358L84.608 0.199999H89.9V1.6H85.56L85.854 1.334L85.392 4.442L85.042 4.036C85.1354 3.94267 85.294 3.854 85.518 3.77C85.742 3.67667 85.9894 3.602 86.26 3.546C86.54 3.48067 86.806 3.448 87.058 3.448C87.6554 3.448 88.1874 3.588 88.654 3.868C89.13 4.13867 89.5034 4.51667 89.774 5.002C90.054 5.48733 90.194 6.04267 90.194 6.668C90.194 7.312 90.04 7.89533 89.732 8.418C89.424 8.93133 89.004 9.342 88.472 9.65C87.94 9.94867 87.3427 10.098 86.68 10.098Z" fill="black"/>
</svg>
